<?xml version="1.0" encoding="utf-8" standalone="no"?>
<!DOCTYPE svg PUBLIC "-//W3C//DTD SVG 1.1//EN"
  "http://www.w3.org/Graphics/SVG/1.1/DTD/svg11.dtd">
<svg xmlns:xlink="http://www.w3.org/1999/xlink" width="432pt" height="144pt" viewBox="0 0 432 144" xmlns="http://www.w3.org/2000/svg" version="1.1">
 <metadata>
  <rdf:RDF xmlns:dc="http://purl.org/dc/elements/1.1/" xmlns:cc="http://creativecommons.org/ns#" xmlns:rdf="http://www.w3.org/1999/02/22-rdf-syntax-ns#">
   <cc:Work>
    <dc:type rdf:resource="http://purl.org/dc/dcmitype/StillImage"/>
    <dc:date>2022-06-16T16:29:52.650200</dc:date>
    <dc:format>image/svg+xml</dc:format>
    <dc:creator>
     <cc:Agent>
      <dc:title>Matplotlib v3.5.2, https://matplotlib.org/</dc:title>
     </cc:Agent>
    </dc:creator>
   </cc:Work>
  </rdf:RDF>
 </metadata>
 <defs>
  <style type="text/css">*{stroke-linejoin: round; stroke-linecap: butt}</style>
 </defs>
 <g id="figure_1">
  <g id="patch_1">
   <path d="M 0 144 
L 432 144 
L 432 0 
L 0 0 
L 0 144 
z
" style="fill: none"/>
  </g>
  <g id="axes_1">
   <g id="patch_2">
    <path d="M 3.00024 139.316839 
L 140.99976 139.316839 
L 140.99976 4.683161 
L 3.00024 4.683161 
L 3.00024 139.316839 
z
" style="fill: none"/>
   </g>
   <g id="patch_3">
    <path d="M 55.17079 105.65842 
C 64.097107 105.65842 72.659028 102.111956 78.970887 95.800097 
C 85.282746 89.488237 88.82921 80.926317 88.82921 72 
C 88.82921 63.073683 85.282746 54.511763 78.970887 48.199903 
C 72.659028 41.888044 64.097107 38.34158 55.17079 38.34158 
C 46.244473 38.34158 37.682553 41.888044 31.370694 48.199903 
C 25.058834 54.511763 21.512371 63.073683 21.512371 72 
C 21.512371 80.926317 25.058834 89.488237 31.370694 95.800097 
C 37.682553 102.111956 46.244473 105.65842 55.17079 105.65842 
z
" clip-path="url(#pc64b7209a0)" style="fill: #0271ae; stroke: #0271ae; stroke-width: 2; stroke-linejoin: miter"/>
   </g>
   <g id="patch_4">
    <path d="M 88.82921 105.65842 
C 97.755527 105.65842 106.317447 102.111956 112.629306 95.800097 
C 118.941166 89.488237 122.487629 80.926317 122.487629 72 
C 122.487629 63.073683 118.941166 54.511763 112.629306 48.199903 
C 106.317447 41.888044 97.755527 38.34158 88.82921 38.34158 
C 79.902893 38.34158 71.340972 41.888044 65.029113 48.199903 
C 58.717254 54.511763 55.17079 63.073683 55.17079 72 
C 55.17079 80.926317 58.717254 89.488237 65.029113 95.800097 
C 71.340972 102.111956 79.902893 105.65842 88.82921 105.65842 
z
" clip-path="url(#pc64b7209a0)" style="fill: #dc2830; stroke: #dc2830; stroke-width: 2; stroke-linejoin: miter"/>
   </g>
   <g id="matplotlib.axis_1"/>
   <g id="matplotlib.axis_2"/>
   <g id="PolyCollection_1">
    <defs>
     <path id="m66ac1d3e92" d="M 55.17079 -72 
L 55.17079 -72 
L 55.302268 -74.972105 
L 55.433747 -76.199077 
L 55.565225 -77.137754 
L 55.696703 -77.926736 
L 55.828181 -78.619767 
L 55.959659 -79.244437 
L 56.091138 -79.81715 
L 56.222616 -80.348607 
L 56.354094 -80.846246 
L 56.485572 -81.315488 
L 56.61705 -81.76043 
L 56.748529 -82.184258 
L 56.880007 -82.589506 
L 57.011485 -82.978233 
L 57.142963 -83.352136 
L 57.274441 -83.712634 
L 57.40592 -84.06093 
L 57.537398 -84.398053 
L 57.668876 -84.724889 
L 57.800354 -85.042213 
L 57.931832 -85.350703 
L 58.063311 -85.650958 
L 58.194789 -85.94351 
L 58.326267 -86.228833 
L 58.457745 -86.507355 
L 58.589223 -86.77946 
L 58.720702 -87.045496 
L 58.85218 -87.305779 
L 58.983658 -87.560599 
L 59.115136 -87.81022 
L 59.246614 -88.054883 
L 59.378093 -88.294812 
L 59.509571 -88.530214 
L 59.641049 -88.761279 
L 59.772527 -88.988184 
L 59.904005 -89.211094 
L 60.035484 -89.430162 
L 60.166962 -89.645531 
L 60.29844 -89.857334 
L 60.429918 -90.065698 
L 60.561396 -90.27074 
L 60.692875 -90.47257 
L 60.824353 -90.671293 
L 60.955831 -90.867007 
L 61.087309 -91.059805 
L 61.218788 -91.249774 
L 61.350266 -91.436997 
L 61.481744 -91.621552 
L 61.613222 -91.803515 
L 61.7447 -91.982957 
L 61.876179 -92.159943 
L 62.007657 -92.334539 
L 62.139135 -92.506806 
L 62.270613 -92.676802 
L 62.402091 -92.844582 
L 62.53357 -93.0102 
L 62.665048 -93.173706 
L 62.796526 -93.335149 
L 62.928004 -93.494575 
L 63.059482 -93.652029 
L 63.190961 -93.807553 
L 63.322439 -93.961189 
L 63.453917 -94.112976 
L 63.585395 -94.262952 
L 63.716873 -94.411153 
L 63.848352 -94.557613 
L 63.97983 -94.702368 
L 64.111308 -94.845449 
L 64.242786 -94.986887 
L 64.374264 -95.126713 
L 64.505743 -95.264955 
L 64.637221 -95.401642 
L 64.768699 -95.536801 
L 64.900177 -95.670458 
L 65.031655 -95.802639 
L 65.163134 -95.933367 
L 65.294612 -96.062666 
L 65.42609 -96.19056 
L 65.557568 -96.31707 
L 65.689046 -96.442218 
L 65.820525 -96.566025 
L 65.952003 -96.688512 
L 66.083481 -96.809696 
L 66.214959 -96.929598 
L 66.346437 -97.048236 
L 66.477916 -97.165628 
L 66.609394 -97.281791 
L 66.740872 -97.396743 
L 66.87235 -97.510498 
L 67.003828 -97.623074 
L 67.135307 -97.734486 
L 67.266785 -97.844749 
L 67.398263 -97.953877 
L 67.529741 -98.061885 
L 67.661219 -98.168786 
L 67.792698 -98.274595 
L 67.924176 -98.379324 
L 68.055654 -98.482987 
L 68.187132 -98.585595 
L 68.31861 -98.68716 
L 68.450089 -98.787695 
L 68.581567 -98.887212 
L 68.713045 -98.985721 
L 68.844523 -99.083233 
L 68.976001 -99.179759 
L 69.10748 -99.27531 
L 69.238958 -99.369896 
L 69.370436 -99.463527 
L 69.501914 -99.556213 
L 69.633392 -99.647962 
L 69.764871 -99.738785 
L 69.896349 -99.82869 
L 70.027827 -99.917686 
L 70.159305 -100.005783 
L 70.290783 -100.092988 
L 70.422262 -100.179309 
L 70.55374 -100.264755 
L 70.685218 -100.349335 
L 70.816696 -100.433054 
L 70.948174 -100.515921 
L 71.079653 -100.597944 
L 71.211131 -100.67913 
L 71.342609 -100.759485 
L 71.474087 -100.839017 
L 71.605565 -100.917733 
L 71.737044 -100.995639 
L 71.868522 -101.072741 
L 72 -101.149046 
L 72.131478 -101.072741 
L 72.262956 -100.995639 
L 72.394435 -100.917733 
L 72.525913 -100.839017 
L 72.657391 -100.759485 
L 72.788869 -100.67913 
L 72.920347 -100.597944 
L 73.051826 -100.515921 
L 73.183304 -100.433054 
L 73.314782 -100.349335 
L 73.44626 -100.264755 
L 73.577738 -100.179309 
L 73.709217 -100.092988 
L 73.840695 -100.005783 
L 73.972173 -99.917686 
L 74.103651 -99.82869 
L 74.235129 -99.738785 
L 74.366608 -99.647962 
L 74.498086 -99.556213 
L 74.629564 -99.463527 
L 74.761042 -99.369896 
L 74.89252 -99.27531 
L 75.023999 -99.179759 
L 75.155477 -99.083233 
L 75.286955 -98.985721 
L 75.418433 -98.887212 
L 75.549911 -98.787695 
L 75.68139 -98.68716 
L 75.812868 -98.585595 
L 75.944346 -98.482987 
L 76.075824 -98.379324 
L 76.207302 -98.274595 
L 76.338781 -98.168786 
L 76.470259 -98.061885 
L 76.601737 -97.953877 
L 76.733215 -97.844749 
L 76.864693 -97.734486 
L 76.996172 -97.623074 
L 77.12765 -97.510498 
L 77.259128 -97.396743 
L 77.390606 -97.281791 
L 77.522084 -97.165628 
L 77.653563 -97.048236 
L 77.785041 -96.929598 
L 77.916519 -96.809696 
L 78.047997 -96.688512 
L 78.179475 -96.566025 
L 78.310954 -96.442218 
L 78.442432 -96.31707 
L 78.57391 -96.19056 
L 78.705388 -96.062666 
L 78.836866 -95.933367 
L 78.968345 -95.802639 
L 79.099823 -95.670458 
L 79.231301 -95.536801 
L 79.362779 -95.401642 
L 79.494257 -95.264955 
L 79.625736 -95.126713 
L 79.757214 -94.986887 
L 79.888692 -94.845449 
L 80.02017 -94.702368 
L 80.151648 -94.557613 
L 80.283127 -94.411153 
L 80.414605 -94.262952 
L 80.546083 -94.112976 
L 80.677561 -93.961189 
L 80.809039 -93.807553 
L 80.940518 -93.652029 
L 81.071996 -93.494575 
L 81.203474 -93.335149 
L 81.334952 -93.173706 
L 81.46643 -93.0102 
L 81.597909 -92.844582 
L 81.729387 -92.676802 
L 81.860865 -92.506806 
L 81.992343 -92.334539 
L 82.123821 -92.159943 
L 82.2553 -91.982957 
L 82.386778 -91.803515 
L 82.518256 -91.621552 
L 82.649734 -91.436997 
L 82.781213 -91.249774 
L 82.912691 -91.059805 
L 83.044169 -90.867007 
L 83.175647 -90.671293 
L 83.307125 -90.47257 
L 83.438604 -90.27074 
L 83.570082 -90.065698 
L 83.70156 -89.857334 
L 83.833038 -89.645531 
L 83.964516 -89.430162 
L 84.095995 -89.211094 
L 84.227473 -88.988184 
L 84.358951 -88.761279 
L 84.490429 -88.530214 
L 84.621907 -88.294812 
L 84.753386 -88.054883 
L 84.884864 -87.81022 
L 85.016342 -87.560599 
L 85.14782 -87.305779 
L 85.279298 -87.045496 
L 85.410777 -86.77946 
L 85.542255 -86.507355 
L 85.673733 -86.228833 
L 85.805211 -85.94351 
L 85.936689 -85.650958 
L 86.068168 -85.350703 
L 86.199646 -85.042213 
L 86.331124 -84.724889 
L 86.462602 -84.398053 
L 86.59408 -84.06093 
L 86.725559 -83.712634 
L 86.857037 -83.352136 
L 86.988515 -82.978233 
L 87.119993 -82.589506 
L 87.251471 -82.184258 
L 87.38295 -81.76043 
L 87.514428 -81.315488 
L 87.645906 -80.846246 
L 87.777384 -80.348607 
L 87.908862 -79.81715 
L 88.040341 -79.244437 
L 88.171819 -78.619767 
L 88.303297 -77.926736 
L 88.434775 -77.137754 
L 88.566253 -76.199077 
L 88.697732 -74.972105 
L 88.82921 -72 
L 88.82921 -72 
L 88.82921 -72 
L 88.697732 -69.027895 
L 88.566253 -67.800923 
L 88.434775 -66.862246 
L 88.303297 -66.073264 
L 88.171819 -65.380233 
L 88.040341 -64.755563 
L 87.908862 -64.18285 
L 87.777384 -63.651393 
L 87.645906 -63.153754 
L 87.514428 -62.684512 
L 87.38295 -62.23957 
L 87.251471 -61.815742 
L 87.119993 -61.410494 
L 86.988515 -61.021767 
L 86.857037 -60.647864 
L 86.725559 -60.287366 
L 86.59408 -59.93907 
L 86.462602 -59.601947 
L 86.331124 -59.275111 
L 86.199646 -58.957787 
L 86.068168 -58.649297 
L 85.936689 -58.349042 
L 85.805211 -58.05649 
L 85.673733 -57.771167 
L 85.542255 -57.492645 
L 85.410777 -57.22054 
L 85.279298 -56.954504 
L 85.14782 -56.694221 
L 85.016342 -56.439401 
L 84.884864 -56.18978 
L 84.753386 -55.945117 
L 84.621907 -55.705188 
L 84.490429 -55.469786 
L 84.358951 -55.238721 
L 84.227473 -55.011816 
L 84.095995 -54.788906 
L 83.964516 -54.569838 
L 83.833038 -54.354469 
L 83.70156 -54.142666 
L 83.570082 -53.934302 
L 83.438604 -53.72926 
L 83.307125 -53.52743 
L 83.175647 -53.328707 
L 83.044169 -53.132993 
L 82.912691 -52.940195 
L 82.781213 -52.750226 
L 82.649734 -52.563003 
L 82.518256 -52.378448 
L 82.386778 -52.196485 
L 82.2553 -52.017043 
L 82.123821 -51.840057 
L 81.992343 -51.665461 
L 81.860865 -51.493194 
L 81.729387 -51.323198 
L 81.597909 -51.155418 
L 81.46643 -50.9898 
L 81.334952 -50.826294 
L 81.203474 -50.664851 
L 81.071996 -50.505425 
L 80.940518 -50.347971 
L 80.809039 -50.192447 
L 80.677561 -50.038811 
L 80.546083 -49.887024 
L 80.414605 -49.737048 
L 80.283127 -49.588847 
L 80.151648 -49.442387 
L 80.02017 -49.297632 
L 79.888692 -49.154551 
L 79.757214 -49.013113 
L 79.625736 -48.873287 
L 79.494257 -48.735045 
L 79.362779 -48.598358 
L 79.231301 -48.463199 
L 79.099823 -48.329542 
L 78.968345 -48.197361 
L 78.836866 -48.066633 
L 78.705388 -47.937334 
L 78.57391 -47.80944 
L 78.442432 -47.68293 
L 78.310954 -47.557782 
L 78.179475 -47.433975 
L 78.047997 -47.311488 
L 77.916519 -47.190304 
L 77.785041 -47.070402 
L 77.653563 -46.951764 
L 77.522084 -46.834372 
L 77.390606 -46.718209 
L 77.259128 -46.603257 
L 77.12765 -46.489502 
L 76.996172 -46.376926 
L 76.864693 -46.265514 
L 76.733215 -46.155251 
L 76.601737 -46.046123 
L 76.470259 -45.938115 
L 76.338781 -45.831214 
L 76.207302 -45.725405 
L 76.075824 -45.620676 
L 75.944346 -45.517013 
L 75.812868 -45.414405 
L 75.68139 -45.31284 
L 75.549911 -45.212305 
L 75.418433 -45.112788 
L 75.286955 -45.014279 
L 75.155477 -44.916767 
L 75.023999 -44.820241 
L 74.89252 -44.72469 
L 74.761042 -44.630104 
L 74.629564 -44.536473 
L 74.498086 -44.443787 
L 74.366608 -44.352038 
L 74.235129 -44.261215 
L 74.103651 -44.17131 
L 73.972173 -44.082314 
L 73.840695 -43.994217 
L 73.709217 -43.907012 
L 73.577738 -43.820691 
L 73.44626 -43.735245 
L 73.314782 -43.650665 
L 73.183304 -43.566946 
L 73.051826 -43.484079 
L 72.920347 -43.402056 
L 72.788869 -43.32087 
L 72.657391 -43.240515 
L 72.525913 -43.160983 
L 72.394435 -43.082267 
L 72.262956 -43.004361 
L 72.131478 -42.927259 
L 72 -42.850954 
L 71.868522 -42.927259 
L 71.737044 -43.004361 
L 71.605565 -43.082267 
L 71.474087 -43.160983 
L 71.342609 -43.240515 
L 71.211131 -43.32087 
L 71.079653 -43.402056 
L 70.948174 -43.484079 
L 70.816696 -43.566946 
L 70.685218 -43.650665 
L 70.55374 -43.735245 
L 70.422262 -43.820691 
L 70.290783 -43.907012 
L 70.159305 -43.994217 
L 70.027827 -44.082314 
L 69.896349 -44.17131 
L 69.764871 -44.261215 
L 69.633392 -44.352038 
L 69.501914 -44.443787 
L 69.370436 -44.536473 
L 69.238958 -44.630104 
L 69.10748 -44.72469 
L 68.976001 -44.820241 
L 68.844523 -44.916767 
L 68.713045 -45.014279 
L 68.581567 -45.112788 
L 68.450089 -45.212305 
L 68.31861 -45.31284 
L 68.187132 -45.414405 
L 68.055654 -45.517013 
L 67.924176 -45.620676 
L 67.792698 -45.725405 
L 67.661219 -45.831214 
L 67.529741 -45.938115 
L 67.398263 -46.046123 
L 67.266785 -46.155251 
L 67.135307 -46.265514 
L 67.003828 -46.376926 
L 66.87235 -46.489502 
L 66.740872 -46.603257 
L 66.609394 -46.718209 
L 66.477916 -46.834372 
L 66.346437 -46.951764 
L 66.214959 -47.070402 
L 66.083481 -47.190304 
L 65.952003 -47.311488 
L 65.820525 -47.433975 
L 65.689046 -47.557782 
L 65.557568 -47.68293 
L 65.42609 -47.80944 
L 65.294612 -47.937334 
L 65.163134 -48.066633 
L 65.031655 -48.197361 
L 64.900177 -48.329542 
L 64.768699 -48.463199 
L 64.637221 -48.598358 
L 64.505743 -48.735045 
L 64.374264 -48.873287 
L 64.242786 -49.013113 
L 64.111308 -49.154551 
L 63.97983 -49.297632 
L 63.848352 -49.442387 
L 63.716873 -49.588847 
L 63.585395 -49.737048 
L 63.453917 -49.887024 
L 63.322439 -50.038811 
L 63.190961 -50.192447 
L 63.059482 -50.347971 
L 62.928004 -50.505425 
L 62.796526 -50.664851 
L 62.665048 -50.826294 
L 62.53357 -50.9898 
L 62.402091 -51.155418 
L 62.270613 -51.323198 
L 62.139135 -51.493194 
L 62.007657 -51.665461 
L 61.876179 -51.840057 
L 61.7447 -52.017043 
L 61.613222 -52.196485 
L 61.481744 -52.378448 
L 61.350266 -52.563003 
L 61.218788 -52.750226 
L 61.087309 -52.940195 
L 60.955831 -53.132993 
L 60.824353 -53.328707 
L 60.692875 -53.52743 
L 60.561396 -53.72926 
L 60.429918 -53.934302 
L 60.29844 -54.142666 
L 60.166962 -54.354469 
L 60.035484 -54.569838 
L 59.904005 -54.788906 
L 59.772527 -55.011816 
L 59.641049 -55.238721 
L 59.509571 -55.469786 
L 59.378093 -55.705188 
L 59.246614 -55.945117 
L 59.115136 -56.18978 
L 58.983658 -56.439401 
L 58.85218 -56.694221 
L 58.720702 -56.954504 
L 58.589223 -57.22054 
L 58.457745 -57.492645 
L 58.326267 -57.771167 
L 58.194789 -58.05649 
L 58.063311 -58.349042 
L 57.931832 -58.649297 
L 57.800354 -58.957787 
L 57.668876 -59.275111 
L 57.537398 -59.601947 
L 57.40592 -59.93907 
L 57.274441 -60.287366 
L 57.142963 -60.647864 
L 57.011485 -61.021767 
L 56.880007 -61.410494 
L 56.748529 -61.815742 
L 56.61705 -62.23957 
L 56.485572 -62.684512 
L 56.354094 -63.153754 
L 56.222616 -63.651393 
L 56.091138 -64.18285 
L 55.959659 -64.755563 
L 55.828181 -65.380233 
L 55.696703 -66.073264 
L 55.565225 -66.862246 
L 55.433747 -67.800923 
L 55.302268 -69.027895 
L 55.17079 -72 
z
" style="stroke: #6e3b87; stroke-width: 3"/>
    </defs>
    <g clip-path="url(#pc64b7209a0)">
     <use xlink:href="#m66ac1d3e92" x="0" y="144" style="fill: #6e3b87; stroke: #6e3b87; stroke-width: 3"/>
    </g>
   </g>
  </g>
  <g id="axes_2">
   <g id="patch_5">
    <path d="M 147.00024 109.024261 
L 284.99976 109.024261 
L 284.99976 34.975739 
L 147.00024 34.975739 
L 147.00024 109.024261 
z
" style="fill: none"/>
   </g>
   <g id="patch_6">
    <path d="M 216 105.65842 
C 224.926317 105.65842 233.488237 102.111956 239.800097 95.800097 
C 246.111956 89.488237 249.65842 80.926317 249.65842 72 
C 249.65842 63.073683 246.111956 54.511763 239.800097 48.199903 
C 233.488237 41.888044 224.926317 38.34158 216 38.34158 
C 207.073683 38.34158 198.511763 41.888044 192.199903 48.199903 
C 185.888044 54.511763 182.34158 63.073683 182.34158 72 
C 182.34158 80.926317 185.888044 89.488237 192.199903 95.800097 
C 198.511763 102.111956 207.073683 105.65842 216 105.65842 
L 216 105.65842 
z
" clip-path="url(#p2bd1611826)" style="fill: none; stroke: #343837; stroke-width: 2; stroke-linejoin: miter"/>
   </g>
   <g id="matplotlib.axis_3"/>
   <g id="matplotlib.axis_4"/>
   <g id="PathCollection_1">
    <defs>
     <path id="m2f3e9fa0f3" d="M -3.872983 3.872983 
L 3.872983 3.872983 
L 3.872983 -3.872983 
L -3.872983 -3.872983 
z
" style="stroke: #0271ae; stroke-width: 0.5"/>
    </defs>
    <g clip-path="url(#p2bd1611826)">
     <use xlink:href="#m2f3e9fa0f3" x="249.65842" y="72" style="fill: #0271ae; stroke: #0271ae; stroke-width: 0.5"/>
     <use xlink:href="#m2f3e9fa0f3" x="239.800097" y="48.199903" style="fill: #0271ae; stroke: #0271ae; stroke-width: 0.5"/>
     <use xlink:href="#m2f3e9fa0f3" x="216" y="38.34158" style="fill: #0271ae; stroke: #0271ae; stroke-width: 0.5"/>
     <use xlink:href="#m2f3e9fa0f3" x="192.199903" y="48.199903" style="fill: #0271ae; stroke: #0271ae; stroke-width: 0.5"/>
     <use xlink:href="#m2f3e9fa0f3" x="182.34158" y="72" style="fill: #0271ae; stroke: #0271ae; stroke-width: 0.5"/>
     <use xlink:href="#m2f3e9fa0f3" x="192.199903" y="95.800097" style="fill: #0271ae; stroke: #0271ae; stroke-width: 0.5"/>
     <use xlink:href="#m2f3e9fa0f3" x="216" y="105.65842" style="fill: #0271ae; stroke: #0271ae; stroke-width: 0.5"/>
     <use xlink:href="#m2f3e9fa0f3" x="239.800097" y="95.800097" style="fill: #0271ae; stroke: #0271ae; stroke-width: 0.5"/>
    </g>
   </g>
  </g>
  <g id="axes_3">
   <g id="patch_7">
    <path d="M 291.00024 140.422253 
L 428.99976 140.422253 
L 428.99976 3.577747 
L 291.00024 3.577747 
L 291.00024 140.422253 
z
" style="fill: none"/>
   </g>
   <g id="matplotlib.axis_5"/>
   <g id="matplotlib.axis_6"/>
   <g id="line2d_1">
    <path d="M 291.00024 134.202049 
L 291.270827 120.375038 
L 291.812002 106.548027 
L 292.353176 98.459744 
L 293.164938 90.371462 
L 293.9767 84.632734 
L 295.059049 78.894006 
L 296.141399 74.442702 
L 297.223748 70.805723 
L 298.576684 67.030693 
L 299.929621 63.857645 
L 301.553144 60.615692 
L 303.176668 57.827698 
L 305.070779 55.002031 
L 307.235478 52.19768 
L 309.400176 49.739415 
L 311.835462 47.293725 
L 314.541335 44.887418 
L 317.517795 42.537863 
L 320.764842 40.255588 
L 324.282477 38.046302 
L 328.341287 35.768374 
L 332.670683 33.594998 
L 337.541255 31.403364 
L 342.953 29.221064 
L 348.905921 27.067703 
L 355.400016 24.956678 
L 362.705873 22.821572 
L 370.823492 20.689849 
L 379.752872 18.581362 
L 389.494015 16.509953 
L 400.317507 14.43555 
L 412.493935 12.333802 
L 426.0233 10.232053 
L 428.99976 9.797951 
L 428.99976 9.797951 
" clip-path="url(#p3a8b5f9a9c)" style="fill: none; stroke: #0271ae; stroke-width: 2; stroke-linecap: round"/>
   </g>
   <g id="line2d_2">
    <path d="M 291.00024 110.122767 
L 291.270827 100.538614 
L 291.812002 90.95446 
L 292.353176 85.34809 
L 293.164938 79.741719 
L 293.9767 75.763936 
L 295.059049 71.786153 
L 296.141399 68.700745 
L 297.494335 65.615337 
L 298.847272 63.094375 
L 300.470795 60.573412 
L 302.094319 58.441969 
L 303.98843 56.310526 
L 306.153128 54.219454 
L 308.588414 52.192366 
L 311.294287 50.241671 
L 314.270747 48.372608 
L 317.517795 46.585996 
L 321.306017 44.757125 
L 325.635414 42.926089 
L 330.505985 41.120002 
L 335.917731 39.356212 
L 342.141239 37.572109 
L 349.176508 35.798735 
L 357.02354 34.056811 
L 365.95292 32.30959 
L 375.96465 30.581884 
L 387.329317 28.851252 
L 400.317507 27.106956 
L 414.929221 25.376324 
L 428.99976 23.892418 
L 428.99976 23.892418 
" clip-path="url(#p3a8b5f9a9c)" style="fill: none; stroke: #dc2830; stroke-width: 2; stroke-linecap: round"/>
   </g>
   <g id="line2d_3">
    <path d="M 291.00024 79.352641 
L 291.270827 75.190296 
L 291.812002 71.027951 
L 292.353176 68.593135 
L 293.164938 66.15832 
L 293.9767 64.43079 
L 295.059049 62.703261 
L 296.141399 61.363285 
L 297.494335 60.023309 
L 299.117859 58.731567 
L 301.01197 57.508956 
L 303.447256 56.232526 
L 306.153128 55.07414 
L 309.400176 53.926855 
L 313.458985 52.745611 
L 318.329557 51.579705 
L 324.01189 50.455501 
L 331.04716 49.303971 
L 339.435366 48.168964 
L 349.447096 47.046387 
L 361.623524 45.914763 
L 376.235238 44.789441 
L 393.823412 43.666164 
L 414.929221 42.547728 
L 428.99976 41.903276 
L 428.99976 41.903276 
" clip-path="url(#p3a8b5f9a9c)" style="fill: none; stroke: #f2aa00; stroke-width: 2; stroke-linecap: round"/>
   </g>
  </g>
 </g>
 <defs>
  <clipPath id="pc64b7209a0">
   <rect x="3.00024" y="4.683161" width="137.99952" height="134.633678"/>
  </clipPath>
  <clipPath id="p2bd1611826">
   <rect x="147.00024" y="34.975739" width="137.99952" height="74.048523"/>
  </clipPath>
  <clipPath id="p3a8b5f9a9c">
   <rect x="291.00024" y="3.577747" width="137.99952" height="136.844507"/>
  </clipPath>
 </defs>
</svg>
