<?xml version="1.0" encoding="utf-8" standalone="no"?>
<!DOCTYPE svg PUBLIC "-//W3C//DTD SVG 1.1//EN"
  "http://www.w3.org/Graphics/SVG/1.1/DTD/svg11.dtd">
<svg height="192pt" version="1.1" viewBox="0 0 576 192" width="576pt" xmlns="http://www.w3.org/2000/svg" xmlns:xlink="http://www.w3.org/1999/xlink">
 <metadata>
  <rdf:RDF xmlns:cc="http://creativecommons.org/ns#" xmlns:dc="http://purl.org/dc/elements/1.1/" xmlns:rdf="http://www.w3.org/1999/02/22-rdf-syntax-ns#">
   <cc:Work>
    <dc:type rdf:resource="http://purl.org/dc/dcmitype/StillImage"/>
    <dc:date>2021-08-20T09:18:08.731586</dc:date>
    <dc:format>image/svg+xml</dc:format>
    <dc:creator>
     <cc:Agent>
      <dc:title>Matplotlib v3.4.2, https://matplotlib.org/</dc:title>
     </cc:Agent>
    </dc:creator>
   </cc:Work>
  </rdf:RDF>
 </metadata>
 <defs>
  <style type="text/css">*{stroke-linecap:butt;stroke-linejoin:round;}</style>
 </defs>
 <g id="figure_1">
  <g id="patch_1">
   <path d="M 0 192 
L 576 192 
L 576 0 
L 0 0 
z
" style="fill:none;"/>
  </g>
  <g id="axes_1">
   <g id="patch_2">
    <path d="M 3.00024 186.731473 
L 188.99976 186.731473 
L 188.99976 5.268527 
L 3.00024 5.268527 
z
" style="fill:none;"/>
   </g>
   <g id="patch_3">
    <path clip-path="url(#p78b657603f)" d="M 73.317132 141.365737 
C 85.348266 141.365737 96.888255 136.585716 105.395552 128.07842 
C 113.902848 119.571124 118.682868 108.031134 118.682868 96 
C 118.682868 83.968866 113.902848 72.428876 105.395552 63.92158 
C 96.888255 55.414284 85.348266 50.634263 73.317132 50.634263 
C 61.285998 50.634263 49.746008 55.414284 41.238712 63.92158 
C 32.731415 72.428876 27.951395 83.968866 27.951395 96 
C 27.951395 108.031134 32.731415 119.571124 41.238712 128.07842 
C 49.746008 136.585716 61.285998 141.365737 73.317132 141.365737 
z
" style="fill:#0271ae;stroke:#0271ae;stroke-linejoin:miter;stroke-width:2;"/>
   </g>
   <g id="patch_4">
    <path clip-path="url(#p78b657603f)" d="M 118.682868 141.365737 
C 130.714002 141.365737 142.253992 136.585716 150.761288 128.07842 
C 159.268585 119.571124 164.048605 108.031134 164.048605 96 
C 164.048605 83.968866 159.268585 72.428876 150.761288 63.92158 
C 142.253992 55.414284 130.714002 50.634263 118.682868 50.634263 
C 106.651734 50.634263 95.111745 55.414284 86.604448 63.92158 
C 78.097152 72.428876 73.317132 83.968866 73.317132 96 
C 73.317132 108.031134 78.097152 119.571124 86.604448 128.07842 
C 95.111745 136.585716 106.651734 141.365737 118.682868 141.365737 
z
" style="fill:#dc2830;stroke:#dc2830;stroke-linejoin:miter;stroke-width:2;"/>
   </g>
   <g id="matplotlib.axis_1"/>
   <g id="matplotlib.axis_2"/>
   <g id="PolyCollection_1">
    <defs>
     <path d="M 73.317132 -96 
L 73.317132 -96 
L 73.494342 -100.005885 
L 73.671552 -101.659631 
L 73.848761 -102.924805 
L 74.025971 -103.988217 
L 74.203181 -104.922303 
L 74.380391 -105.76425 
L 74.557601 -106.536169 
L 74.734811 -107.25248 
L 74.912021 -107.923212 
L 75.089231 -108.555669 
L 75.266441 -109.155374 
L 75.443651 -109.72662 
L 75.620861 -110.272825 
L 75.79807 -110.796762 
L 75.97528 -111.300719 
L 76.15249 -111.786608 
L 76.3297 -112.256051 
L 76.50691 -112.710434 
L 76.68412 -113.150953 
L 76.86133 -113.578651 
L 77.03854 -113.994442 
L 77.21575 -114.399134 
L 77.39296 -114.793443 
L 77.57017 -115.17801 
L 77.747379 -115.553409 
L 77.924589 -115.920159 
L 78.101799 -116.27873 
L 78.279009 -116.629547 
L 78.456219 -116.973 
L 78.633429 -117.309445 
L 78.810639 -117.639209 
L 78.987849 -117.962593 
L 79.165059 -118.279874 
L 79.342269 -118.59131 
L 79.519479 -118.897139 
L 79.696688 -119.197583 
L 79.873898 -119.492848 
L 80.051108 -119.783128 
L 80.228318 -120.068603 
L 80.405528 -120.349441 
L 80.582738 -120.625802 
L 80.759948 -120.897834 
L 80.937158 -121.165679 
L 81.114368 -121.429468 
L 81.291578 -121.689325 
L 81.468788 -121.94537 
L 81.645997 -122.197715 
L 81.823207 -122.446464 
L 82.000417 -122.691719 
L 82.177627 -122.933574 
L 82.354837 -123.172122 
L 82.532047 -123.407447 
L 82.709257 -123.639633 
L 82.886467 -123.868758 
L 83.063677 -124.094897 
L 83.240887 -124.318121 
L 83.418096 -124.538499 
L 83.595306 -124.756096 
L 83.772516 -124.970975 
L 83.949726 -125.183195 
L 84.126936 -125.392816 
L 84.304146 -125.59989 
L 84.481356 -125.804473 
L 84.658566 -126.006614 
L 84.835776 -126.206363 
L 85.012986 -126.403767 
L 85.190196 -126.598871 
L 85.367405 -126.79172 
L 85.544615 -126.982354 
L 85.721825 -127.170815 
L 85.899035 -127.357142 
L 86.076245 -127.541373 
L 86.253455 -127.723543 
L 86.430665 -127.90369 
L 86.607875 -128.081846 
L 86.785085 -128.258045 
L 86.962295 -128.432318 
L 87.139505 -128.604697 
L 87.316714 -128.775211 
L 87.493924 -128.943889 
L 87.671134 -129.11076 
L 87.848344 -129.27585 
L 88.025554 -129.439186 
L 88.202764 -129.600793 
L 88.379974 -129.760697 
L 88.557184 -129.918921 
L 88.734394 -130.075489 
L 88.911604 -130.230423 
L 89.088814 -130.383746 
L 89.266023 -130.535479 
L 89.443233 -130.685643 
L 89.620443 -130.834258 
L 89.797653 -130.981344 
L 89.974863 -131.12692 
L 90.152073 -131.271005 
L 90.329283 -131.413617 
L 90.506493 -131.554774 
L 90.683703 -131.694492 
L 90.860913 -131.83279 
L 91.038123 -131.969683 
L 91.215332 -132.105187 
L 91.392542 -132.239318 
L 91.569752 -132.372091 
L 91.746962 -132.503521 
L 91.924172 -132.633622 
L 92.101382 -132.762408 
L 92.278592 -132.889894 
L 92.455802 -133.016092 
L 92.633012 -133.141015 
L 92.810222 -133.264678 
L 92.987432 -133.387091 
L 93.164641 -133.508268 
L 93.341851 -133.62822 
L 93.519061 -133.746958 
L 93.696271 -133.864496 
L 93.873481 -133.980842 
L 94.050691 -134.096009 
L 94.227901 -134.210007 
L 94.405111 -134.322846 
L 94.582321 -134.434537 
L 94.759531 -134.54509 
L 94.936741 -134.654514 
L 95.11395 -134.762819 
L 95.29116 -134.870015 
L 95.46837 -134.97611 
L 95.64558 -135.081113 
L 95.82279 -135.185034 
L 96 -135.28788 
L 96.17721 -135.185034 
L 96.35442 -135.081113 
L 96.53163 -134.97611 
L 96.70884 -134.870015 
L 96.88605 -134.762819 
L 97.063259 -134.654514 
L 97.240469 -134.54509 
L 97.417679 -134.434537 
L 97.594889 -134.322846 
L 97.772099 -134.210007 
L 97.949309 -134.096009 
L 98.126519 -133.980842 
L 98.303729 -133.864496 
L 98.480939 -133.746958 
L 98.658149 -133.62822 
L 98.835359 -133.508268 
L 99.012568 -133.387091 
L 99.189778 -133.264678 
L 99.366988 -133.141015 
L 99.544198 -133.016092 
L 99.721408 -132.889894 
L 99.898618 -132.762408 
L 100.075828 -132.633622 
L 100.253038 -132.503521 
L 100.430248 -132.372091 
L 100.607458 -132.239318 
L 100.784668 -132.105187 
L 100.961877 -131.969683 
L 101.139087 -131.83279 
L 101.316297 -131.694492 
L 101.493507 -131.554774 
L 101.670717 -131.413617 
L 101.847927 -131.271005 
L 102.025137 -131.12692 
L 102.202347 -130.981344 
L 102.379557 -130.834258 
L 102.556767 -130.685643 
L 102.733977 -130.535479 
L 102.911186 -130.383746 
L 103.088396 -130.230423 
L 103.265606 -130.075489 
L 103.442816 -129.918921 
L 103.620026 -129.760697 
L 103.797236 -129.600793 
L 103.974446 -129.439186 
L 104.151656 -129.27585 
L 104.328866 -129.11076 
L 104.506076 -128.943889 
L 104.683286 -128.775211 
L 104.860495 -128.604697 
L 105.037705 -128.432318 
L 105.214915 -128.258045 
L 105.392125 -128.081846 
L 105.569335 -127.90369 
L 105.746545 -127.723543 
L 105.923755 -127.541373 
L 106.100965 -127.357142 
L 106.278175 -127.170815 
L 106.455385 -126.982354 
L 106.632595 -126.79172 
L 106.809804 -126.598871 
L 106.987014 -126.403767 
L 107.164224 -126.206363 
L 107.341434 -126.006614 
L 107.518644 -125.804473 
L 107.695854 -125.59989 
L 107.873064 -125.392816 
L 108.050274 -125.183195 
L 108.227484 -124.970975 
L 108.404694 -124.756096 
L 108.581904 -124.538499 
L 108.759113 -124.318121 
L 108.936323 -124.094897 
L 109.113533 -123.868758 
L 109.290743 -123.639633 
L 109.467953 -123.407447 
L 109.645163 -123.172122 
L 109.822373 -122.933574 
L 109.999583 -122.691719 
L 110.176793 -122.446464 
L 110.354003 -122.197715 
L 110.531213 -121.94537 
L 110.708422 -121.689325 
L 110.885632 -121.429468 
L 111.062842 -121.165679 
L 111.240052 -120.897834 
L 111.417262 -120.625802 
L 111.594472 -120.349441 
L 111.771682 -120.068603 
L 111.948892 -119.783128 
L 112.126102 -119.492848 
L 112.303312 -119.197583 
L 112.480521 -118.897139 
L 112.657731 -118.59131 
L 112.834941 -118.279874 
L 113.012151 -117.962593 
L 113.189361 -117.639209 
L 113.366571 -117.309445 
L 113.543781 -116.973 
L 113.720991 -116.629547 
L 113.898201 -116.27873 
L 114.075411 -115.920159 
L 114.252621 -115.553409 
L 114.42983 -115.17801 
L 114.60704 -114.793443 
L 114.78425 -114.399134 
L 114.96146 -113.994442 
L 115.13867 -113.578651 
L 115.31588 -113.150953 
L 115.49309 -112.710434 
L 115.6703 -112.256051 
L 115.84751 -111.786608 
L 116.02472 -111.300719 
L 116.20193 -110.796762 
L 116.379139 -110.272825 
L 116.556349 -109.72662 
L 116.733559 -109.155374 
L 116.910769 -108.555669 
L 117.087979 -107.923212 
L 117.265189 -107.25248 
L 117.442399 -106.536169 
L 117.619609 -105.76425 
L 117.796819 -104.922303 
L 117.974029 -103.988217 
L 118.151239 -102.924805 
L 118.328448 -101.659631 
L 118.505658 -100.005885 
L 118.682868 -96 
L 118.682868 -96 
L 118.682868 -96 
L 118.505658 -91.994115 
L 118.328448 -90.340369 
L 118.151239 -89.075195 
L 117.974029 -88.011783 
L 117.796819 -87.077697 
L 117.619609 -86.23575 
L 117.442399 -85.463831 
L 117.265189 -84.74752 
L 117.087979 -84.076788 
L 116.910769 -83.444331 
L 116.733559 -82.844626 
L 116.556349 -82.27338 
L 116.379139 -81.727175 
L 116.20193 -81.203238 
L 116.02472 -80.699281 
L 115.84751 -80.213392 
L 115.6703 -79.743949 
L 115.49309 -79.289566 
L 115.31588 -78.849047 
L 115.13867 -78.421349 
L 114.96146 -78.005558 
L 114.78425 -77.600866 
L 114.60704 -77.206557 
L 114.42983 -76.82199 
L 114.252621 -76.446591 
L 114.075411 -76.079841 
L 113.898201 -75.72127 
L 113.720991 -75.370453 
L 113.543781 -75.027 
L 113.366571 -74.690555 
L 113.189361 -74.360791 
L 113.012151 -74.037407 
L 112.834941 -73.720126 
L 112.657731 -73.40869 
L 112.480521 -73.102861 
L 112.303312 -72.802417 
L 112.126102 -72.507152 
L 111.948892 -72.216872 
L 111.771682 -71.931397 
L 111.594472 -71.650559 
L 111.417262 -71.374198 
L 111.240052 -71.102166 
L 111.062842 -70.834321 
L 110.885632 -70.570532 
L 110.708422 -70.310675 
L 110.531213 -70.05463 
L 110.354003 -69.802285 
L 110.176793 -69.553536 
L 109.999583 -69.308281 
L 109.822373 -69.066426 
L 109.645163 -68.827878 
L 109.467953 -68.592553 
L 109.290743 -68.360367 
L 109.113533 -68.131242 
L 108.936323 -67.905103 
L 108.759113 -67.681879 
L 108.581904 -67.461501 
L 108.404694 -67.243904 
L 108.227484 -67.029025 
L 108.050274 -66.816805 
L 107.873064 -66.607184 
L 107.695854 -66.40011 
L 107.518644 -66.195527 
L 107.341434 -65.993386 
L 107.164224 -65.793637 
L 106.987014 -65.596233 
L 106.809804 -65.401129 
L 106.632595 -65.20828 
L 106.455385 -65.017646 
L 106.278175 -64.829185 
L 106.100965 -64.642858 
L 105.923755 -64.458627 
L 105.746545 -64.276457 
L 105.569335 -64.09631 
L 105.392125 -63.918154 
L 105.214915 -63.741955 
L 105.037705 -63.567682 
L 104.860495 -63.395303 
L 104.683286 -63.224789 
L 104.506076 -63.056111 
L 104.328866 -62.88924 
L 104.151656 -62.72415 
L 103.974446 -62.560814 
L 103.797236 -62.399207 
L 103.620026 -62.239303 
L 103.442816 -62.081079 
L 103.265606 -61.924511 
L 103.088396 -61.769577 
L 102.911186 -61.616254 
L 102.733977 -61.464521 
L 102.556767 -61.314357 
L 102.379557 -61.165742 
L 102.202347 -61.018656 
L 102.025137 -60.87308 
L 101.847927 -60.728995 
L 101.670717 -60.586383 
L 101.493507 -60.445226 
L 101.316297 -60.305508 
L 101.139087 -60.16721 
L 100.961877 -60.030317 
L 100.784668 -59.894813 
L 100.607458 -59.760682 
L 100.430248 -59.627909 
L 100.253038 -59.496479 
L 100.075828 -59.366378 
L 99.898618 -59.237592 
L 99.721408 -59.110106 
L 99.544198 -58.983908 
L 99.366988 -58.858985 
L 99.189778 -58.735322 
L 99.012568 -58.612909 
L 98.835359 -58.491732 
L 98.658149 -58.37178 
L 98.480939 -58.253042 
L 98.303729 -58.135504 
L 98.126519 -58.019158 
L 97.949309 -57.903991 
L 97.772099 -57.789993 
L 97.594889 -57.677154 
L 97.417679 -57.565463 
L 97.240469 -57.45491 
L 97.063259 -57.345486 
L 96.88605 -57.237181 
L 96.70884 -57.129985 
L 96.53163 -57.02389 
L 96.35442 -56.918887 
L 96.17721 -56.814966 
L 96 -56.71212 
L 95.82279 -56.814966 
L 95.64558 -56.918887 
L 95.46837 -57.02389 
L 95.29116 -57.129985 
L 95.11395 -57.237181 
L 94.936741 -57.345486 
L 94.759531 -57.45491 
L 94.582321 -57.565463 
L 94.405111 -57.677154 
L 94.227901 -57.789993 
L 94.050691 -57.903991 
L 93.873481 -58.019158 
L 93.696271 -58.135504 
L 93.519061 -58.253042 
L 93.341851 -58.37178 
L 93.164641 -58.491732 
L 92.987432 -58.612909 
L 92.810222 -58.735322 
L 92.633012 -58.858985 
L 92.455802 -58.983908 
L 92.278592 -59.110106 
L 92.101382 -59.237592 
L 91.924172 -59.366378 
L 91.746962 -59.496479 
L 91.569752 -59.627909 
L 91.392542 -59.760682 
L 91.215332 -59.894813 
L 91.038123 -60.030317 
L 90.860913 -60.16721 
L 90.683703 -60.305508 
L 90.506493 -60.445226 
L 90.329283 -60.586383 
L 90.152073 -60.728995 
L 89.974863 -60.87308 
L 89.797653 -61.018656 
L 89.620443 -61.165742 
L 89.443233 -61.314357 
L 89.266023 -61.464521 
L 89.088814 -61.616254 
L 88.911604 -61.769577 
L 88.734394 -61.924511 
L 88.557184 -62.081079 
L 88.379974 -62.239303 
L 88.202764 -62.399207 
L 88.025554 -62.560814 
L 87.848344 -62.72415 
L 87.671134 -62.88924 
L 87.493924 -63.056111 
L 87.316714 -63.224789 
L 87.139505 -63.395303 
L 86.962295 -63.567682 
L 86.785085 -63.741955 
L 86.607875 -63.918154 
L 86.430665 -64.09631 
L 86.253455 -64.276457 
L 86.076245 -64.458627 
L 85.899035 -64.642858 
L 85.721825 -64.829185 
L 85.544615 -65.017646 
L 85.367405 -65.20828 
L 85.190196 -65.401129 
L 85.012986 -65.596233 
L 84.835776 -65.793637 
L 84.658566 -65.993386 
L 84.481356 -66.195527 
L 84.304146 -66.40011 
L 84.126936 -66.607184 
L 83.949726 -66.816805 
L 83.772516 -67.029025 
L 83.595306 -67.243904 
L 83.418096 -67.461501 
L 83.240887 -67.681879 
L 83.063677 -67.905103 
L 82.886467 -68.131242 
L 82.709257 -68.360367 
L 82.532047 -68.592553 
L 82.354837 -68.827878 
L 82.177627 -69.066426 
L 82.000417 -69.308281 
L 81.823207 -69.553536 
L 81.645997 -69.802285 
L 81.468788 -70.05463 
L 81.291578 -70.310675 
L 81.114368 -70.570532 
L 80.937158 -70.834321 
L 80.759948 -71.102166 
L 80.582738 -71.374198 
L 80.405528 -71.650559 
L 80.228318 -71.931397 
L 80.051108 -72.216872 
L 79.873898 -72.507152 
L 79.696688 -72.802417 
L 79.519479 -73.102861 
L 79.342269 -73.40869 
L 79.165059 -73.720126 
L 78.987849 -74.037407 
L 78.810639 -74.360791 
L 78.633429 -74.690555 
L 78.456219 -75.027 
L 78.279009 -75.370453 
L 78.101799 -75.72127 
L 77.924589 -76.079841 
L 77.747379 -76.446591 
L 77.57017 -76.82199 
L 77.39296 -77.206557 
L 77.21575 -77.600866 
L 77.03854 -78.005558 
L 76.86133 -78.421349 
L 76.68412 -78.849047 
L 76.50691 -79.289566 
L 76.3297 -79.743949 
L 76.15249 -80.213392 
L 75.97528 -80.699281 
L 75.79807 -81.203238 
L 75.620861 -81.727175 
L 75.443651 -82.27338 
L 75.266441 -82.844626 
L 75.089231 -83.444331 
L 74.912021 -84.076788 
L 74.734811 -84.74752 
L 74.557601 -85.463831 
L 74.380391 -86.23575 
L 74.203181 -87.077697 
L 74.025971 -88.011783 
L 73.848761 -89.075195 
L 73.671552 -90.340369 
L 73.494342 -91.994115 
L 73.317132 -96 
z
" id="mde4c2d5587" style="stroke:#6e3b87;stroke-width:3;"/>
    </defs>
    <g clip-path="url(#p78b657603f)">
     <use style="fill:#6e3b87;stroke:#6e3b87;stroke-width:3;" x="0" xlink:href="#mde4c2d5587" y="192"/>
    </g>
   </g>
  </g>
  <g id="axes_2">
   <g id="patch_5">
    <path d="M 195.00024 145.90231 
L 380.99976 145.90231 
L 380.99976 46.09769 
L 195.00024 46.09769 
z
" style="fill:none;"/>
   </g>
   <g id="patch_6">
    <path clip-path="url(#p87bdc09533)" d="M 288 141.365737 
C 300.031134 141.365737 311.571124 136.585716 320.07842 128.07842 
C 328.585716 119.571124 333.365737 108.031134 333.365737 96 
C 333.365737 83.968866 328.585716 72.428876 320.07842 63.92158 
C 311.571124 55.414284 300.031134 50.634263 288 50.634263 
C 275.968866 50.634263 264.428876 55.414284 255.92158 63.92158 
C 247.414284 72.428876 242.634263 83.968866 242.634263 96 
C 242.634263 108.031134 247.414284 119.571124 255.92158 128.07842 
C 264.428876 136.585716 275.968866 141.365737 288 141.365737 
z
" style="fill:none;stroke:#343837;stroke-linejoin:miter;stroke-width:2;"/>
   </g>
   <g id="matplotlib.axis_3"/>
   <g id="matplotlib.axis_4"/>
   <g id="PathCollection_1">
    <defs>
     <path d="M -3.872983 3.872983 
L 3.872983 3.872983 
L 3.872983 -3.872983 
L -3.872983 -3.872983 
z
" id="mda504bbb6f" style="stroke:#0271ae;stroke-width:0.5;"/>
    </defs>
    <g clip-path="url(#p87bdc09533)">
     <use style="fill:#0271ae;stroke:#0271ae;stroke-width:0.5;" x="333.365737" xlink:href="#mda504bbb6f" y="96"/>
     <use style="fill:#0271ae;stroke:#0271ae;stroke-width:0.5;" x="320.07842" xlink:href="#mda504bbb6f" y="63.92158"/>
     <use style="fill:#0271ae;stroke:#0271ae;stroke-width:0.5;" x="288" xlink:href="#mda504bbb6f" y="50.634263"/>
     <use style="fill:#0271ae;stroke:#0271ae;stroke-width:0.5;" x="255.92158" xlink:href="#mda504bbb6f" y="63.92158"/>
     <use style="fill:#0271ae;stroke:#0271ae;stroke-width:0.5;" x="242.634263" xlink:href="#mda504bbb6f" y="96"/>
     <use style="fill:#0271ae;stroke:#0271ae;stroke-width:0.5;" x="255.92158" xlink:href="#mda504bbb6f" y="128.07842"/>
     <use style="fill:#0271ae;stroke:#0271ae;stroke-width:0.5;" x="288" xlink:href="#mda504bbb6f" y="141.365737"/>
     <use style="fill:#0271ae;stroke:#0271ae;stroke-width:0.5;" x="320.07842" xlink:href="#mda504bbb6f" y="128.07842"/>
    </g>
   </g>
  </g>
  <g id="axes_3">
   <g id="patch_7">
    <path d="M 387.00024 188.221381 
L 572.99976 188.221381 
L 572.99976 3.778619 
L 387.00024 3.778619 
z
" style="fill:none;"/>
   </g>
   <g id="matplotlib.axis_5"/>
   <g id="matplotlib.axis_6"/>
   <g id="line2d_1">
    <path clip-path="url(#p974f4cc148)" d="M 387.00024 179.837619 
L 387.364945 161.201197 
L 388.094355 142.564774 
L 388.823765 131.663166 
L 389.553175 123.928352 
L 390.647289 115.36619 
L 391.741404 108.882144 
L 392.835519 103.661935 
L 394.294339 97.980536 
L 395.753159 93.292753 
L 397.211978 89.302233 
L 399.035503 85.025512 
L 400.859028 81.33663 
L 402.682552 78.093345 
L 404.870782 74.656331 
L 407.059012 71.609299 
L 409.611946 68.442505 
L 412.164881 65.609711 
L 415.08252 62.700208 
L 418.364865 59.764202 
L 421.647209 57.117476 
L 425.294259 54.453251 
L 429.306013 51.798599 
L 433.682472 49.173426 
L 438.423637 46.591911 
L 443.529506 44.063785 
L 449.00008 41.595386 
L 455.200064 39.047109 
L 461.764753 36.588748 
L 469.058852 34.09746 
L 477.08236 31.599856 
L 485.835279 29.116245 
L 495.317608 26.661722 
L 505.529346 24.247194 
L 516.835199 21.804851 
L 529.235167 19.358923 
L 542.72925 16.927947 
L 557.317448 14.525754 
L 572.99976 12.162381 
L 572.99976 12.162381 
" style="fill:none;stroke:#0271ae;stroke-linejoin:miter;stroke-width:3;"/>
   </g>
   <g id="line2d_2">
    <path clip-path="url(#p974f4cc148)" d="M 387.00024 147.382906 
L 387.364945 134.465123 
L 388.094355 121.547339 
L 388.823765 113.99092 
L 389.553175 108.629555 
L 390.647289 102.694717 
L 391.741404 98.200319 
L 392.835519 94.581945 
L 394.294339 90.6439 
L 395.753159 87.394577 
L 397.211978 84.628559 
L 399.035503 81.664162 
L 400.859028 79.107224 
L 403.047257 76.440336 
L 405.235487 74.107743 
L 407.788422 71.710775 
L 410.706061 69.30273 
L 413.988406 66.920374 
L 417.27075 64.808332 
L 420.9178 62.712145 
L 424.929554 60.649735 
L 429.670718 58.474412 
L 434.776587 56.384947 
L 440.611866 54.252747 
L 446.81185 52.226349 
L 453.741244 50.19516 
L 461.400048 48.181043 
L 470.152967 46.117767 
L 479.635295 44.113578 
L 490.211738 42.106236 
L 501.882296 40.116463 
L 515.011674 38.105798 
L 529.599872 36.099948 
L 546.011594 34.074703 
L 564.246841 32.055802 
L 572.99976 31.159288 
L 572.99976 31.159288 
" style="fill:none;stroke:#dc2830;stroke-linejoin:miter;stroke-width:3;"/>
   </g>
   <g id="line2d_3">
    <path clip-path="url(#p974f4cc148)" d="M 387.00024 105.91009 
L 387.364945 100.299968 
L 388.094355 94.689846 
L 388.823765 91.408135 
L 389.553175 89.079724 
L 390.647289 86.502256 
L 391.741404 84.550364 
L 393.200224 82.516301 
L 394.659044 80.892134 
L 396.482568 79.23459 
L 398.670798 77.610423 
L 400.859028 76.258338 
L 403.411962 74.922233 
L 406.694307 73.475956 
L 410.341356 72.123871 
L 414.717816 70.752652 
L 419.823685 69.400567 
L 425.658964 68.089637 
L 432.588358 66.766697 
L 440.611866 65.464176 
L 450.094195 64.154268 
L 461.400048 62.827268 
L 474.529426 61.517814 
L 489.847033 60.217562 
L 508.08228 58.900754 
L 529.235167 57.601189 
L 554.399808 56.28581 
L 572.99976 55.434814 
L 572.99976 55.434814 
" style="fill:none;stroke:#f2aa00;stroke-linejoin:miter;stroke-width:3;"/>
   </g>
  </g>
 </g>
 <defs>
  <clipPath id="p78b657603f">
   <rect height="181.462946" width="185.99952" x="3.00024" y="5.268527"/>
  </clipPath>
  <clipPath id="p87bdc09533">
   <rect height="99.80462" width="185.99952" x="195.00024" y="46.09769"/>
  </clipPath>
  <clipPath id="p974f4cc148">
   <rect height="184.442762" width="185.99952" x="387.00024" y="3.778619"/>
  </clipPath>
 </defs>
</svg>
