<?xml version="1.0" encoding="utf-8" standalone="no"?>
<!DOCTYPE svg PUBLIC "-//W3C//DTD SVG 1.1//EN"
  "http://www.w3.org/Graphics/SVG/1.1/DTD/svg11.dtd">
<svg height="144pt" version="1.1" viewBox="0 0 576 144" width="576pt" xmlns="http://www.w3.org/2000/svg" xmlns:xlink="http://www.w3.org/1999/xlink">
 <metadata>
  <rdf:RDF xmlns:cc="http://creativecommons.org/ns#" xmlns:dc="http://purl.org/dc/elements/1.1/" xmlns:rdf="http://www.w3.org/1999/02/22-rdf-syntax-ns#">
   <cc:Work>
    <dc:type rdf:resource="http://purl.org/dc/dcmitype/StillImage"/>
    <dc:date>2021-08-11T08:45:46.033831</dc:date>
    <dc:format>image/svg+xml</dc:format>
    <dc:creator>
     <cc:Agent>
      <dc:title>Matplotlib v3.4.2, https://matplotlib.org/</dc:title>
     </cc:Agent>
    </dc:creator>
   </cc:Work>
  </rdf:RDF>
 </metadata>
 <defs>
  <style type="text/css">*{stroke-linecap:butt;stroke-linejoin:round;}</style>
 </defs>
 <g id="figure_1">
  <g id="patch_1">
   <path d="M 0 144 
L 576 144 
L 576 0 
L 0 0 
z
" style="fill:none;"/>
  </g>
  <g id="axes_1">
   <g id="patch_2">
    <path d="M 219.00024 140.99976 
L 356.99976 140.99976 
L 356.99976 3.00024 
L 219.00024 3.00024 
z
" style="fill:none;"/>
   </g>
   <g id="line2d_1">
    <path clip-path="url(#pee61c4ccce)" d="M 288 140.99976 
L 288 3.00024 
" style="fill:none;stroke:#000000;stroke-linejoin:miter;"/>
   </g>
   <g id="line2d_2">
    <path clip-path="url(#pee61c4ccce)" d="M 219.00024 72 
L 356.99976 72 
" style="fill:none;stroke:#000000;stroke-linejoin:miter;"/>
   </g>
   <g id="patch_3">
    <path clip-path="url(#pee61c4ccce)" d="M 288 117.99984 
C 300.1993 117.99984 311.900591 113.153007 320.526799 104.526799 
C 329.153007 95.900591 333.99984 84.1993 333.99984 72 
C 333.99984 59.8007 329.153007 48.099409 320.526799 39.473201 
C 311.900591 30.846993 300.1993 26.00016 288 26.00016 
C 275.8007 26.00016 264.099409 30.846993 255.473201 39.473201 
C 246.846993 48.099409 242.00016 59.8007 242.00016 72 
C 242.00016 84.1993 246.846993 95.900591 255.473201 104.526799 
C 264.099409 113.153007 275.8007 117.99984 288 117.99984 
z
" style="fill:none;stroke:#000000;stroke-linejoin:miter;"/>
   </g>
   <g id="matplotlib.axis_1"/>
   <g id="matplotlib.axis_2"/>
   <g id="line2d_3">
    <path clip-path="url(#pee61c4ccce)" d="M 288 72 
L 289.0294 71.882961 
L 290.019178 71.534839 
L 290.88262 71.001854 
L 291.644806 70.282924 
L 292.276361 69.394679 
L 292.750418 68.357842 
L 293.04315 67.196869 
L 293.134252 65.939525 
L 293.00737 64.616406 
L 292.650454 63.2604 
L 292.05606 61.906107 
L 291.221559 60.589232 
L 290.21883 59.416389 
L 289.011427 58.338739 
L 287.609262 57.385654 
L 286.026081 56.585385 
L 284.279338 55.964586 
L 282.511814 55.567493 
L 280.638817 55.368077 
L 278.682546 55.382414 
L 276.667263 55.624098 
L 274.619016 56.103991 
L 272.701847 56.77384 
L 270.803235 57.662115 
L 268.947113 58.770335 
L 267.157785 60.097473 
L 265.459667 61.639904 
L 263.87701 63.39138 
L 262.433631 65.343035 
L 261.238272 67.324561 
L 260.200687 69.457723 
L 259.337712 71.729586 
L 258.66509 74.125471 
L 258.197303 76.629057 
L 257.947401 79.222488 
L 257.926855 81.886499 
L 258.145413 84.600562 
L 258.566241 87.131578 
L 259.202275 89.669076 
L 260.056743 92.194753 
L 261.131318 94.689869 
L 262.426075 97.135379 
L 263.93945 99.512063 
L 265.668221 101.800675 
L 267.607492 103.982076 
L 269.750694 106.037383 
L 272.089596 107.948113 
L 274.397109 109.557275 
L 276.852009 111.016551 
L 279.444414 112.3132 
L 282.163383 113.435141 
L 284.996956 114.371043 
L 287.932214 115.110407 
L 290.955332 115.643646 
L 294.051646 115.962155 
L 297.205723 116.058388 
L 300.40144 115.925919 
L 303.622063 115.559499 
L 306.850339 114.955117 
L 310.068582 114.110038 
L 313.25877 113.022849 
L 316.119235 111.824322 
L 318.927609 110.426579 
L 321.670046 108.831514 
L 324.332739 107.041984 
L 326.901984 105.061803 
L 329.364249 102.895749 
L 331.70624 100.549551 
L 333.914964 98.02988 
L 335.977804 95.344333 
L 337.882574 92.501412 
L 339.61759 89.510497 
L 341.171732 86.38182 
L 342.5345 83.126427 
L 343.696078 79.756142 
L 344.647388 76.283524 
L 345.380145 72.72182 
L 345.4998 72 
L 345.4998 72 
" style="fill:none;stroke:#0271ae;stroke-linejoin:miter;stroke-width:3;"/>
   </g>
  </g>
 </g>
 <defs>
  <clipPath id="pee61c4ccce">
   <rect height="137.99952" width="137.99952" x="219.00024" y="3.00024"/>
  </clipPath>
 </defs>
</svg>
