<?xml version="1.0" encoding="utf-8" standalone="no"?>
<!DOCTYPE svg PUBLIC "-//W3C//DTD SVG 1.1//EN"
  "http://www.w3.org/Graphics/SVG/1.1/DTD/svg11.dtd">
<svg height="144pt" version="1.1" viewBox="0 0 576 144" width="576pt" xmlns="http://www.w3.org/2000/svg" xmlns:xlink="http://www.w3.org/1999/xlink">
 <metadata>
  <rdf:RDF xmlns:cc="http://creativecommons.org/ns#" xmlns:dc="http://purl.org/dc/elements/1.1/" xmlns:rdf="http://www.w3.org/1999/02/22-rdf-syntax-ns#">
   <cc:Work>
    <dc:type rdf:resource="http://purl.org/dc/dcmitype/StillImage"/>
    <dc:date>2021-08-20T09:18:06.263354</dc:date>
    <dc:format>image/svg+xml</dc:format>
    <dc:creator>
     <cc:Agent>
      <dc:title>Matplotlib v3.4.2, https://matplotlib.org/</dc:title>
     </cc:Agent>
    </dc:creator>
   </cc:Work>
  </rdf:RDF>
 </metadata>
 <defs>
  <style type="text/css">*{stroke-linecap:butt;stroke-linejoin:round;}</style>
 </defs>
 <g id="figure_1">
  <g id="patch_1">
   <path d="M 0 144 
L 576 144 
L 576 0 
L 0 0 
z
" style="fill:none;"/>
  </g>
  <g id="axes_1">
   <g id="patch_2">
    <path d="M 3.00024 140.99976 
L 284.99976 140.99976 
L 284.99976 3.00024 
L 3.00024 3.00024 
z
" style="fill:none;"/>
   </g>
   <g id="line2d_1">
    <path clip-path="url(#p438683a477)" d="M 3.00024 134.753821 
L 284.99976 134.753821 
" style="fill:none;stroke:#343837;stroke-linejoin:miter;"/>
   </g>
   <g id="matplotlib.axis_1"/>
   <g id="matplotlib.axis_2"/>
   <g id="line2d_2">
    <path clip-path="url(#p438683a477)" d="M 3.00024 134.727055 
L 20.62521 134.727055 
L 20.62521 134.418027 
L 38.25018 134.418027 
L 38.25018 132.707107 
L 55.87515 132.707107 
L 55.87515 126.721152 
L 73.50012 126.721152 
L 73.50012 112.061684 
L 91.12509 112.061684 
L 91.12509 85.872513 
L 108.75006 85.872513 
L 108.75006 51.757217 
L 126.37503 51.757217 
L 126.37503 21.500934 
L 144 21.500934 
L 144 9.272945 
L 161.62497 9.272945 
L 161.62497 21.500934 
L 179.24994 21.500934 
L 179.24994 51.757217 
L 196.87491 51.757217 
L 196.87491 85.872513 
L 214.49988 85.872513 
L 214.49988 112.061684 
L 232.12485 112.061684 
L 232.12485 126.721152 
L 249.74982 126.721152 
L 249.74982 132.707107 
L 267.37479 132.707107 
L 267.37479 134.418027 
L 284.99976 134.418027 
L 284.99976 134.727055 
" style="fill:none;stroke:#dc2830;stroke-linejoin:miter;stroke-width:3;"/>
    <defs>
     <path d="M -2.5 2.5 
L 2.5 2.5 
L 2.5 -2.5 
L -2.5 -2.5 
z
" id="m1c842d39b1"/>
    </defs>
    <g clip-path="url(#p438683a477)">
     <use style="fill:#dc2830;" x="3.00024" xlink:href="#m1c842d39b1" y="134.727055"/>
     <use style="fill:#dc2830;" x="20.62521" xlink:href="#m1c842d39b1" y="134.418027"/>
     <use style="fill:#dc2830;" x="38.25018" xlink:href="#m1c842d39b1" y="132.707107"/>
     <use style="fill:#dc2830;" x="55.87515" xlink:href="#m1c842d39b1" y="126.721152"/>
     <use style="fill:#dc2830;" x="73.50012" xlink:href="#m1c842d39b1" y="112.061684"/>
     <use style="fill:#dc2830;" x="91.12509" xlink:href="#m1c842d39b1" y="85.872513"/>
     <use style="fill:#dc2830;" x="108.75006" xlink:href="#m1c842d39b1" y="51.757217"/>
     <use style="fill:#dc2830;" x="126.37503" xlink:href="#m1c842d39b1" y="21.500934"/>
     <use style="fill:#dc2830;" x="144" xlink:href="#m1c842d39b1" y="9.272945"/>
     <use style="fill:#dc2830;" x="161.62497" xlink:href="#m1c842d39b1" y="21.500934"/>
     <use style="fill:#dc2830;" x="179.24994" xlink:href="#m1c842d39b1" y="51.757217"/>
     <use style="fill:#dc2830;" x="196.87491" xlink:href="#m1c842d39b1" y="85.872513"/>
     <use style="fill:#dc2830;" x="214.49988" xlink:href="#m1c842d39b1" y="112.061684"/>
     <use style="fill:#dc2830;" x="232.12485" xlink:href="#m1c842d39b1" y="126.721152"/>
     <use style="fill:#dc2830;" x="249.74982" xlink:href="#m1c842d39b1" y="132.707107"/>
     <use style="fill:#dc2830;" x="267.37479" xlink:href="#m1c842d39b1" y="134.418027"/>
     <use style="fill:#dc2830;" x="284.99976" xlink:href="#m1c842d39b1" y="134.727055"/>
    </g>
   </g>
  </g>
  <g id="axes_2">
   <g id="patch_3">
    <path d="M 291.00024 140.99976 
L 572.99976 140.99976 
L 572.99976 3.00024 
L 291.00024 3.00024 
z
" style="fill:none;"/>
   </g>
   <g id="patch_4">
    <path clip-path="url(#p2263f058a2)" d="M 488.399904 140.99976 
L 488.399904 3.00024 
L 572.99976 3.00024 
L 572.99976 140.99976 
z
" style="fill:#6e3b87;opacity:0.1;stroke:#6e3b87;stroke-linejoin:miter;stroke-width:0.5;"/>
   </g>
   <g id="line2d_3">
    <path clip-path="url(#p2263f058a2)" d="M 488.399904 140.99976 
L 488.399904 3.00024 
" style="fill:none;stroke:#6e3b87;stroke-linejoin:miter;stroke-width:2;"/>
   </g>
   <g id="line2d_4">
    <path clip-path="url(#p2263f058a2)" d="M 291.00024 116.083874 
L 572.99976 116.083874 
" style="fill:none;stroke:#343837;stroke-linejoin:miter;"/>
   </g>
   <g id="matplotlib.axis_3"/>
   <g id="matplotlib.axis_4"/>
   <g id="line2d_5">
    <path clip-path="url(#p2263f058a2)" d="M 291.00024 9.272945 
L 299.812725 9.379887 
L 308.62521 9.701446 
L 317.437695 10.239842 
L 326.25018 10.998854 
L 335.062665 11.983942 
L 343.87515 13.202429 
L 352.136855 14.565105 
L 360.398559 16.150962 
L 368.660264 17.972031 
L 376.371188 19.896906 
L 384.082113 22.054199 
L 391.242257 24.281081 
L 398.402401 26.741181 
L 405.011765 29.237379 
L 411.621128 31.9709 
L 417.679712 34.706586 
L 423.738295 37.686952 
L 429.246098 40.63389 
L 434.753902 43.836283 
L 439.710924 46.966575 
L 444.667947 50.366888 
L 449.07419 53.651495 
L 453.480432 57.225074 
L 457.335894 60.631714 
L 461.191357 64.351404 
L 464.496038 67.840963 
L 467.80072 71.673267 
L 470.554622 75.19246 
L 473.308523 79.088218 
L 475.511645 82.552066 
L 477.714766 86.420041 
L 479.917887 90.829017 
L 481.570228 94.612379 
L 483.222569 98.919129 
L 486.527251 108.131704 
L 487.078031 109.064439 
L 487.628812 109.579286 
L 488.179592 109.709668 
L 488.730372 109.567558 
L 491.484274 108.127628 
L 492.585834 107.885601 
L 493.687395 107.879504 
L 494.788956 108.064167 
L 496.441297 108.575794 
L 499.195198 109.498646 
L 500.296759 109.695284 
L 501.398319 109.729486 
L 503.05066 109.49567 
L 505.804562 108.718269 
L 508.007683 108.164717 
L 509.660024 107.939477 
L 511.312365 107.928704 
L 512.964706 108.160685 
L 514.617047 108.662726 
L 516.269388 109.473692 
L 517.370948 110.217297 
L 518.472509 111.160434 
L 519.57407 112.358601 
L 520.67563 113.91314 
L 521.777191 116.040175 
L 522.327971 117.472357 
L 522.878752 119.357371 
L 523.429532 122.163643 
L 523.980312 128.206071 
L 524.531092 127.339618 
L 525.081873 122.586122 
L 525.632653 120.466325 
L 526.183433 119.187554 
L 526.734214 118.3413 
L 527.284994 117.768039 
L 527.835774 117.389919 
L 528.386555 117.164324 
L 528.937335 117.066747 
L 530.038896 117.207892 
L 531.140456 117.784035 
L 531.691237 118.253159 
L 532.242017 118.868935 
L 532.792797 119.669139 
L 533.343578 120.721419 
L 533.894358 122.159565 
L 534.445138 124.303952 
L 534.995918 128.322452 
L 535.546699 134.727055 
L 536.097479 126.250671 
L 536.648259 123.371273 
L 537.19904 121.637643 
L 537.74982 120.429639 
L 538.851381 118.845279 
L 539.952941 117.906903 
L 541.054502 117.386729 
L 542.156062 117.191563 
L 543.257623 117.286734 
L 544.359184 117.675806 
L 545.460744 118.403061 
L 546.562305 119.582269 
L 547.113085 120.417843 
L 547.663866 121.503917 
L 548.214646 122.98387 
L 548.765426 125.206414 
L 549.866987 133.839896 
L 550.417767 126.578413 
L 550.968547 123.812525 
L 551.519328 122.103473 
L 552.070108 120.890924 
L 553.171669 119.258172 
L 554.273229 118.240259 
L 555.37479 117.615747 
L 556.476351 117.290261 
L 557.577911 117.22287 
L 558.679472 117.403894 
L 559.781033 117.850528 
L 560.882593 118.615262 
L 561.984154 119.817343 
L 562.534934 120.660277 
L 563.085714 121.751832 
L 563.636495 123.23653 
L 564.187275 125.46617 
L 565.288836 133.938662 
L 565.839616 126.770606 
L 566.390396 124.009306 
L 566.941177 122.295461 
L 567.491957 121.074314 
L 568.593517 119.417594 
L 569.695078 118.368882 
L 570.796639 117.707324 
L 571.898199 117.338143 
L 572.44898 117.248722 
L 572.44898 117.248722 
" style="fill:none;stroke:#dc2830;stroke-linejoin:miter;stroke-width:3;"/>
   </g>
  </g>
 </g>
 <defs>
  <clipPath id="p438683a477">
   <rect height="137.99952" width="281.99952" x="3.00024" y="3.00024"/>
  </clipPath>
  <clipPath id="p2263f058a2">
   <rect height="137.99952" width="281.99952" x="291.00024" y="3.00024"/>
  </clipPath>
 </defs>
</svg>
