<?xml version="1.0" encoding="utf-8" standalone="no"?>
<!DOCTYPE svg PUBLIC "-//W3C//DTD SVG 1.1//EN"
  "http://www.w3.org/Graphics/SVG/1.1/DTD/svg11.dtd">
<svg xmlns:xlink="http://www.w3.org/1999/xlink" width="432.432432pt" height="144pt" viewBox="0 0 432.432432 144" xmlns="http://www.w3.org/2000/svg" version="1.1">
 <metadata>
  <rdf:RDF xmlns:dc="http://purl.org/dc/elements/1.1/" xmlns:cc="http://creativecommons.org/ns#" xmlns:rdf="http://www.w3.org/1999/02/22-rdf-syntax-ns#">
   <cc:Work>
    <dc:type rdf:resource="http://purl.org/dc/dcmitype/StillImage"/>
    <dc:date>2022-06-16T16:38:21.993011</dc:date>
    <dc:format>image/svg+xml</dc:format>
    <dc:creator>
     <cc:Agent>
      <dc:title>Matplotlib v3.5.2, https://matplotlib.org/</dc:title>
     </cc:Agent>
    </dc:creator>
   </cc:Work>
  </rdf:RDF>
 </metadata>
 <defs>
  <style type="text/css">*{stroke-linejoin: round; stroke-linecap: butt}</style>
 </defs>
 <g id="figure_1">
  <g id="patch_1">
   <path d="M 0 144 
L 432.432432 144 
L 432.432432 0 
L 0 0 
L 0 144 
z
" style="fill: none"/>
  </g>
  <g id="axes_1">
   <g id="patch_2">
    <path d="M 3.00024 140.99976 
L 213.215976 140.99976 
L 213.215976 3.00024 
L 3.00024 3.00024 
L 3.00024 140.99976 
z
" style="fill: none"/>
   </g>
   <g id="line2d_1">
    <path d="M 3.00024 134.753821 
L 213.215976 134.753821 
" clip-path="url(#p00162149f6)" style="fill: none; stroke: #343837; stroke-linecap: round"/>
   </g>
   <g id="matplotlib.axis_1"/>
   <g id="matplotlib.axis_2"/>
   <g id="line2d_2">
    <path d="M 3.00024 134.727055 
L 16.138724 134.727055 
L 16.138724 134.418027 
L 29.277207 134.418027 
L 29.277207 132.707107 
L 42.415691 132.707107 
L 42.415691 126.721152 
L 55.554174 126.721152 
L 55.554174 112.061684 
L 68.692658 112.061684 
L 68.692658 85.872513 
L 81.831141 85.872513 
L 81.831141 51.757217 
L 94.969625 51.757217 
L 94.969625 21.500934 
L 108.108108 21.500934 
L 108.108108 9.272945 
L 121.246592 9.272945 
L 121.246592 21.500934 
L 134.385075 21.500934 
L 134.385075 51.757217 
L 147.523559 51.757217 
L 147.523559 85.872513 
L 160.662042 85.872513 
L 160.662042 112.061684 
L 173.800526 112.061684 
L 173.800526 126.721152 
L 186.939009 126.721152 
L 186.939009 132.707107 
L 200.077493 132.707107 
L 200.077493 134.418027 
L 213.215976 134.418027 
L 213.215976 134.727055 
" clip-path="url(#p00162149f6)" style="fill: none; stroke: #dc2830; stroke-width: 2; stroke-linecap: round"/>
    <defs>
     <path id="mb9ad4ba0c3" d="M 0 3.5 
C 0.928211 3.5 1.81853 3.131218 2.474874 2.474874 
C 3.131218 1.81853 3.5 0.928211 3.5 0 
C 3.5 -0.928211 3.131218 -1.81853 2.474874 -2.474874 
C 1.81853 -3.131218 0.928211 -3.5 0 -3.5 
C -0.928211 -3.5 -1.81853 -3.131218 -2.474874 -2.474874 
C -3.131218 -1.81853 -3.5 -0.928211 -3.5 0 
C -3.5 0.928211 -3.131218 1.81853 -2.474874 2.474874 
C -1.81853 3.131218 -0.928211 3.5 0 3.5 
z
" style="stroke: #fefefa; stroke-width: 1.5"/>
    </defs>
    <g clip-path="url(#p00162149f6)">
     <use xlink:href="#mb9ad4ba0c3" x="3.00024" y="134.727055" style="fill: #dc2830; stroke: #fefefa; stroke-width: 1.5"/>
     <use xlink:href="#mb9ad4ba0c3" x="16.138724" y="134.418027" style="fill: #dc2830; stroke: #fefefa; stroke-width: 1.5"/>
     <use xlink:href="#mb9ad4ba0c3" x="29.277207" y="132.707107" style="fill: #dc2830; stroke: #fefefa; stroke-width: 1.5"/>
     <use xlink:href="#mb9ad4ba0c3" x="42.415691" y="126.721152" style="fill: #dc2830; stroke: #fefefa; stroke-width: 1.5"/>
     <use xlink:href="#mb9ad4ba0c3" x="55.554174" y="112.061684" style="fill: #dc2830; stroke: #fefefa; stroke-width: 1.5"/>
     <use xlink:href="#mb9ad4ba0c3" x="68.692658" y="85.872513" style="fill: #dc2830; stroke: #fefefa; stroke-width: 1.5"/>
     <use xlink:href="#mb9ad4ba0c3" x="81.831141" y="51.757217" style="fill: #dc2830; stroke: #fefefa; stroke-width: 1.5"/>
     <use xlink:href="#mb9ad4ba0c3" x="94.969625" y="21.500934" style="fill: #dc2830; stroke: #fefefa; stroke-width: 1.5"/>
     <use xlink:href="#mb9ad4ba0c3" x="108.108108" y="9.272945" style="fill: #dc2830; stroke: #fefefa; stroke-width: 1.5"/>
     <use xlink:href="#mb9ad4ba0c3" x="121.246592" y="21.500934" style="fill: #dc2830; stroke: #fefefa; stroke-width: 1.5"/>
     <use xlink:href="#mb9ad4ba0c3" x="134.385075" y="51.757217" style="fill: #dc2830; stroke: #fefefa; stroke-width: 1.5"/>
     <use xlink:href="#mb9ad4ba0c3" x="147.523559" y="85.872513" style="fill: #dc2830; stroke: #fefefa; stroke-width: 1.5"/>
     <use xlink:href="#mb9ad4ba0c3" x="160.662042" y="112.061684" style="fill: #dc2830; stroke: #fefefa; stroke-width: 1.5"/>
     <use xlink:href="#mb9ad4ba0c3" x="173.800526" y="126.721152" style="fill: #dc2830; stroke: #fefefa; stroke-width: 1.5"/>
     <use xlink:href="#mb9ad4ba0c3" x="186.939009" y="132.707107" style="fill: #dc2830; stroke: #fefefa; stroke-width: 1.5"/>
     <use xlink:href="#mb9ad4ba0c3" x="200.077493" y="134.418027" style="fill: #dc2830; stroke: #fefefa; stroke-width: 1.5"/>
     <use xlink:href="#mb9ad4ba0c3" x="213.215976" y="134.727055" style="fill: #dc2830; stroke: #fefefa; stroke-width: 1.5"/>
    </g>
   </g>
  </g>
  <g id="axes_2">
   <g id="patch_3">
    <path d="M 219.216456 140.99976 
L 429.432192 140.99976 
L 429.432192 3.00024 
L 219.216456 3.00024 
L 219.216456 140.99976 
z
" style="fill: none"/>
   </g>
   <g id="line2d_3">
    <path d="M 366.367472 140.99976 
L 366.367472 3.00024 
" clip-path="url(#pe92a0d8cff)" style="fill: none; stroke: #6e3b87; stroke-width: 2; stroke-linecap: round"/>
   </g>
   <g id="line2d_4">
    <path d="M 219.216456 116.083874 
L 429.432192 116.083874 
" clip-path="url(#pe92a0d8cff)" style="fill: none; stroke: #343837; stroke-linecap: round"/>
   </g>
   <g id="patch_4">
    <path d="M 366.367472 140.99976 
L 366.367472 3.00024 
L 429.432192 3.00024 
L 429.432192 140.99976 
z
" clip-path="url(#pe92a0d8cff)" style="fill: #6e3b87; opacity: 0.1; stroke: #6e3b87; stroke-width: 0.5; stroke-linejoin: miter"/>
   </g>
   <g id="matplotlib.axis_3"/>
   <g id="matplotlib.axis_4"/>
   <g id="line2d_5">
    <path d="M 219.216456 9.272945 
L 225.785698 9.379887 
L 232.35494 9.701446 
L 238.924181 10.239842 
L 245.493423 10.998854 
L 252.062665 11.983942 
L 258.631907 13.202429 
L 264.790571 14.565105 
L 270.949235 16.150962 
L 277.107899 17.972031 
L 282.855986 19.896906 
L 288.604072 22.054199 
L 294.352159 24.461794 
L 299.689668 26.94066 
L 305.027177 29.675869 
L 309.954108 32.451251 
L 314.881039 35.494005 
L 319.397393 38.546028 
L 323.913747 41.882367 
L 328.019523 45.196553 
L 331.714721 48.442145 
L 335.40992 51.975891 
L 338.694541 55.399128 
L 341.979162 59.136666 
L 344.853205 62.715009 
L 347.727248 66.643202 
L 350.190714 70.352932 
L 352.654179 74.461388 
L 354.707067 78.274121 
L 356.759955 82.552066 
L 358.402266 86.420041 
L 360.044576 90.829017 
L 361.686887 95.98538 
L 363.329197 102.089896 
L 364.56093 106.849243 
L 365.382085 109.064439 
L 365.792663 109.579286 
L 366.203241 109.709668 
L 366.613818 109.567558 
L 369.077284 107.974991 
L 369.898439 107.855558 
L 370.719594 107.951272 
L 371.951327 108.384283 
L 374.82537 109.61605 
L 375.646526 109.733289 
L 376.467681 109.68572 
L 377.699414 109.361403 
L 381.394612 108.068 
L 382.626345 107.910499 
L 383.858078 107.977809 
L 385.089811 108.296471 
L 386.321543 108.896198 
L 387.553276 109.823005 
L 388.374431 110.661149 
L 389.195587 111.722826 
L 390.016742 113.081935 
L 390.837897 114.882807 
L 391.659052 117.472357 
L 392.06963 119.357371 
L 392.480208 122.163643 
L 392.890785 128.206071 
L 393.301363 127.339618 
L 393.71194 122.586122 
L 394.122518 120.466325 
L 394.533096 119.187554 
L 394.943673 118.3413 
L 395.354251 117.768039 
L 395.764828 117.389919 
L 396.175406 117.164324 
L 396.585984 117.066747 
L 397.407139 117.207892 
L 398.228294 117.784035 
L 399.049449 118.868935 
L 399.460027 119.669139 
L 399.870605 120.721419 
L 400.281182 122.159565 
L 400.69176 124.303952 
L 401.102337 128.322452 
L 401.512915 134.727055 
L 401.923493 126.250671 
L 402.33407 123.371273 
L 402.744648 121.637643 
L 403.565803 119.532212 
L 404.386958 118.314375 
L 405.208113 117.602191 
L 406.029269 117.251684 
L 406.850424 117.203467 
L 407.671579 117.442882 
L 408.492734 117.992299 
L 409.31389 118.924523 
L 410.135045 120.417843 
L 410.545622 121.503917 
L 410.9562 122.98387 
L 411.366778 125.206414 
L 412.187933 133.839896 
L 412.59851 126.578413 
L 413.009088 123.812525 
L 413.419666 122.103473 
L 414.240821 119.974147 
L 415.061976 118.690745 
L 415.883131 117.886437 
L 416.704287 117.419059 
L 417.525442 117.22553 
L 418.346597 117.281915 
L 419.167752 117.591761 
L 419.988907 118.187885 
L 420.810063 119.149703 
L 421.631218 120.660277 
L 422.041795 121.751832 
L 422.452373 123.23653 
L 422.862951 125.46617 
L 423.684106 133.938662 
L 424.094684 126.770606 
L 424.505261 124.009306 
L 424.915839 122.295461 
L 425.736994 120.146506 
L 426.558149 118.835551 
L 427.379304 117.99732 
L 428.20046 117.489669 
L 429.021615 117.248722 
L 429.021615 117.248722 
" clip-path="url(#pe92a0d8cff)" style="fill: none; stroke: #dc2830; stroke-width: 2; stroke-linecap: round"/>
   </g>
  </g>
 </g>
 <defs>
  <clipPath id="p00162149f6">
   <rect x="3.00024" y="3.00024" width="210.215736" height="137.99952"/>
  </clipPath>
  <clipPath id="pe92a0d8cff">
   <rect x="219.216456" y="3.00024" width="210.215736" height="137.99952"/>
  </clipPath>
 </defs>
</svg>
