<?xml version="1.0" encoding="utf-8" standalone="no"?>
<!DOCTYPE svg PUBLIC "-//W3C//DTD SVG 1.1//EN"
  "http://www.w3.org/Graphics/SVG/1.1/DTD/svg11.dtd">
<svg height="144pt" version="1.1" viewBox="0 0 720 144" width="720pt" xmlns="http://www.w3.org/2000/svg" xmlns:xlink="http://www.w3.org/1999/xlink">
 <metadata>
  <rdf:RDF xmlns:cc="http://creativecommons.org/ns#" xmlns:dc="http://purl.org/dc/elements/1.1/" xmlns:rdf="http://www.w3.org/1999/02/22-rdf-syntax-ns#">
   <cc:Work>
    <dc:type rdf:resource="http://purl.org/dc/dcmitype/StillImage"/>
    <dc:date>2021-08-20T09:18:06.362716</dc:date>
    <dc:format>image/svg+xml</dc:format>
    <dc:creator>
     <cc:Agent>
      <dc:title>Matplotlib v3.4.2, https://matplotlib.org/</dc:title>
     </cc:Agent>
    </dc:creator>
   </cc:Work>
  </rdf:RDF>
 </metadata>
 <defs>
  <style type="text/css">*{stroke-linecap:butt;stroke-linejoin:round;}</style>
 </defs>
 <g id="figure_1">
  <g id="patch_1">
   <path d="M 0 144 
L 720 144 
L 720 0 
L 0 0 
z
" style="fill:none;"/>
  </g>
  <g id="axes_1">
   <g id="patch_2">
    <path d="M 3.00024 140.99976 
L 716.99976 140.99976 
L 716.99976 3.00024 
L 3.00024 3.00024 
z
" style="fill:none;"/>
   </g>
   <g id="matplotlib.axis_1"/>
   <g id="matplotlib.axis_2"/>
   <g id="line2d_1">
    <path clip-path="url(#p4155411c2e)" d="M 3.00024 108.323615 
L 74.758986 108.323615 
L 74.758986 9.272945 
L 78.346923 9.272945 
L 78.346923 108.323615 
L 716.99976 108.323615 
L 716.99976 108.323615 
" style="fill:none;stroke:#0271ae;stroke-linejoin:miter;stroke-width:3;"/>
   </g>
   <g id="line2d_2">
    <path clip-path="url(#p4155411c2e)" d="M 3.00024 108.323615 
L 132.165982 108.270006 
L 132.165982 108.195489 
L 135.75392 108.195489 
L 135.75392 108.037459 
L 139.341857 108.037459 
L 139.341857 107.724444 
L 142.929794 107.724444 
L 142.929794 107.14416 
L 146.517731 107.14416 
L 146.517731 106.135873 
L 150.105669 106.135873 
L 150.105669 104.492694 
L 153.693606 104.492694 
L 153.693606 101.981736 
L 157.281543 101.981736 
L 157.281543 98.388937 
L 160.869481 98.388937 
L 160.869481 93.590269 
L 164.457418 93.590269 
L 164.457418 87.641658 
L 168.045355 87.641658 
L 168.045355 80.867829 
L 171.633292 80.867829 
L 171.633292 73.919331 
L 175.22123 73.919331 
L 175.22123 67.762507 
L 178.809167 67.762507 
L 178.809167 63.57436 
L 182.397104 63.57436 
L 182.397104 62.535435 
L 185.985042 62.535435 
L 185.985042 65.546285 
L 189.572979 65.546285 
L 189.572979 72.928355 
L 193.160916 72.928355 
L 193.160916 84.195574 
L 196.748853 84.195574 
L 196.748853 97.9856 
L 200.336791 97.9856 
L 200.336791 112.212055 
L 203.924728 112.212055 
L 203.924728 124.442992 
L 207.512665 124.442992 
L 207.512665 132.439822 
L 211.100603 132.439822 
L 211.100603 134.727055 
L 214.68854 134.727055 
L 214.68854 131.030551 
L 218.276477 131.030551 
L 218.276477 122.437701 
L 221.864414 122.437701 
L 221.864414 111.199547 
L 225.452352 111.199547 
L 225.452352 100.196767 
L 229.040289 100.196767 
L 229.040289 92.198404 
L 232.628226 92.198404 
L 232.628226 89.118378 
L 236.216164 89.118378 
L 236.216164 91.491069 
L 239.804101 91.491069 
L 239.804101 98.332895 
L 243.392038 98.332895 
L 243.392038 107.444516 
L 246.979975 107.444516 
L 246.979975 116.072085 
L 250.567913 116.072085 
L 250.567913 121.730197 
L 254.15585 121.730197 
L 254.15585 122.933622 
L 257.743787 122.933622 
L 257.743787 119.610463 
L 261.331725 119.610463 
L 261.331725 113.069799 
L 264.919662 113.069799 
L 264.919662 105.540106 
L 268.507599 105.540106 
L 268.507599 99.433272 
L 272.095536 99.433272 
L 272.095536 96.576269 
L 275.683474 96.576269 
L 275.683474 97.659004 
L 279.271411 97.659004 
L 279.271411 102.070721 
L 282.859348 102.070721 
L 282.859348 108.164982 
L 286.447286 108.164982 
L 286.447286 113.850308 
L 290.035223 113.850308 
L 290.035223 117.298673 
L 293.62316 117.298673 
L 293.62316 117.532029 
L 297.211097 117.532029 
L 297.211097 114.696996 
L 300.799035 114.696996 
L 300.799035 109.950323 
L 304.386972 109.950323 
L 304.386972 105.012381 
L 307.974909 105.012381 
L 307.974909 101.555746 
L 311.562847 101.555746 
L 311.562847 100.644229 
L 315.150784 100.644229 
L 315.150784 102.410162 
L 318.738721 102.410162 
L 318.738721 106.067084 
L 322.326658 106.067084 
L 322.326658 110.235135 
L 325.914596 110.235135 
L 325.914596 113.450242 
L 329.502533 113.450242 
L 329.502533 114.671779 
L 333.09047 114.671779 
L 333.09047 113.613938 
L 336.678408 113.613938 
L 336.678408 110.796591 
L 340.266345 110.796591 
L 340.266345 107.314471 
L 343.854282 107.314471 
L 343.854282 104.421286 
L 347.442219 104.421286 
L 347.442219 103.084243 
L 351.030157 103.084243 
L 351.030157 103.665753 
L 354.618094 103.665753 
L 354.618094 105.835605 
L 358.206031 105.835605 
L 358.206031 108.730313 
L 361.793969 108.730313 
L 361.793969 111.288894 
L 365.381906 111.288894 
L 365.381906 112.636802 
L 368.969843 112.636802 
L 368.969843 112.38051 
L 372.557781 112.38051 
L 372.557781 110.71492 
L 376.145718 110.71492 
L 376.145718 108.317429 
L 379.733655 108.317429 
L 379.733655 106.079087 
L 383.321592 106.079087 
L 383.321592 104.777538 
L 390.497467 104.810489 
L 390.497467 106.079834 
L 394.085404 106.079834 
L 394.085404 108.057866 
L 397.673342 108.057866 
L 397.673342 110.000825 
L 401.261279 110.000825 
L 401.261279 111.225157 
L 404.849216 111.225157 
L 404.849216 111.345014 
L 408.437153 111.345014 
L 408.437153 110.389516 
L 412.025091 110.389516 
L 412.025091 108.765916 
L 415.613028 108.765916 
L 415.613028 107.091438 
L 419.200965 107.091438 
L 419.200965 105.961554 
L 422.788903 105.961554 
L 422.788903 105.740733 
L 426.37684 105.740733 
L 426.37684 106.448286 
L 429.964777 106.448286 
L 429.964777 107.773692 
L 433.552714 107.773692 
L 433.552714 109.207723 
L 437.140652 109.207723 
L 437.140652 110.235562 
L 440.728589 110.235562 
L 440.728589 110.519527 
L 444.316526 110.519527 
L 444.316526 110.007302 
L 447.904464 110.007302 
L 447.904464 108.932093 
L 451.492401 108.932093 
L 451.492401 107.711539 
L 455.080338 107.711539 
L 455.080338 106.787749 
L 458.668275 106.787749 
L 458.668275 106.468941 
L 462.256213 106.468941 
L 462.256213 106.828785 
L 465.84415 106.828785 
L 465.84415 107.695434 
L 469.432087 107.695434 
L 469.432087 108.728387 
L 473.020025 108.728387 
L 473.020025 109.550235 
L 476.607962 109.550235 
L 476.607962 109.883003 
L 480.195899 109.883003 
L 480.195899 109.640384 
L 483.783836 109.640384 
L 483.783836 108.94596 
L 487.371774 108.94596 
L 487.371774 108.075718 
L 490.959711 108.075718 
L 490.959711 107.350158 
L 494.547648 107.350158 
L 494.547648 107.017579 
L 498.135586 107.017579 
L 498.135586 107.170559 
L 501.723523 107.170559 
L 501.723523 107.72317 
L 505.31146 107.72317 
L 505.31146 108.453082 
L 508.899397 108.453082 
L 508.899397 109.089411 
L 512.487335 109.089411 
L 512.487335 109.412124 
L 519.663209 109.326935 
L 519.663209 108.890654 
L 523.251147 108.890654 
L 523.251147 108.281188 
L 526.839084 108.281188 
L 526.839084 107.726449 
L 530.427021 107.726449 
L 530.427021 107.42009 
L 537.602896 107.454887 
L 537.602896 107.796305 
L 541.190833 107.796305 
L 541.190833 108.30304 
L 544.77877 108.30304 
L 544.77877 108.784191 
L 548.366708 108.784191 
L 548.366708 109.070354 
L 555.542582 109.072466 
L 555.542582 108.808253 
L 559.130519 108.808253 
L 559.130519 108.388997 
L 562.718457 108.388997 
L 562.718457 107.973882 
L 566.306394 107.973882 
L 566.306394 107.710272 
L 573.482269 107.68207 
L 573.482269 107.883998 
L 577.070206 107.883998 
L 577.070206 108.229262 
L 580.658143 108.229262 
L 580.658143 108.585721 
L 584.24608 108.585721 
L 584.24608 108.825833 
L 595.009892 108.719669 
L 595.009892 108.436602 
L 598.59783 108.436602 
L 598.59783 108.131723 
L 602.185767 108.131723 
L 602.185767 107.914904 
L 612.949579 107.96975 
L 612.949579 108.20055 
L 616.537516 108.20055 
L 616.537516 108.460156 
L 620.125453 108.460156 
L 620.125453 108.65434 
L 630.889265 108.63764 
L 630.889265 108.450537 
L 634.477202 108.450537 
L 634.477202 108.23044 
L 638.06514 108.23044 
L 638.06514 108.057805 
L 648.828952 108.046895 
L 648.828952 108.197687 
L 652.416889 108.197687 
L 652.416889 108.383551 
L 656.004826 108.383551 
L 656.004826 108.536074 
L 670.356575 108.445673 
L 670.356575 108.289331 
L 673.944513 108.289331 
L 673.944513 108.155318 
L 688.296262 108.20778 
L 688.296262 108.338736 
L 691.884199 108.338736 
L 691.884199 108.455858 
L 706.235948 108.431987 
L 706.235948 108.322752 
L 713.411823 108.220882 
L 713.411823 108.16214 
L 716.99976 108.16214 
L 716.99976 108.164636 
" style="fill:none;stroke:#6e3b87;stroke-linejoin:miter;stroke-width:3;"/>
   </g>
  </g>
 </g>
 <defs>
  <clipPath id="p4155411c2e">
   <rect height="137.99952" width="713.99952" x="3.00024" y="3.00024"/>
  </clipPath>
 </defs>
</svg>
