<?xml version="1.0" encoding="utf-8" standalone="no"?>
<!DOCTYPE svg PUBLIC "-//W3C//DTD SVG 1.1//EN"
  "http://www.w3.org/Graphics/SVG/1.1/DTD/svg11.dtd">
<svg xmlns:xlink="http://www.w3.org/1999/xlink" width="432pt" height="172.8pt" viewBox="0 0 432 172.8" xmlns="http://www.w3.org/2000/svg" version="1.1">
 <metadata>
  <rdf:RDF xmlns:dc="http://purl.org/dc/elements/1.1/" xmlns:cc="http://creativecommons.org/ns#" xmlns:rdf="http://www.w3.org/1999/02/22-rdf-syntax-ns#">
   <cc:Work>
    <dc:type rdf:resource="http://purl.org/dc/dcmitype/StillImage"/>
    <dc:date>2022-06-16T16:29:50.876793</dc:date>
    <dc:format>image/svg+xml</dc:format>
    <dc:creator>
     <cc:Agent>
      <dc:title>Matplotlib v3.5.2, https://matplotlib.org/</dc:title>
     </cc:Agent>
    </dc:creator>
   </cc:Work>
  </rdf:RDF>
 </metadata>
 <defs>
  <style type="text/css">*{stroke-linejoin: round; stroke-linecap: butt}</style>
 </defs>
 <g id="figure_1">
  <g id="patch_1">
   <path d="M 0 172.8 
L 432 172.8 
L 432 0 
L 0 0 
L 0 172.8 
z
" style="fill: none"/>
  </g>
  <g id="axes_1">
   <g id="patch_2">
    <path d="M 3.00024 169.79976 
L 428.99976 169.79976 
L 428.99976 3.00024 
L 3.00024 3.00024 
L 3.00024 169.79976 
z
" style="fill: none"/>
   </g>
   <g id="matplotlib.axis_1"/>
   <g id="matplotlib.axis_2"/>
   <g id="line2d_1">
    <path d="M 3.00024 130.304222 
L 45.814262 130.304222 
L 45.814262 10.582036 
L 47.954963 10.582036 
L 47.954963 130.304222 
L 428.99976 130.304222 
L 428.99976 130.304222 
" clip-path="url(#pc2bef405c8)" style="fill: none; stroke: #0271ae; stroke-width: 2; stroke-linecap: round"/>
   </g>
   <g id="line2d_2">
    <path d="M 3.00024 130.304222 
L 80.06548 130.239425 
L 80.06548 130.149357 
L 82.206181 130.149357 
L 82.206181 129.958346 
L 84.346882 129.958346 
L 84.346882 129.580007 
L 86.487583 129.580007 
L 86.487583 128.878619 
L 88.628284 128.878619 
L 88.628284 127.659906 
L 90.768985 127.659906 
L 90.768985 125.673802 
L 92.909686 125.673802 
L 92.909686 122.638816 
L 95.050388 122.638816 
L 95.050388 118.296212 
L 97.191089 118.296212 
L 97.191089 112.49608 
L 99.33179 112.49608 
L 99.33179 105.306015 
L 101.472491 105.306015 
L 101.472491 97.118513 
L 103.613192 97.118513 
L 103.613192 88.719889 
L 105.753893 88.719889 
L 105.753893 81.278158 
L 107.894594 81.278158 
L 107.894594 76.215959 
L 110.035295 76.215959 
L 110.035295 74.960215 
L 112.175996 74.960215 
L 112.175996 78.599418 
L 114.316697 78.599418 
L 114.316697 87.522099 
L 116.457399 87.522099 
L 116.457399 101.140746 
L 118.5981 101.140746 
L 118.5981 117.8087 
L 120.738801 117.8087 
L 120.738801 135.004166 
L 122.879502 135.004166 
L 122.879502 149.787655 
L 125.020203 149.787655 
L 125.020203 159.453393 
L 127.160904 159.453393 
L 127.160904 162.217964 
L 129.301605 162.217964 
L 129.301605 157.750013 
L 131.442306 157.750013 
L 131.442306 147.363866 
L 133.583007 147.363866 
L 133.583007 133.780351 
L 135.723709 133.780351 
L 135.723709 120.48133 
L 137.86441 120.48133 
L 137.86441 110.813738 
L 140.005111 110.813738 
L 140.005111 107.090922 
L 142.145812 107.090922 
L 142.145812 109.958784 
L 144.286513 109.958784 
L 144.286513 118.228474 
L 146.427214 118.228474 
L 146.427214 129.241658 
L 148.567915 129.241658 
L 148.567915 139.66977 
L 150.708616 139.66977 
L 150.708616 146.508709 
L 152.849317 146.508709 
L 152.849317 147.963285 
L 154.990018 147.963285 
L 154.990018 143.946594 
L 157.13072 143.946594 
L 157.13072 136.040917 
L 159.271421 136.040917 
L 159.271421 126.939804 
L 161.412122 126.939804 
L 161.412122 119.558497 
L 163.552823 119.558497 
L 163.552823 116.105248 
L 165.693524 116.105248 
L 165.693524 117.413945 
L 167.834225 117.413945 
L 167.834225 122.746372 
L 169.974926 122.746372 
L 169.974926 130.112482 
L 172.115627 130.112482 
L 172.115627 136.984315 
L 174.256328 136.984315 
L 174.256328 141.152342 
L 176.39703 141.152342 
L 176.39703 141.434399 
L 178.537731 141.434399 
L 178.537731 138.007704 
L 180.678432 138.007704 
L 180.678432 132.270418 
L 182.819133 132.270418 
L 182.819133 126.301945 
L 184.959834 126.301945 
L 184.959834 122.123924 
L 187.100535 122.123924 
L 187.100535 121.022176 
L 189.241236 121.022176 
L 189.241236 123.156652 
L 191.381937 123.156652 
L 191.381937 127.576761 
L 193.522638 127.576761 
L 193.522638 132.61467 
L 195.663339 132.61467 
L 195.663339 136.500757 
L 197.804041 136.500757 
L 197.804041 137.977225 
L 199.944742 137.977225 
L 199.944742 136.698616 
L 202.085443 136.698616 
L 202.085443 133.293299 
L 204.226144 133.293299 
L 204.226144 129.084473 
L 206.366845 129.084473 
L 206.366845 125.587491 
L 208.507546 125.587491 
L 208.507546 123.971412 
L 210.648247 123.971412 
L 210.648247 124.674281 
L 212.788948 124.674281 
L 212.788948 127.296974 
L 214.929649 127.296974 
L 214.929649 130.795796 
L 217.070351 130.795796 
L 217.070351 133.888344 
L 219.211052 133.888344 
L 219.211052 135.517555 
L 221.351753 135.517555 
L 221.351753 135.207776 
L 223.492454 135.207776 
L 223.492454 133.194584 
L 225.633155 133.194584 
L 225.633155 130.296744 
L 227.773856 130.296744 
L 227.773856 127.591268 
L 229.914557 127.591268 
L 229.914557 126.018091 
L 234.195959 126.057919 
L 234.195959 127.592172 
L 236.336661 127.592172 
L 236.336661 129.983013 
L 238.477362 129.983013 
L 238.477362 132.331459 
L 240.618063 132.331459 
L 240.618063 133.811305 
L 242.758764 133.811305 
L 242.758764 133.956176 
L 244.899465 133.956176 
L 244.899465 132.801269 
L 247.040166 132.801269 
L 247.040166 130.83883 
L 249.180867 130.83883 
L 249.180867 128.814894 
L 251.321568 128.814894 
L 251.321568 127.449207 
L 253.462269 127.449207 
L 253.462269 127.182301 
L 255.60297 127.182301 
L 255.60297 128.037519 
L 257.743672 128.037519 
L 257.743672 129.639532 
L 259.884373 129.639532 
L 259.884373 131.37284 
L 262.025074 131.37284 
L 262.025074 132.615186 
L 264.165775 132.615186 
L 264.165775 132.958412 
L 266.306476 132.958412 
L 266.306476 132.339289 
L 268.447177 132.339289 
L 268.447177 131.039687 
L 270.587878 131.039687 
L 270.587878 129.564408 
L 272.728579 129.564408 
L 272.728579 128.447826 
L 274.86928 128.447826 
L 274.86928 128.062485 
L 277.009982 128.062485 
L 277.009982 128.497426 
L 279.150683 128.497426 
L 279.150683 129.544942 
L 281.291384 129.544942 
L 281.291384 130.793469 
L 283.432085 130.793469 
L 283.432085 131.786833 
L 285.572786 131.786833 
L 285.572786 132.189049 
L 287.713487 132.189049 
L 287.713487 131.895796 
L 289.854188 131.895796 
L 289.854188 131.056448 
L 291.994889 131.056448 
L 291.994889 130.004589 
L 294.13559 130.004589 
L 294.13559 129.127608 
L 296.276291 129.127608 
L 296.276291 128.725621 
L 298.416993 128.725621 
L 298.416993 128.910527 
L 300.557694 128.910527 
L 300.557694 129.578466 
L 302.698395 129.578466 
L 302.698395 130.460708 
L 304.839096 130.460708 
L 304.839096 131.229837 
L 306.979797 131.229837 
L 306.979797 131.619899 
L 311.261199 131.516932 
L 311.261199 130.9896 
L 313.4019 130.9896 
L 313.4019 130.25294 
L 315.542601 130.25294 
L 315.542601 129.582429 
L 317.683303 129.582429 
L 317.683303 129.212134 
L 321.964705 129.254193 
L 321.964705 129.666864 
L 324.105406 129.666864 
L 324.105406 130.279353 
L 326.246107 130.279353 
L 326.246107 130.860918 
L 328.386808 130.860918 
L 328.386808 131.206803 
L 332.66821 131.209355 
L 332.66821 130.890003 
L 334.808911 130.890003 
L 334.808911 130.383249 
L 336.949612 130.383249 
L 336.949612 129.8815 
L 339.090314 129.8815 
L 339.090314 129.562876 
L 343.371716 129.528789 
L 343.371716 129.772858 
L 345.512417 129.772858 
L 345.512417 130.190178 
L 347.653118 130.190178 
L 347.653118 130.621029 
L 349.793819 130.621029 
L 349.793819 130.911251 
L 354.075221 130.966719 
L 354.075221 130.782931 
L 356.215922 130.782931 
L 356.215922 130.440789 
L 358.356624 130.440789 
L 358.356624 130.072282 
L 360.497325 130.072282 
L 360.497325 129.810214 
L 366.919428 129.876506 
L 366.919428 130.155473 
L 369.060129 130.155473 
L 369.060129 130.469258 
L 371.20083 130.469258 
L 371.20083 130.703968 
L 377.622933 130.683783 
L 377.622933 130.457632 
L 379.763635 130.457632 
L 379.763635 130.191601 
L 381.904336 130.191601 
L 381.904336 129.982938 
L 388.326439 129.969752 
L 388.326439 130.152013 
L 390.46714 130.152013 
L 390.46714 130.376666 
L 392.607841 130.376666 
L 392.607841 130.56102 
L 401.170646 130.451754 
L 401.170646 130.262783 
L 403.311347 130.262783 
L 403.311347 130.100801 
L 411.874151 130.164213 
L 411.874151 130.322498 
L 414.014852 130.322498 
L 414.014852 130.464064 
L 422.577657 130.43521 
L 422.577657 130.303179 
L 424.718358 130.303179 
L 424.718358 130.180049 
L 428.99976 130.109048 
L 428.99976 130.112065 
" clip-path="url(#pc2bef405c8)" style="fill: none; stroke: #6e3b87; stroke-width: 2; stroke-linecap: round"/>
   </g>
  </g>
 </g>
 <defs>
  <clipPath id="pc2bef405c8">
   <rect x="3.00024" y="3.00024" width="425.99952" height="166.79952"/>
  </clipPath>
 </defs>
</svg>
