<?xml version="1.0" encoding="utf-8" standalone="no"?>
<!DOCTYPE svg PUBLIC "-//W3C//DTD SVG 1.1//EN"
  "http://www.w3.org/Graphics/SVG/1.1/DTD/svg11.dtd">
<svg height="144pt" version="1.1" viewBox="0 0 576 144" width="576pt" xmlns="http://www.w3.org/2000/svg" xmlns:xlink="http://www.w3.org/1999/xlink">
 <metadata>
  <rdf:RDF xmlns:cc="http://creativecommons.org/ns#" xmlns:dc="http://purl.org/dc/elements/1.1/" xmlns:rdf="http://www.w3.org/1999/02/22-rdf-syntax-ns#">
   <cc:Work>
    <dc:type rdf:resource="http://purl.org/dc/dcmitype/StillImage"/>
    <dc:date>2021-08-20T09:18:01.307450</dc:date>
    <dc:format>image/svg+xml</dc:format>
    <dc:creator>
     <cc:Agent>
      <dc:title>Matplotlib v3.4.2, https://matplotlib.org/</dc:title>
     </cc:Agent>
    </dc:creator>
   </cc:Work>
  </rdf:RDF>
 </metadata>
 <defs>
  <style type="text/css">*{stroke-linecap:butt;stroke-linejoin:round;}</style>
 </defs>
 <g id="figure_1">
  <g id="patch_1">
   <path d="M 0 144 
L 576 144 
L 576 0 
L 0 0 
z
" style="fill:none;"/>
  </g>
  <g id="axes_1">
   <g id="patch_2">
    <path d="M 3.00024 140.99976 
L 572.99976 140.99976 
L 572.99976 3.00024 
L 3.00024 3.00024 
z
" style="fill:none;"/>
   </g>
   <g id="matplotlib.axis_1"/>
   <g id="matplotlib.axis_2"/>
   <g id="line2d_1">
    <path clip-path="url(#p1960b9a0bf)" d="M 3.00024 9.272945 
L 3.57081 9.284111 
L 4.14138 9.317605 
L 4.71195 9.373415 
L 5.28252 9.45152 
L 5.85309 9.551894 
L 6.423661 9.6745 
L 6.994231 9.819295 
L 7.564801 9.986227 
L 8.135371 10.175237 
L 8.705941 10.386258 
" style="fill:none;stroke:#0271ae;stroke-linejoin:miter;stroke-width:4;"/>
   </g>
   <g id="line2d_2">
    <path clip-path="url(#p1960b9a0bf)" d="M 8.705941 10.386258 
L 9.276511 10.619214 
L 9.847081 10.874022 
L 10.417651 11.150592 
L 10.988221 11.448826 
L 11.558791 11.768617 
L 12.129361 12.109851 
L 12.699932 12.472406 
L 13.270502 12.856155 
L 13.841072 13.260959 
L 14.411642 13.686676 
" style="fill:none;stroke:#0271ae;stroke-linejoin:miter;stroke-opacity:0.99;stroke-width:4;"/>
   </g>
   <g id="line2d_3">
    <path clip-path="url(#p1960b9a0bf)" d="M 14.411642 13.686676 
L 14.982212 14.133153 
L 15.552782 14.600232 
L 16.123352 15.087745 
L 16.693922 15.595521 
L 17.264492 16.123377 
L 17.835062 16.671126 
L 18.405632 17.238573 
L 18.976203 17.825516 
L 19.546773 18.431747 
L 20.117343 19.057048 
" style="fill:none;stroke:#0271ae;stroke-linejoin:miter;stroke-opacity:0.98;stroke-width:4;"/>
   </g>
   <g id="line2d_4">
    <path clip-path="url(#p1960b9a0bf)" d="M 20.117343 19.057048 
L 20.687913 19.701198 
L 21.258483 20.363967 
L 21.829053 21.045119 
L 22.399623 21.744412 
L 22.970193 22.461597 
L 23.540763 23.196419 
L 24.111333 23.948615 
L 24.681903 24.717918 
L 25.252474 25.504055 
L 25.823044 26.306745 
" style="fill:none;stroke:#0271ae;stroke-linejoin:miter;stroke-opacity:0.97;stroke-width:4;"/>
   </g>
   <g id="line2d_5">
    <path clip-path="url(#p1960b9a0bf)" d="M 25.823044 26.306745 
L 26.393614 27.125703 
L 26.964184 27.960637 
L 27.534754 28.811249 
L 28.105324 29.677238 
L 28.675894 30.558294 
L 29.246464 31.454104 
L 29.817034 32.36435 
L 30.387604 33.288706 
L 30.958174 34.226845 
L 31.528745 35.178431 
" style="fill:none;stroke:#0271ae;stroke-linejoin:miter;stroke-opacity:0.96;stroke-width:4;"/>
   </g>
   <g id="line2d_6">
    <path clip-path="url(#p1960b9a0bf)" d="M 31.528745 35.178431 
L 32.099315 36.143127 
L 32.669885 37.120588 
L 33.240455 38.110468 
L 33.811025 39.112412 
L 34.381595 40.126066 
L 34.952165 41.151067 
L 35.522735 42.187051 
L 36.093305 43.233649 
L 36.663875 44.290489 
L 37.234445 45.357194 
" style="fill:none;stroke:#0271ae;stroke-linejoin:miter;stroke-opacity:0.95;stroke-width:4;"/>
   </g>
   <g id="line2d_7">
    <path clip-path="url(#p1960b9a0bf)" d="M 37.234445 45.357194 
L 37.805015 46.433385 
L 38.375586 47.518678 
L 38.946156 48.612687 
L 39.516726 49.715022 
L 40.087296 50.825292 
L 40.657866 51.9431 
L 41.228436 53.06805 
L 41.799006 54.199739 
L 42.369576 55.337767 
L 42.940146 56.481726 
" style="fill:none;stroke:#0271ae;stroke-linejoin:miter;stroke-opacity:0.94;stroke-width:4;"/>
   </g>
   <g id="line2d_8">
    <path clip-path="url(#p1960b9a0bf)" d="M 42.940146 56.481726 
L 43.510716 57.631211 
L 44.081286 58.785812 
L 44.651857 59.945117 
L 45.222427 61.108715 
L 45.792997 62.27619 
L 46.363567 63.447128 
L 46.934137 64.621111 
L 47.504707 65.797721 
L 48.075277 66.97654 
L 48.645847 68.157148 
" style="fill:none;stroke:#0271ae;stroke-linejoin:miter;stroke-opacity:0.93;stroke-width:4;"/>
   </g>
   <g id="line2d_9">
    <path clip-path="url(#p1960b9a0bf)" d="M 48.645847 68.157148 
L 49.216417 69.339125 
L 49.786987 70.522049 
L 50.357557 71.7055 
L 50.928128 72.889056 
L 51.498698 74.072297 
L 52.069268 75.2548 
L 52.639838 76.436145 
L 53.210408 77.61591 
L 53.780978 78.793678 
L 54.351548 79.969027 
" style="fill:none;stroke:#0271ae;stroke-linejoin:miter;stroke-opacity:0.92;stroke-width:4;"/>
   </g>
   <g id="line2d_10">
    <path clip-path="url(#p1960b9a0bf)" d="M 54.351548 79.969027 
L 54.922118 81.141539 
L 55.492688 82.310798 
L 56.063258 83.476386 
L 56.633828 84.63789 
L 57.204399 85.794894 
L 57.774969 86.946988 
L 58.345539 88.093761 
L 58.916109 89.234805 
L 59.486679 90.369714 
L 60.057249 91.498084 
" style="fill:none;stroke:#0271ae;stroke-linejoin:miter;stroke-opacity:0.91;stroke-width:4;"/>
   </g>
   <g id="line2d_11">
    <path clip-path="url(#p1960b9a0bf)" d="M 60.057249 91.498084 
L 60.627819 92.619513 
L 61.198389 93.733602 
L 61.768959 94.839953 
L 62.339529 95.938175 
L 62.910099 97.027874 
L 63.48067 98.108664 
L 64.05124 99.180159 
L 64.62181 100.241979 
L 65.19238 101.293745 
L 65.76295 102.335082 
" style="fill:none;stroke:#0271ae;stroke-linejoin:miter;stroke-opacity:0.9;stroke-width:4;"/>
   </g>
   <g id="line2d_12">
    <path clip-path="url(#p1960b9a0bf)" d="M 65.76295 102.335082 
L 66.33352 103.365621 
L 66.90409 104.384994 
L 67.47466 105.392837 
L 68.04523 106.388794 
L 68.6158 107.372508 
L 69.18637 108.34363 
L 69.756941 109.301813 
L 70.327511 110.246718 
L 70.898081 111.178007 
L 71.468651 112.095349 
" style="fill:none;stroke:#0271ae;stroke-linejoin:miter;stroke-opacity:0.89;stroke-width:4;"/>
   </g>
   <g id="line2d_13">
    <path clip-path="url(#p1960b9a0bf)" d="M 71.468651 112.095349 
L 72.039221 112.998417 
L 72.609791 113.886889 
L 73.180361 114.760451 
L 73.750931 115.61879 
L 74.321501 116.4616 
L 74.892071 117.288583 
L 75.462641 118.099443 
L 76.033212 118.893892 
L 76.603782 119.671646 
L 77.174352 120.43243 
" style="fill:none;stroke:#0271ae;stroke-linejoin:miter;stroke-opacity:0.88;stroke-width:4;"/>
   </g>
   <g id="line2d_14">
    <path clip-path="url(#p1960b9a0bf)" d="M 77.174352 120.43243 
L 77.744922 121.175972 
L 78.315492 121.902008 
L 78.886062 122.610278 
L 79.456632 123.300532 
L 80.027202 123.972522 
L 80.597772 124.626011 
L 81.168342 125.260764 
L 81.738912 125.876558 
L 82.309483 126.473171 
L 82.880053 127.050392 
" style="fill:none;stroke:#0271ae;stroke-linejoin:miter;stroke-opacity:0.87;stroke-width:4;"/>
   </g>
   <g id="line2d_15">
    <path clip-path="url(#p1960b9a0bf)" d="M 82.880053 127.050392 
L 83.450623 127.608015 
L 84.021193 128.145841 
L 84.591763 128.66368 
L 85.162333 129.161347 
L 85.732903 129.638664 
L 86.303473 130.095462 
L 86.874043 130.531579 
L 87.444613 130.946858 
L 88.015183 131.341152 
L 88.585754 131.71432 
" style="fill:none;stroke:#0271ae;stroke-linejoin:miter;stroke-opacity:0.86;stroke-width:4;"/>
   </g>
   <g id="line2d_16">
    <path clip-path="url(#p1960b9a0bf)" d="M 88.585754 131.71432 
L 89.156324 132.066231 
L 89.726894 132.396758 
L 90.297464 132.705784 
L 90.868034 132.993199 
L 91.438604 133.2589 
L 92.009174 133.502793 
L 92.579744 133.724791 
L 93.150314 133.924815 
L 93.720884 134.102794 
L 94.291454 134.258665 
" style="fill:none;stroke:#0271ae;stroke-linejoin:miter;stroke-opacity:0.85;stroke-width:4;"/>
   </g>
   <g id="line2d_17">
    <path clip-path="url(#p1960b9a0bf)" d="M 94.291454 134.258665 
L 94.862025 134.392371 
L 95.432595 134.503866 
L 96.003165 134.59311 
L 96.573735 134.66007 
L 97.144305 134.704724 
L 97.714875 134.727055 
L 98.285445 134.727055 
L 98.856015 134.704724 
L 99.426585 134.66007 
L 99.997155 134.59311 
" style="fill:none;stroke:#0271ae;stroke-linejoin:miter;stroke-opacity:0.84;stroke-width:4;"/>
   </g>
   <g id="line2d_18">
    <path clip-path="url(#p1960b9a0bf)" d="M 99.997155 134.59311 
L 100.567725 134.503866 
L 101.138295 134.392371 
L 101.708866 134.258665 
L 102.279436 134.102794 
L 102.850006 133.924815 
L 103.420576 133.724791 
L 103.991146 133.502793 
L 104.561716 133.2589 
L 105.132286 132.993199 
L 105.702856 132.705784 
" style="fill:none;stroke:#0271ae;stroke-linejoin:miter;stroke-opacity:0.83;stroke-width:4;"/>
   </g>
   <g id="line2d_19">
    <path clip-path="url(#p1960b9a0bf)" d="M 105.702856 132.705784 
L 106.273426 132.396758 
L 106.843996 132.066231 
L 107.414566 131.71432 
L 107.985137 131.341152 
L 108.555707 130.946858 
L 109.126277 130.531579 
L 109.696847 130.095462 
L 110.267417 129.638664 
L 110.837987 129.161347 
L 111.408557 128.66368 
" style="fill:none;stroke:#0271ae;stroke-linejoin:miter;stroke-opacity:0.82;stroke-width:4;"/>
   </g>
   <g id="line2d_20">
    <path clip-path="url(#p1960b9a0bf)" d="M 111.408557 128.66368 
L 111.979127 128.145841 
L 112.549697 127.608015 
L 113.120267 127.050392 
L 113.690837 126.473171 
L 114.261408 125.876558 
L 114.831978 125.260764 
L 115.402548 124.626011 
L 115.973118 123.972522 
L 116.543688 123.300532 
L 117.114258 122.610278 
" style="fill:none;stroke:#0271ae;stroke-linejoin:miter;stroke-opacity:0.81;stroke-width:4;"/>
   </g>
   <g id="line2d_21">
    <path clip-path="url(#p1960b9a0bf)" d="M 117.114258 122.610278 
L 117.684828 121.902008 
L 118.255398 121.175972 
L 118.825968 120.43243 
L 119.396538 119.671646 
L 119.967108 118.893892 
L 120.537679 118.099443 
L 121.108249 117.288583 
L 121.678819 116.4616 
L 122.249389 115.61879 
L 122.819959 114.760451 
" style="fill:none;stroke:#0271ae;stroke-linejoin:miter;stroke-opacity:0.8;stroke-width:4;"/>
   </g>
   <g id="line2d_22">
    <path clip-path="url(#p1960b9a0bf)" d="M 122.819959 114.760451 
L 123.390529 113.886889 
L 123.961099 112.998417 
L 124.531669 112.095349 
L 125.102239 111.178007 
L 125.672809 110.246718 
L 126.243379 109.301813 
L 126.81395 108.34363 
L 127.38452 107.372508 
L 127.95509 106.388794 
L 128.52566 105.392837 
" style="fill:none;stroke:#0271ae;stroke-linejoin:miter;stroke-opacity:0.79;stroke-width:4;"/>
   </g>
   <g id="line2d_23">
    <path clip-path="url(#p1960b9a0bf)" d="M 128.52566 105.392837 
L 129.09623 104.384994 
L 129.6668 103.365621 
L 130.23737 102.335082 
L 130.80794 101.293745 
L 131.37851 100.241979 
L 131.94908 99.180159 
L 132.51965 98.108664 
L 133.090221 97.027874 
L 133.660791 95.938175 
L 134.231361 94.839953 
" style="fill:none;stroke:#0271ae;stroke-linejoin:miter;stroke-opacity:0.78;stroke-width:4;"/>
   </g>
   <g id="line2d_24">
    <path clip-path="url(#p1960b9a0bf)" d="M 134.231361 94.839953 
L 134.801931 93.733602 
L 135.372501 92.619513 
L 135.943071 91.498084 
L 136.513641 90.369714 
L 137.084211 89.234805 
L 137.654781 88.093761 
L 138.225351 86.946988 
L 138.795921 85.794894 
L 139.366492 84.63789 
L 139.937062 83.476386 
" style="fill:none;stroke:#0271ae;stroke-linejoin:miter;stroke-opacity:0.77;stroke-width:4;"/>
   </g>
   <g id="line2d_25">
    <path clip-path="url(#p1960b9a0bf)" d="M 139.937062 83.476386 
L 140.507632 82.310798 
L 141.078202 81.141539 
L 141.648772 79.969027 
L 142.219342 78.793678 
L 142.789912 77.61591 
L 143.360482 76.436145 
L 143.931052 75.2548 
L 144.501622 74.072297 
L 145.072192 72.889056 
L 145.642763 71.7055 
" style="fill:none;stroke:#0271ae;stroke-linejoin:miter;stroke-opacity:0.76;stroke-width:4;"/>
   </g>
   <g id="line2d_26">
    <path clip-path="url(#p1960b9a0bf)" d="M 145.642763 71.7055 
L 146.213333 70.522049 
L 146.783903 69.339125 
L 147.354473 68.157148 
L 147.925043 66.97654 
L 148.495613 65.797721 
L 149.066183 64.621111 
L 149.636753 63.447128 
L 150.207323 62.27619 
L 150.777893 61.108715 
L 151.348463 59.945117 
" style="fill:none;stroke:#0271ae;stroke-linejoin:miter;stroke-opacity:0.75;stroke-width:4;"/>
   </g>
   <g id="line2d_27">
    <path clip-path="url(#p1960b9a0bf)" d="M 151.348463 59.945117 
L 151.919034 58.785812 
L 152.489604 57.631211 
L 153.060174 56.481726 
L 153.630744 55.337767 
L 154.201314 54.199739 
L 154.771884 53.06805 
L 155.342454 51.9431 
L 155.913024 50.825292 
L 156.483594 49.715022 
L 157.054164 48.612687 
" style="fill:none;stroke:#0271ae;stroke-linejoin:miter;stroke-opacity:0.74;stroke-width:4;"/>
   </g>
   <g id="line2d_28">
    <path clip-path="url(#p1960b9a0bf)" d="M 157.054164 48.612687 
L 157.624734 47.518678 
L 158.195305 46.433385 
L 158.765875 45.357194 
L 159.336445 44.290489 
L 159.907015 43.233649 
L 160.477585 42.187051 
L 161.048155 41.151067 
L 161.618725 40.126066 
L 162.189295 39.112412 
L 162.759865 38.110468 
" style="fill:none;stroke:#0271ae;stroke-linejoin:miter;stroke-opacity:0.73;stroke-width:4;"/>
   </g>
   <g id="line2d_29">
    <path clip-path="url(#p1960b9a0bf)" d="M 162.759865 38.110468 
L 163.330435 37.120588 
L 163.901005 36.143127 
L 164.471575 35.178431 
L 165.042146 34.226845 
L 165.612716 33.288706 
L 166.183286 32.36435 
L 166.753856 31.454104 
L 167.324426 30.558294 
L 167.894996 29.677238 
L 168.465566 28.811249 
" style="fill:none;stroke:#0271ae;stroke-linejoin:miter;stroke-opacity:0.72;stroke-width:4;"/>
   </g>
   <g id="line2d_30">
    <path clip-path="url(#p1960b9a0bf)" d="M 168.465566 28.811249 
L 169.036136 27.960637 
L 169.606706 27.125703 
L 170.177276 26.306745 
L 170.747846 25.504055 
L 171.318417 24.717918 
L 171.888987 23.948615 
L 172.459557 23.196419 
L 173.030127 22.461597 
L 173.600697 21.744412 
L 174.171267 21.045119 
" style="fill:none;stroke:#0271ae;stroke-linejoin:miter;stroke-opacity:0.71;stroke-width:4;"/>
   </g>
   <g id="line2d_31">
    <path clip-path="url(#p1960b9a0bf)" d="M 174.171267 21.045119 
L 174.741837 20.363967 
L 175.312407 19.701198 
L 175.882977 19.057048 
L 176.453547 18.431747 
L 177.024117 17.825516 
L 177.594688 17.238573 
L 178.165258 16.671126 
L 178.735828 16.123377 
L 179.306398 15.595521 
L 179.876968 15.087745 
" style="fill:none;stroke:#0271ae;stroke-linejoin:miter;stroke-opacity:0.7;stroke-width:4;"/>
   </g>
   <g id="line2d_32">
    <path clip-path="url(#p1960b9a0bf)" d="M 179.876968 15.087745 
L 180.447538 14.600232 
L 181.018108 14.133153 
L 181.588678 13.686676 
L 182.159248 13.260959 
L 182.729818 12.856155 
L 183.300388 12.472406 
L 183.870959 12.109851 
L 184.441529 11.768617 
L 185.012099 11.448826 
L 185.582669 11.150592 
" style="fill:none;stroke:#0271ae;stroke-linejoin:miter;stroke-opacity:0.69;stroke-width:4;"/>
   </g>
   <g id="line2d_33">
    <path clip-path="url(#p1960b9a0bf)" d="M 185.582669 11.150592 
L 186.153239 10.874022 
L 186.723809 10.619214 
L 187.294379 10.386258 
L 187.864949 10.175237 
L 188.435519 9.986227 
L 189.006089 9.819295 
L 189.576659 9.6745 
L 190.14723 9.551894 
L 190.7178 9.45152 
L 191.28837 9.373415 
" style="fill:none;stroke:#0271ae;stroke-linejoin:miter;stroke-opacity:0.68;stroke-width:4;"/>
   </g>
   <g id="line2d_34">
    <path clip-path="url(#p1960b9a0bf)" d="M 191.28837 9.373415 
L 191.85894 9.317605 
L 192.42951 9.284111 
L 193.00008 9.272945 
L 193.57065 9.284111 
L 194.14122 9.317605 
L 194.71179 9.373415 
L 195.28236 9.45152 
L 195.85293 9.551894 
L 196.423501 9.6745 
L 196.994071 9.819295 
" style="fill:none;stroke:#0271ae;stroke-linejoin:miter;stroke-opacity:0.67;stroke-width:4;"/>
   </g>
   <g id="line2d_35">
    <path clip-path="url(#p1960b9a0bf)" d="M 196.994071 9.819295 
L 197.564641 9.986227 
L 198.135211 10.175237 
L 198.705781 10.386258 
L 199.276351 10.619214 
L 199.846921 10.874022 
L 200.417491 11.150592 
L 200.988061 11.448826 
L 201.558631 11.768617 
L 202.129201 12.109851 
L 202.699772 12.472406 
" style="fill:none;stroke:#0271ae;stroke-linejoin:miter;stroke-opacity:0.66;stroke-width:4;"/>
   </g>
   <g id="line2d_36">
    <path clip-path="url(#p1960b9a0bf)" d="M 202.699772 12.472406 
L 203.270342 12.856155 
L 203.840912 13.260959 
L 204.411482 13.686676 
L 204.982052 14.133153 
L 205.552622 14.600232 
L 206.123192 15.087745 
L 206.693762 15.595521 
L 207.264332 16.123377 
L 207.834902 16.671126 
L 208.405472 17.238573 
" style="fill:none;stroke:#0271ae;stroke-linejoin:miter;stroke-opacity:0.65;stroke-width:4;"/>
   </g>
   <g id="line2d_37">
    <path clip-path="url(#p1960b9a0bf)" d="M 208.405472 17.238573 
L 208.976043 17.825516 
L 209.546613 18.431747 
L 210.117183 19.057048 
L 210.687753 19.701198 
L 211.258323 20.363967 
L 211.828893 21.045119 
L 212.399463 21.744412 
L 212.970033 22.461597 
L 213.540603 23.196419 
L 214.111173 23.948615 
" style="fill:none;stroke:#0271ae;stroke-linejoin:miter;stroke-opacity:0.64;stroke-width:4;"/>
   </g>
   <g id="line2d_38">
    <path clip-path="url(#p1960b9a0bf)" d="M 214.111173 23.948615 
L 214.681743 24.717918 
L 215.252314 25.504055 
L 215.822884 26.306745 
L 216.393454 27.125703 
L 216.964024 27.960637 
L 217.534594 28.811249 
L 218.105164 29.677238 
L 218.675734 30.558294 
L 219.246304 31.454104 
L 219.816874 32.36435 
" style="fill:none;stroke:#0271ae;stroke-linejoin:miter;stroke-opacity:0.63;stroke-width:4;"/>
   </g>
   <g id="line2d_39">
    <path clip-path="url(#p1960b9a0bf)" d="M 219.816874 32.36435 
L 220.387444 33.288706 
L 220.958014 34.226845 
L 221.528585 35.178431 
L 222.099155 36.143127 
L 222.669725 37.120588 
L 223.240295 38.110468 
L 223.810865 39.112412 
L 224.381435 40.126066 
L 224.952005 41.151067 
L 225.522575 42.187051 
" style="fill:none;stroke:#0271ae;stroke-linejoin:miter;stroke-opacity:0.62;stroke-width:4;"/>
   </g>
   <g id="line2d_40">
    <path clip-path="url(#p1960b9a0bf)" d="M 225.522575 42.187051 
L 226.093145 43.233649 
L 226.663715 44.290489 
L 227.234285 45.357194 
L 227.804855 46.433385 
L 228.375426 47.518678 
L 228.945996 48.612687 
L 229.516566 49.715022 
L 230.087136 50.825292 
L 230.657706 51.9431 
L 231.228276 53.06805 
" style="fill:none;stroke:#0271ae;stroke-linejoin:miter;stroke-opacity:0.61;stroke-width:4;"/>
   </g>
   <g id="line2d_41">
    <path clip-path="url(#p1960b9a0bf)" d="M 231.228276 53.06805 
L 231.798846 54.199739 
L 232.369416 55.337767 
L 232.939986 56.481726 
L 233.510556 57.631211 
L 234.081126 58.785812 
L 234.651697 59.945117 
L 235.222267 61.108715 
L 235.792837 62.27619 
L 236.363407 63.447128 
L 236.933977 64.621111 
" style="fill:none;stroke:#0271ae;stroke-linejoin:miter;stroke-opacity:0.6;stroke-width:4;"/>
   </g>
   <g id="line2d_42">
    <path clip-path="url(#p1960b9a0bf)" d="M 236.933977 64.621111 
L 237.504547 65.797721 
L 238.075117 66.97654 
L 238.645687 68.157148 
L 239.216257 69.339125 
L 239.786827 70.522049 
L 240.357397 71.7055 
L 240.927968 72.889056 
L 241.498538 74.072297 
L 242.069108 75.2548 
L 242.639678 76.436145 
" style="fill:none;stroke:#0271ae;stroke-linejoin:miter;stroke-opacity:0.59;stroke-width:4;"/>
   </g>
   <g id="line2d_43">
    <path clip-path="url(#p1960b9a0bf)" d="M 242.639678 76.436145 
L 243.210248 77.61591 
L 243.780818 78.793678 
L 244.351388 79.969027 
L 244.921958 81.141539 
L 245.492528 82.310798 
L 246.063098 83.476386 
L 246.633668 84.63789 
L 247.204239 85.794894 
L 247.774809 86.946988 
L 248.345379 88.093761 
" style="fill:none;stroke:#0271ae;stroke-linejoin:miter;stroke-opacity:0.58;stroke-width:4;"/>
   </g>
   <g id="line2d_44">
    <path clip-path="url(#p1960b9a0bf)" d="M 248.345379 88.093761 
L 248.915949 89.234805 
L 249.486519 90.369714 
L 250.057089 91.498084 
L 250.627659 92.619513 
L 251.198229 93.733602 
L 251.768799 94.839953 
L 252.339369 95.938175 
L 252.909939 97.027874 
L 253.48051 98.108664 
L 254.05108 99.180159 
" style="fill:none;stroke:#0271ae;stroke-linejoin:miter;stroke-opacity:0.57;stroke-width:4;"/>
   </g>
   <g id="line2d_45">
    <path clip-path="url(#p1960b9a0bf)" d="M 254.05108 99.180159 
L 254.62165 100.241979 
L 255.19222 101.293745 
L 255.76279 102.335082 
L 256.33336 103.365621 
L 256.90393 104.384994 
L 257.4745 105.392837 
L 258.04507 106.388794 
L 258.61564 107.372508 
L 259.18621 108.34363 
L 259.756781 109.301813 
" style="fill:none;stroke:#0271ae;stroke-linejoin:miter;stroke-opacity:0.56;stroke-width:4;"/>
   </g>
   <g id="line2d_46">
    <path clip-path="url(#p1960b9a0bf)" d="M 259.756781 109.301813 
L 260.327351 110.246718 
L 260.897921 111.178007 
L 261.468491 112.095349 
L 262.039061 112.998417 
L 262.609631 113.886889 
L 263.180201 114.760451 
L 263.750771 115.61879 
L 264.321341 116.4616 
L 264.891911 117.288583 
L 265.462481 118.099443 
" style="fill:none;stroke:#0271ae;stroke-linejoin:miter;stroke-opacity:0.55;stroke-width:4;"/>
   </g>
   <g id="line2d_47">
    <path clip-path="url(#p1960b9a0bf)" d="M 265.462481 118.099443 
L 266.033052 118.893892 
L 266.603622 119.671646 
L 267.174192 120.43243 
L 267.744762 121.175972 
L 268.315332 121.902008 
L 268.885902 122.610278 
L 269.456472 123.300532 
L 270.027042 123.972522 
L 270.597612 124.626011 
L 271.168182 125.260764 
" style="fill:none;stroke:#0271ae;stroke-linejoin:miter;stroke-opacity:0.54;stroke-width:4;"/>
   </g>
   <g id="line2d_48">
    <path clip-path="url(#p1960b9a0bf)" d="M 271.168182 125.260764 
L 271.738752 125.876558 
L 272.309323 126.473171 
L 272.879893 127.050392 
L 273.450463 127.608015 
L 274.021033 128.145841 
L 274.591603 128.66368 
L 275.162173 129.161347 
L 275.732743 129.638664 
L 276.303313 130.095462 
L 276.873883 130.531579 
" style="fill:none;stroke:#0271ae;stroke-linejoin:miter;stroke-opacity:0.53;stroke-width:4;"/>
   </g>
   <g id="line2d_49">
    <path clip-path="url(#p1960b9a0bf)" d="M 276.873883 130.531579 
L 277.444453 130.946858 
L 278.015023 131.341152 
L 278.585594 131.71432 
L 279.156164 132.066231 
L 279.726734 132.396758 
L 280.297304 132.705784 
L 280.867874 132.993199 
L 281.438444 133.2589 
L 282.009014 133.502793 
L 282.579584 133.724791 
" style="fill:none;stroke:#0271ae;stroke-linejoin:miter;stroke-opacity:0.52;stroke-width:4;"/>
   </g>
   <g id="line2d_50">
    <path clip-path="url(#p1960b9a0bf)" d="M 282.579584 133.724791 
L 283.150154 133.924815 
L 283.720724 134.102794 
L 284.291294 134.258665 
L 284.861865 134.392371 
L 285.432435 134.503866 
L 286.003005 134.59311 
L 286.573575 134.66007 
L 287.144145 134.704724 
L 287.714715 134.727055 
L 288.285285 134.727055 
" style="fill:none;stroke:#0271ae;stroke-linejoin:miter;stroke-opacity:0.51;stroke-width:4;"/>
   </g>
   <g id="line2d_51">
    <path clip-path="url(#p1960b9a0bf)" d="M 288.285285 134.727055 
L 288.855855 134.704724 
L 289.426425 134.66007 
L 289.996995 134.59311 
L 290.567565 134.503866 
L 291.138135 134.392371 
L 291.708706 134.258665 
L 292.279276 134.102794 
L 292.849846 133.924815 
L 293.420416 133.724791 
L 293.990986 133.502793 
" style="fill:none;stroke:#0271ae;stroke-linejoin:miter;stroke-opacity:0.5;stroke-width:4;"/>
   </g>
   <g id="line2d_52">
    <path clip-path="url(#p1960b9a0bf)" d="M 293.990986 133.502793 
L 294.561556 133.2589 
L 295.132126 132.993199 
L 295.702696 132.705784 
L 296.273266 132.396758 
L 296.843836 132.066231 
L 297.414406 131.71432 
L 297.984977 131.341152 
L 298.555547 130.946858 
L 299.126117 130.531579 
L 299.696687 130.095462 
" style="fill:none;stroke:#0271ae;stroke-linejoin:miter;stroke-opacity:0.49;stroke-width:4;"/>
   </g>
   <g id="line2d_53">
    <path clip-path="url(#p1960b9a0bf)" d="M 299.696687 130.095462 
L 300.267257 129.638664 
L 300.837827 129.161347 
L 301.408397 128.66368 
L 301.978967 128.145841 
L 302.549537 127.608015 
L 303.120107 127.050392 
L 303.690677 126.473171 
L 304.261248 125.876558 
L 304.831818 125.260764 
L 305.402388 124.626011 
" style="fill:none;stroke:#0271ae;stroke-linejoin:miter;stroke-opacity:0.48;stroke-width:4;"/>
   </g>
   <g id="line2d_54">
    <path clip-path="url(#p1960b9a0bf)" d="M 305.402388 124.626011 
L 305.972958 123.972522 
L 306.543528 123.300532 
L 307.114098 122.610278 
L 307.684668 121.902008 
L 308.255238 121.175972 
L 308.825808 120.43243 
L 309.396378 119.671646 
L 309.966948 118.893892 
L 310.537519 118.099443 
L 311.108089 117.288583 
" style="fill:none;stroke:#0271ae;stroke-linejoin:miter;stroke-opacity:0.47;stroke-width:4;"/>
   </g>
   <g id="line2d_55">
    <path clip-path="url(#p1960b9a0bf)" d="M 311.108089 117.288583 
L 311.678659 116.4616 
L 312.249229 115.61879 
L 312.819799 114.760451 
L 313.390369 113.886889 
L 313.960939 112.998417 
L 314.531509 112.095349 
L 315.102079 111.178007 
L 315.672649 110.246718 
L 316.243219 109.301813 
L 316.81379 108.34363 
" style="fill:none;stroke:#0271ae;stroke-linejoin:miter;stroke-opacity:0.46;stroke-width:4;"/>
   </g>
   <g id="line2d_56">
    <path clip-path="url(#p1960b9a0bf)" d="M 316.81379 108.34363 
L 317.38436 107.372508 
L 317.95493 106.388794 
L 318.5255 105.392837 
L 319.09607 104.384994 
L 319.66664 103.365621 
L 320.23721 102.335082 
L 320.80778 101.293745 
L 321.37835 100.241979 
L 321.94892 99.180159 
L 322.51949 98.108664 
" style="fill:none;stroke:#0271ae;stroke-linejoin:miter;stroke-opacity:0.45;stroke-width:4;"/>
   </g>
   <g id="line2d_57">
    <path clip-path="url(#p1960b9a0bf)" d="M 322.51949 98.108664 
L 323.090061 97.027874 
L 323.660631 95.938175 
L 324.231201 94.839953 
L 324.801771 93.733602 
L 325.372341 92.619513 
L 325.942911 91.498084 
L 326.513481 90.369714 
L 327.084051 89.234805 
L 327.654621 88.093761 
L 328.225191 86.946988 
" style="fill:none;stroke:#0271ae;stroke-linejoin:miter;stroke-opacity:0.44;stroke-width:4;"/>
   </g>
   <g id="line2d_58">
    <path clip-path="url(#p1960b9a0bf)" d="M 328.225191 86.946988 
L 328.795761 85.794894 
L 329.366332 84.63789 
L 329.936902 83.476386 
L 330.507472 82.310798 
L 331.078042 81.141539 
L 331.648612 79.969027 
L 332.219182 78.793678 
L 332.789752 77.61591 
L 333.360322 76.436145 
L 333.930892 75.2548 
" style="fill:none;stroke:#0271ae;stroke-linejoin:miter;stroke-opacity:0.43;stroke-width:4;"/>
   </g>
   <g id="line2d_59">
    <path clip-path="url(#p1960b9a0bf)" d="M 333.930892 75.2548 
L 334.501462 74.072297 
L 335.072032 72.889056 
L 335.642603 71.7055 
L 336.213173 70.522049 
L 336.783743 69.339125 
L 337.354313 68.157148 
L 337.924883 66.97654 
L 338.495453 65.797721 
L 339.066023 64.621111 
L 339.636593 63.447128 
" style="fill:none;stroke:#0271ae;stroke-linejoin:miter;stroke-opacity:0.42;stroke-width:4;"/>
   </g>
   <g id="line2d_60">
    <path clip-path="url(#p1960b9a0bf)" d="M 339.636593 63.447128 
L 340.207163 62.27619 
L 340.777733 61.108715 
L 341.348303 59.945117 
L 341.918874 58.785812 
L 342.489444 57.631211 
L 343.060014 56.481726 
L 343.630584 55.337767 
L 344.201154 54.199739 
L 344.771724 53.06805 
L 345.342294 51.9431 
" style="fill:none;stroke:#0271ae;stroke-linejoin:miter;stroke-opacity:0.41;stroke-width:4;"/>
   </g>
   <g id="line2d_61">
    <path clip-path="url(#p1960b9a0bf)" d="M 345.342294 51.9431 
L 345.912864 50.825292 
L 346.483434 49.715022 
L 347.054004 48.612687 
L 347.624574 47.518678 
L 348.195145 46.433385 
L 348.765715 45.357194 
L 349.336285 44.290489 
L 349.906855 43.233649 
L 350.477425 42.187051 
L 351.047995 41.151067 
" style="fill:none;stroke:#0271ae;stroke-linejoin:miter;stroke-opacity:0.4;stroke-width:4;"/>
   </g>
   <g id="line2d_62">
    <path clip-path="url(#p1960b9a0bf)" d="M 351.047995 41.151067 
L 351.618565 40.126066 
L 352.189135 39.112412 
L 352.759705 38.110468 
L 353.330275 37.120588 
L 353.900845 36.143127 
L 354.471415 35.178431 
L 355.041986 34.226845 
L 355.612556 33.288706 
L 356.183126 32.36435 
L 356.753696 31.454104 
" style="fill:none;stroke:#0271ae;stroke-linejoin:miter;stroke-opacity:0.39;stroke-width:4;"/>
   </g>
   <g id="line2d_63">
    <path clip-path="url(#p1960b9a0bf)" d="M 356.753696 31.454104 
L 357.324266 30.558294 
L 357.894836 29.677238 
L 358.465406 28.811249 
L 359.035976 27.960637 
L 359.606546 27.125703 
L 360.177116 26.306745 
L 360.747686 25.504055 
L 361.318257 24.717918 
L 361.888827 23.948615 
L 362.459397 23.196419 
" style="fill:none;stroke:#0271ae;stroke-linejoin:miter;stroke-opacity:0.38;stroke-width:4;"/>
   </g>
   <g id="line2d_64">
    <path clip-path="url(#p1960b9a0bf)" d="M 362.459397 23.196419 
L 363.029967 22.461597 
L 363.600537 21.744412 
L 364.171107 21.045119 
L 364.741677 20.363967 
L 365.312247 19.701198 
L 365.882817 19.057048 
L 366.453387 18.431747 
L 367.023957 17.825516 
L 367.594528 17.238573 
L 368.165098 16.671126 
" style="fill:none;stroke:#0271ae;stroke-linejoin:miter;stroke-opacity:0.37;stroke-width:4;"/>
   </g>
   <g id="line2d_65">
    <path clip-path="url(#p1960b9a0bf)" d="M 368.165098 16.671126 
L 368.735668 16.123377 
L 369.306238 15.595521 
L 369.876808 15.087745 
L 370.447378 14.600232 
L 371.017948 14.133153 
L 371.588518 13.686676 
L 372.159088 13.260959 
L 372.729658 12.856155 
L 373.300228 12.472406 
L 373.870799 12.109851 
" style="fill:none;stroke:#0271ae;stroke-linejoin:miter;stroke-opacity:0.36;stroke-width:4;"/>
   </g>
   <g id="line2d_66">
    <path clip-path="url(#p1960b9a0bf)" d="M 373.870799 12.109851 
L 374.441369 11.768617 
L 375.011939 11.448826 
L 375.582509 11.150592 
L 376.153079 10.874022 
L 376.723649 10.619214 
L 377.294219 10.386258 
L 377.864789 10.175237 
L 378.435359 9.986227 
L 379.005929 9.819295 
L 379.576499 9.6745 
" style="fill:none;stroke:#0271ae;stroke-linejoin:miter;stroke-opacity:0.35;stroke-width:4;"/>
   </g>
   <g id="line2d_67">
    <path clip-path="url(#p1960b9a0bf)" d="M 379.576499 9.6745 
L 380.14707 9.551894 
L 380.71764 9.45152 
L 381.28821 9.373415 
L 381.85878 9.317605 
L 382.42935 9.284111 
L 382.99992 9.272945 
L 383.57049 9.284111 
L 384.14106 9.317605 
L 384.71163 9.373415 
L 385.2822 9.45152 
" style="fill:none;stroke:#0271ae;stroke-linejoin:miter;stroke-opacity:0.34;stroke-width:4;"/>
   </g>
   <g id="line2d_68">
    <path clip-path="url(#p1960b9a0bf)" d="M 385.2822 9.45152 
L 385.85277 9.551894 
L 386.423341 9.6745 
L 386.993911 9.819295 
L 387.564481 9.986227 
L 388.135051 10.175237 
L 388.705621 10.386258 
L 389.276191 10.619214 
L 389.846761 10.874022 
L 390.417331 11.150592 
L 390.987901 11.448826 
" style="fill:none;stroke:#0271ae;stroke-linejoin:miter;stroke-opacity:0.33;stroke-width:4;"/>
   </g>
   <g id="line2d_69">
    <path clip-path="url(#p1960b9a0bf)" d="M 390.987901 11.448826 
L 391.558471 11.768617 
L 392.129041 12.109851 
L 392.699612 12.472406 
L 393.270182 12.856155 
L 393.840752 13.260959 
L 394.411322 13.686676 
L 394.981892 14.133153 
L 395.552462 14.600232 
L 396.123032 15.087745 
L 396.693602 15.595521 
" style="fill:none;stroke:#0271ae;stroke-linejoin:miter;stroke-opacity:0.32;stroke-width:4;"/>
   </g>
   <g id="line2d_70">
    <path clip-path="url(#p1960b9a0bf)" d="M 396.693602 15.595521 
L 397.264172 16.123377 
L 397.834742 16.671126 
L 398.405312 17.238573 
L 398.975883 17.825516 
L 399.546453 18.431747 
L 400.117023 19.057048 
L 400.687593 19.701198 
L 401.258163 20.363967 
L 401.828733 21.045119 
L 402.399303 21.744412 
" style="fill:none;stroke:#0271ae;stroke-linejoin:miter;stroke-opacity:0.31;stroke-width:4;"/>
   </g>
   <g id="line2d_71">
    <path clip-path="url(#p1960b9a0bf)" d="M 402.399303 21.744412 
L 402.969873 22.461597 
L 403.540443 23.196419 
L 404.111013 23.948615 
L 404.681583 24.717918 
L 405.252154 25.504055 
L 405.822724 26.306745 
L 406.393294 27.125703 
L 406.963864 27.960637 
L 407.534434 28.811249 
L 408.105004 29.677238 
" style="fill:none;stroke:#0271ae;stroke-linejoin:miter;stroke-opacity:0.3;stroke-width:4;"/>
   </g>
   <g id="line2d_72">
    <path clip-path="url(#p1960b9a0bf)" d="M 408.105004 29.677238 
L 408.675574 30.558294 
L 409.246144 31.454104 
L 409.816714 32.36435 
L 410.387284 33.288706 
L 410.957854 34.226845 
L 411.528425 35.178431 
L 412.098995 36.143127 
L 412.669565 37.120588 
L 413.240135 38.110468 
L 413.810705 39.112412 
" style="fill:none;stroke:#0271ae;stroke-linejoin:miter;stroke-opacity:0.29;stroke-width:4;"/>
   </g>
   <g id="line2d_73">
    <path clip-path="url(#p1960b9a0bf)" d="M 413.810705 39.112412 
L 414.381275 40.126066 
L 414.951845 41.151067 
L 415.522415 42.187051 
L 416.092985 43.233649 
L 416.663555 44.290489 
L 417.234125 45.357194 
L 417.804695 46.433385 
L 418.375266 47.518678 
L 418.945836 48.612687 
L 419.516406 49.715022 
" style="fill:none;stroke:#0271ae;stroke-linejoin:miter;stroke-opacity:0.28;stroke-width:4;"/>
   </g>
   <g id="line2d_74">
    <path clip-path="url(#p1960b9a0bf)" d="M 419.516406 49.715022 
L 420.086976 50.825292 
L 420.657546 51.9431 
L 421.228116 53.06805 
L 421.798686 54.199739 
L 422.369256 55.337767 
L 422.939826 56.481726 
L 423.510396 57.631211 
L 424.080966 58.785812 
L 424.651537 59.945117 
L 425.222107 61.108715 
" style="fill:none;stroke:#0271ae;stroke-linejoin:miter;stroke-opacity:0.27;stroke-width:4;"/>
   </g>
   <g id="line2d_75">
    <path clip-path="url(#p1960b9a0bf)" d="M 425.222107 61.108715 
L 425.792677 62.27619 
L 426.363247 63.447128 
L 426.933817 64.621111 
L 427.504387 65.797721 
L 428.074957 66.97654 
L 428.645527 68.157148 
L 429.216097 69.339125 
L 429.786667 70.522049 
L 430.357237 71.7055 
L 430.927808 72.889056 
" style="fill:none;stroke:#0271ae;stroke-linejoin:miter;stroke-opacity:0.26;stroke-width:4;"/>
   </g>
   <g id="line2d_76">
    <path clip-path="url(#p1960b9a0bf)" d="M 430.927808 72.889056 
L 431.498378 74.072297 
L 432.068948 75.2548 
L 432.639518 76.436145 
L 433.210088 77.61591 
L 433.780658 78.793678 
L 434.351228 79.969027 
L 434.921798 81.141539 
L 435.492368 82.310798 
L 436.062938 83.476386 
L 436.633508 84.63789 
" style="fill:none;stroke:#0271ae;stroke-linejoin:miter;stroke-opacity:0.25;stroke-width:4;"/>
   </g>
   <g id="line2d_77">
    <path clip-path="url(#p1960b9a0bf)" d="M 436.633508 84.63789 
L 437.204079 85.794894 
L 437.774649 86.946988 
L 438.345219 88.093761 
L 438.915789 89.234805 
L 439.486359 90.369714 
L 440.056929 91.498084 
L 440.627499 92.619513 
L 441.198069 93.733602 
L 441.768639 94.839953 
L 442.339209 95.938175 
" style="fill:none;stroke:#0271ae;stroke-linejoin:miter;stroke-opacity:0.24;stroke-width:4;"/>
   </g>
   <g id="line2d_78">
    <path clip-path="url(#p1960b9a0bf)" d="M 442.339209 95.938175 
L 442.909779 97.027874 
L 443.48035 98.108664 
L 444.05092 99.180159 
L 444.62149 100.241979 
L 445.19206 101.293745 
L 445.76263 102.335082 
L 446.3332 103.365621 
L 446.90377 104.384994 
L 447.47434 105.392837 
L 448.04491 106.388794 
" style="fill:none;stroke:#0271ae;stroke-linejoin:miter;stroke-opacity:0.23;stroke-width:4;"/>
   </g>
   <g id="line2d_79">
    <path clip-path="url(#p1960b9a0bf)" d="M 448.04491 106.388794 
L 448.61548 107.372508 
L 449.18605 108.34363 
L 449.756621 109.301813 
L 450.327191 110.246718 
L 450.897761 111.178007 
L 451.468331 112.095349 
L 452.038901 112.998417 
L 452.609471 113.886889 
L 453.180041 114.760451 
L 453.750611 115.61879 
" style="fill:none;stroke:#0271ae;stroke-linejoin:miter;stroke-opacity:0.22;stroke-width:4;"/>
   </g>
   <g id="line2d_80">
    <path clip-path="url(#p1960b9a0bf)" d="M 453.750611 115.61879 
L 454.321181 116.4616 
L 454.891751 117.288583 
L 455.462321 118.099443 
L 456.032892 118.893892 
L 456.603462 119.671646 
L 457.174032 120.43243 
L 457.744602 121.175972 
L 458.315172 121.902008 
L 458.885742 122.610278 
L 459.456312 123.300532 
" style="fill:none;stroke:#0271ae;stroke-linejoin:miter;stroke-opacity:0.21;stroke-width:4;"/>
   </g>
   <g id="line2d_81">
    <path clip-path="url(#p1960b9a0bf)" d="M 459.456312 123.300532 
L 460.026882 123.972522 
L 460.597452 124.626011 
L 461.168022 125.260764 
L 461.738592 125.876558 
L 462.309163 126.473171 
L 462.879733 127.050392 
L 463.450303 127.608015 
L 464.020873 128.145841 
L 464.591443 128.66368 
L 465.162013 129.161347 
" style="fill:none;stroke:#0271ae;stroke-linejoin:miter;stroke-opacity:0.2;stroke-width:4;"/>
   </g>
   <g id="line2d_82">
    <path clip-path="url(#p1960b9a0bf)" d="M 465.162013 129.161347 
L 465.732583 129.638664 
L 466.303153 130.095462 
L 466.873723 130.531579 
L 467.444293 130.946858 
L 468.014863 131.341152 
L 468.585434 131.71432 
L 469.156004 132.066231 
L 469.726574 132.396758 
L 470.297144 132.705784 
L 470.867714 132.993199 
" style="fill:none;stroke:#0271ae;stroke-linejoin:miter;stroke-opacity:0.19;stroke-width:4;"/>
   </g>
   <g id="line2d_83">
    <path clip-path="url(#p1960b9a0bf)" d="M 470.867714 132.993199 
L 471.438284 133.2589 
L 472.008854 133.502793 
L 472.579424 133.724791 
L 473.149994 133.924815 
L 473.720564 134.102794 
L 474.291134 134.258665 
L 474.861705 134.392371 
L 475.432275 134.503866 
L 476.002845 134.59311 
L 476.573415 134.66007 
" style="fill:none;stroke:#0271ae;stroke-linejoin:miter;stroke-opacity:0.18;stroke-width:4;"/>
   </g>
   <g id="line2d_84">
    <path clip-path="url(#p1960b9a0bf)" d="M 476.573415 134.66007 
L 477.143985 134.704724 
L 477.714555 134.727055 
L 478.285125 134.727055 
L 478.855695 134.704724 
L 479.426265 134.66007 
L 479.996835 134.59311 
L 480.567405 134.503866 
L 481.137975 134.392371 
L 481.708546 134.258665 
L 482.279116 134.102794 
" style="fill:none;stroke:#0271ae;stroke-linejoin:miter;stroke-opacity:0.17;stroke-width:4;"/>
   </g>
   <g id="line2d_85">
    <path clip-path="url(#p1960b9a0bf)" d="M 482.279116 134.102794 
L 482.849686 133.924815 
L 483.420256 133.724791 
L 483.990826 133.502793 
L 484.561396 133.2589 
L 485.131966 132.993199 
L 485.702536 132.705784 
L 486.273106 132.396758 
L 486.843676 132.066231 
L 487.414246 131.71432 
L 487.984817 131.341152 
" style="fill:none;stroke:#0271ae;stroke-linejoin:miter;stroke-opacity:0.16;stroke-width:4;"/>
   </g>
   <g id="line2d_86">
    <path clip-path="url(#p1960b9a0bf)" d="M 487.984817 131.341152 
L 488.555387 130.946858 
L 489.125957 130.531579 
L 489.696527 130.095462 
L 490.267097 129.638664 
L 490.837667 129.161347 
L 491.408237 128.66368 
L 491.978807 128.145841 
L 492.549377 127.608015 
L 493.119947 127.050392 
L 493.690517 126.473171 
" style="fill:none;stroke:#0271ae;stroke-linejoin:miter;stroke-opacity:0.15;stroke-width:4;"/>
   </g>
   <g id="line2d_87">
    <path clip-path="url(#p1960b9a0bf)" d="M 493.690517 126.473171 
L 494.261088 125.876558 
L 494.831658 125.260764 
L 495.402228 124.626011 
L 495.972798 123.972522 
L 496.543368 123.300532 
L 497.113938 122.610278 
L 497.684508 121.902008 
L 498.255078 121.175972 
L 498.825648 120.43243 
L 499.396218 119.671646 
" style="fill:none;stroke:#0271ae;stroke-linejoin:miter;stroke-opacity:0.14;stroke-width:4;"/>
   </g>
   <g id="line2d_88">
    <path clip-path="url(#p1960b9a0bf)" d="M 499.396218 119.671646 
L 499.966788 118.893892 
L 500.537359 118.099443 
L 501.107929 117.288583 
L 501.678499 116.4616 
L 502.249069 115.61879 
L 502.819639 114.760451 
L 503.390209 113.886889 
L 503.960779 112.998417 
L 504.531349 112.095349 
L 505.101919 111.178007 
" style="fill:none;stroke:#0271ae;stroke-linejoin:miter;stroke-opacity:0.13;stroke-width:4;"/>
   </g>
   <g id="line2d_89">
    <path clip-path="url(#p1960b9a0bf)" d="M 505.101919 111.178007 
L 505.672489 110.246718 
L 506.243059 109.301813 
L 506.81363 108.34363 
L 507.3842 107.372508 
L 507.95477 106.388794 
L 508.52534 105.392837 
L 509.09591 104.384994 
L 509.66648 103.365621 
L 510.23705 102.335082 
L 510.80762 101.293745 
" style="fill:none;stroke:#0271ae;stroke-linejoin:miter;stroke-opacity:0.12;stroke-width:4;"/>
   </g>
   <g id="line2d_90">
    <path clip-path="url(#p1960b9a0bf)" d="M 510.80762 101.293745 
L 511.37819 100.241979 
L 511.94876 99.180159 
L 512.51933 98.108664 
L 513.089901 97.027874 
L 513.660471 95.938175 
L 514.231041 94.839953 
L 514.801611 93.733602 
L 515.372181 92.619513 
L 515.942751 91.498084 
L 516.513321 90.369714 
" style="fill:none;stroke:#0271ae;stroke-linejoin:miter;stroke-opacity:0.11;stroke-width:4;"/>
   </g>
   <g id="line2d_91">
    <path clip-path="url(#p1960b9a0bf)" d="M 516.513321 90.369714 
L 517.083891 89.234805 
L 517.654461 88.093761 
L 518.225031 86.946988 
L 518.795601 85.794894 
L 519.366172 84.63789 
L 519.936742 83.476386 
L 520.507312 82.310798 
L 521.077882 81.141539 
L 521.648452 79.969027 
L 522.219022 78.793678 
" style="fill:none;stroke:#0271ae;stroke-linejoin:miter;stroke-opacity:0.1;stroke-width:4;"/>
   </g>
   <g id="line2d_92">
    <path clip-path="url(#p1960b9a0bf)" d="M 522.219022 78.793678 
L 522.789592 77.61591 
L 523.360162 76.436145 
L 523.930732 75.2548 
L 524.501302 74.072297 
L 525.071872 72.889056 
L 525.642443 71.7055 
L 526.213013 70.522049 
L 526.783583 69.339125 
L 527.354153 68.157148 
L 527.924723 66.97654 
" style="fill:none;stroke:#0271ae;stroke-linejoin:miter;stroke-opacity:0.09;stroke-width:4;"/>
   </g>
   <g id="line2d_93">
    <path clip-path="url(#p1960b9a0bf)" d="M 527.924723 66.97654 
L 528.495293 65.797721 
L 529.065863 64.621111 
L 529.636433 63.447128 
L 530.207003 62.27619 
L 530.777573 61.108715 
L 531.348143 59.945117 
L 531.918714 58.785812 
L 532.489284 57.631211 
L 533.059854 56.481726 
L 533.630424 55.337767 
" style="fill:none;stroke:#0271ae;stroke-linejoin:miter;stroke-opacity:0.08;stroke-width:4;"/>
   </g>
   <g id="line2d_94">
    <path clip-path="url(#p1960b9a0bf)" d="M 533.630424 55.337767 
L 534.200994 54.199739 
L 534.771564 53.06805 
L 535.342134 51.9431 
L 535.912704 50.825292 
L 536.483274 49.715022 
L 537.053844 48.612687 
L 537.624414 47.518678 
L 538.194985 46.433385 
L 538.765555 45.357194 
L 539.336125 44.290489 
" style="fill:none;stroke:#0271ae;stroke-linejoin:miter;stroke-opacity:0.07;stroke-width:4;"/>
   </g>
   <g id="line2d_95">
    <path clip-path="url(#p1960b9a0bf)" d="M 539.336125 44.290489 
L 539.906695 43.233649 
L 540.477265 42.187051 
L 541.047835 41.151067 
L 541.618405 40.126066 
L 542.188975 39.112412 
L 542.759545 38.110468 
L 543.330115 37.120588 
L 543.900685 36.143127 
L 544.471255 35.178431 
L 545.041826 34.226845 
" style="fill:none;stroke:#0271ae;stroke-linejoin:miter;stroke-opacity:0.06;stroke-width:4;"/>
   </g>
   <g id="line2d_96">
    <path clip-path="url(#p1960b9a0bf)" d="M 545.041826 34.226845 
L 545.612396 33.288706 
L 546.182966 32.36435 
L 546.753536 31.454104 
L 547.324106 30.558294 
L 547.894676 29.677238 
L 548.465246 28.811249 
L 549.035816 27.960637 
L 549.606386 27.125703 
L 550.176956 26.306745 
L 550.747526 25.504055 
" style="fill:none;stroke:#0271ae;stroke-linejoin:miter;stroke-opacity:0.05;stroke-width:4;"/>
   </g>
   <g id="line2d_97">
    <path clip-path="url(#p1960b9a0bf)" d="M 550.747526 25.504055 
L 551.318097 24.717918 
L 551.888667 23.948615 
L 552.459237 23.196419 
L 553.029807 22.461597 
L 553.600377 21.744412 
L 554.170947 21.045119 
L 554.741517 20.363967 
L 555.312087 19.701198 
L 555.882657 19.057048 
L 556.453227 18.431747 
" style="fill:none;stroke:#0271ae;stroke-linejoin:miter;stroke-opacity:0.04;stroke-width:4;"/>
   </g>
   <g id="line2d_98">
    <path clip-path="url(#p1960b9a0bf)" d="M 556.453227 18.431747 
L 557.023797 17.825516 
L 557.594368 17.238573 
L 558.164938 16.671126 
L 558.735508 16.123377 
L 559.306078 15.595521 
L 559.876648 15.087745 
L 560.447218 14.600232 
L 561.017788 14.133153 
L 561.588358 13.686676 
L 562.158928 13.260959 
" style="fill:none;stroke:#0271ae;stroke-linejoin:miter;stroke-opacity:0.03;stroke-width:4;"/>
   </g>
   <g id="line2d_99">
    <path clip-path="url(#p1960b9a0bf)" d="M 562.158928 13.260959 
L 562.729498 12.856155 
L 563.300068 12.472406 
L 563.870639 12.109851 
L 564.441209 11.768617 
L 565.011779 11.448826 
L 565.582349 11.150592 
L 566.152919 10.874022 
L 566.723489 10.619214 
L 567.294059 10.386258 
L 567.864629 10.175237 
" style="fill:none;stroke:#0271ae;stroke-linejoin:miter;stroke-opacity:0.02;stroke-width:4;"/>
   </g>
   <g id="line2d_100">
    <path clip-path="url(#p1960b9a0bf)" d="M 567.864629 10.175237 
L 568.435199 9.986227 
L 569.005769 9.819295 
L 569.576339 9.6745 
L 570.14691 9.551894 
L 570.71748 9.45152 
L 571.28805 9.373415 
L 571.85862 9.317605 
L 572.42919 9.284111 
L 572.99976 9.272945 
" style="fill:none;stroke:#0271ae;stroke-linejoin:miter;stroke-opacity:0.01;stroke-width:4;"/>
   </g>
   <g id="line2d_101">
    <path clip-path="url(#p1960b9a0bf)" d="M 3.00024 9.272945 
L 12.047851 9.272945 
L 12.047851 12.059794 
L 21.095463 12.059794 
L 21.095463 20.172718 
L 30.143074 20.172718 
L 30.143074 32.890847 
L 39.190686 32.890847 
L 39.190686 49.084119 
L 48.238297 49.084119 
L 48.238297 67.313693 
L 57.285909 67.313693 
L 57.285909 85.959789 
L 66.33352 85.959789 
L 66.33352 103.365621 
L 75.381131 103.365621 
L 75.381131 117.984604 
L 84.428743 117.984604 
L 84.428743 128.517777 
L 93.476354 128.517777 
L 93.476354 134.029221 
" style="fill:none;"/>
    <defs>
     <path d="M -2.5 2.5 
L 2.5 2.5 
L 2.5 -2.5 
L -2.5 -2.5 
z
" id="m57a314a775"/>
    </defs>
    <g clip-path="url(#p1960b9a0bf)">
     <use style="fill:#dc2830;fill-opacity:0;" x="3.00024" xlink:href="#m57a314a775" y="9.272945"/>
     <use style="fill:#dc2830;fill-opacity:0;" x="12.047851" xlink:href="#m57a314a775" y="12.059794"/>
     <use style="fill:#dc2830;fill-opacity:0;" x="21.095463" xlink:href="#m57a314a775" y="20.172718"/>
     <use style="fill:#dc2830;fill-opacity:0;" x="30.143074" xlink:href="#m57a314a775" y="32.890847"/>
     <use style="fill:#dc2830;fill-opacity:0;" x="39.190686" xlink:href="#m57a314a775" y="49.084119"/>
     <use style="fill:#dc2830;fill-opacity:0;" x="48.238297" xlink:href="#m57a314a775" y="67.313693"/>
     <use style="fill:#dc2830;fill-opacity:0;" x="57.285909" xlink:href="#m57a314a775" y="85.959789"/>
     <use style="fill:#dc2830;fill-opacity:0;" x="66.33352" xlink:href="#m57a314a775" y="103.365621"/>
     <use style="fill:#dc2830;fill-opacity:0;" x="75.381131" xlink:href="#m57a314a775" y="117.984604"/>
     <use style="fill:#dc2830;fill-opacity:0;" x="84.428743" xlink:href="#m57a314a775" y="128.517777"/>
     <use style="fill:#dc2830;fill-opacity:0;" x="93.476354" xlink:href="#m57a314a775" y="134.029221"/>
    </g>
   </g>
   <g id="line2d_102">
    <path clip-path="url(#p1960b9a0bf)" d="M 75.381131 117.984604 
L 84.428743 117.984604 
L 84.428743 128.517777 
L 93.476354 128.517777 
L 93.476354 134.029221 
L 102.523966 134.029221 
L 102.523966 134.029221 
L 111.571577 134.029221 
L 111.571577 128.517777 
L 120.619189 128.517777 
L 120.619189 117.984604 
L 129.6668 117.984604 
L 129.6668 103.365621 
L 138.714411 103.365621 
L 138.714411 85.959789 
L 147.762023 85.959789 
L 147.762023 67.313693 
L 156.809634 67.313693 
L 156.809634 49.084119 
L 165.857246 49.084119 
L 165.857246 32.890847 
" style="fill:none;"/>
    <defs>
     <path d="M -2.5 2.5 
L 2.5 2.5 
L 2.5 -2.5 
L -2.5 -2.5 
z
" id="m7d9913a5e9"/>
    </defs>
    <g clip-path="url(#p1960b9a0bf)">
     <use style="fill:#dc2830;fill-opacity:0.125;" x="75.381131" xlink:href="#m7d9913a5e9" y="117.984604"/>
     <use style="fill:#dc2830;fill-opacity:0.125;" x="84.428743" xlink:href="#m7d9913a5e9" y="128.517777"/>
     <use style="fill:#dc2830;fill-opacity:0.125;" x="93.476354" xlink:href="#m7d9913a5e9" y="134.029221"/>
     <use style="fill:#dc2830;fill-opacity:0.125;" x="102.523966" xlink:href="#m7d9913a5e9" y="134.029221"/>
     <use style="fill:#dc2830;fill-opacity:0.125;" x="111.571577" xlink:href="#m7d9913a5e9" y="128.517777"/>
     <use style="fill:#dc2830;fill-opacity:0.125;" x="120.619189" xlink:href="#m7d9913a5e9" y="117.984604"/>
     <use style="fill:#dc2830;fill-opacity:0.125;" x="129.6668" xlink:href="#m7d9913a5e9" y="103.365621"/>
     <use style="fill:#dc2830;fill-opacity:0.125;" x="138.714411" xlink:href="#m7d9913a5e9" y="85.959789"/>
     <use style="fill:#dc2830;fill-opacity:0.125;" x="147.762023" xlink:href="#m7d9913a5e9" y="67.313693"/>
     <use style="fill:#dc2830;fill-opacity:0.125;" x="156.809634" xlink:href="#m7d9913a5e9" y="49.084119"/>
     <use style="fill:#dc2830;fill-opacity:0.125;" x="165.857246" xlink:href="#m7d9913a5e9" y="32.890847"/>
    </g>
   </g>
   <g id="line2d_103">
    <path clip-path="url(#p1960b9a0bf)" d="M 147.762023 67.313693 
L 156.809634 67.313693 
L 156.809634 49.084119 
L 165.857246 49.084119 
L 165.857246 32.890847 
L 174.904857 32.890847 
L 174.904857 20.172718 
L 183.952469 20.172718 
L 183.952469 12.059794 
L 193.00008 12.059794 
L 193.00008 9.272945 
L 202.047691 9.272945 
L 202.047691 12.059794 
L 211.095303 12.059794 
L 211.095303 20.172718 
L 220.142914 20.172718 
L 220.142914 32.890847 
L 229.190526 32.890847 
L 229.190526 49.084119 
L 238.238137 49.084119 
L 238.238137 67.313693 
" style="fill:none;"/>
    <defs>
     <path d="M -2.5 2.5 
L 2.5 2.5 
L 2.5 -2.5 
L -2.5 -2.5 
z
" id="m65b6f015d3"/>
    </defs>
    <g clip-path="url(#p1960b9a0bf)">
     <use style="fill:#dc2830;fill-opacity:0.25;" x="147.762023" xlink:href="#m65b6f015d3" y="67.313693"/>
     <use style="fill:#dc2830;fill-opacity:0.25;" x="156.809634" xlink:href="#m65b6f015d3" y="49.084119"/>
     <use style="fill:#dc2830;fill-opacity:0.25;" x="165.857246" xlink:href="#m65b6f015d3" y="32.890847"/>
     <use style="fill:#dc2830;fill-opacity:0.25;" x="174.904857" xlink:href="#m65b6f015d3" y="20.172718"/>
     <use style="fill:#dc2830;fill-opacity:0.25;" x="183.952469" xlink:href="#m65b6f015d3" y="12.059794"/>
     <use style="fill:#dc2830;fill-opacity:0.25;" x="193.00008" xlink:href="#m65b6f015d3" y="9.272945"/>
     <use style="fill:#dc2830;fill-opacity:0.25;" x="202.047691" xlink:href="#m65b6f015d3" y="12.059794"/>
     <use style="fill:#dc2830;fill-opacity:0.25;" x="211.095303" xlink:href="#m65b6f015d3" y="20.172718"/>
     <use style="fill:#dc2830;fill-opacity:0.25;" x="220.142914" xlink:href="#m65b6f015d3" y="32.890847"/>
     <use style="fill:#dc2830;fill-opacity:0.25;" x="229.190526" xlink:href="#m65b6f015d3" y="49.084119"/>
     <use style="fill:#dc2830;fill-opacity:0.25;" x="238.238137" xlink:href="#m65b6f015d3" y="67.313693"/>
    </g>
   </g>
   <g id="line2d_104">
    <path clip-path="url(#p1960b9a0bf)" d="M 220.142914 32.890847 
L 229.190526 32.890847 
L 229.190526 49.084119 
L 238.238137 49.084119 
L 238.238137 67.313693 
L 247.285749 67.313693 
L 247.285749 85.959789 
L 256.33336 85.959789 
L 256.33336 103.365621 
L 265.380971 103.365621 
L 265.380971 117.984604 
L 274.428583 117.984604 
L 274.428583 128.517777 
L 283.476194 128.517777 
L 283.476194 134.029221 
L 292.523806 134.029221 
L 292.523806 134.029221 
L 301.571417 134.029221 
L 301.571417 128.517777 
L 310.619029 128.517777 
L 310.619029 117.984604 
" style="fill:none;"/>
    <defs>
     <path d="M -2.5 2.5 
L 2.5 2.5 
L 2.5 -2.5 
L -2.5 -2.5 
z
" id="mf93088b8a0"/>
    </defs>
    <g clip-path="url(#p1960b9a0bf)">
     <use style="fill:#dc2830;fill-opacity:0.375;" x="220.142914" xlink:href="#mf93088b8a0" y="32.890847"/>
     <use style="fill:#dc2830;fill-opacity:0.375;" x="229.190526" xlink:href="#mf93088b8a0" y="49.084119"/>
     <use style="fill:#dc2830;fill-opacity:0.375;" x="238.238137" xlink:href="#mf93088b8a0" y="67.313693"/>
     <use style="fill:#dc2830;fill-opacity:0.375;" x="247.285749" xlink:href="#mf93088b8a0" y="85.959789"/>
     <use style="fill:#dc2830;fill-opacity:0.375;" x="256.33336" xlink:href="#mf93088b8a0" y="103.365621"/>
     <use style="fill:#dc2830;fill-opacity:0.375;" x="265.380971" xlink:href="#mf93088b8a0" y="117.984604"/>
     <use style="fill:#dc2830;fill-opacity:0.375;" x="274.428583" xlink:href="#mf93088b8a0" y="128.517777"/>
     <use style="fill:#dc2830;fill-opacity:0.375;" x="283.476194" xlink:href="#mf93088b8a0" y="134.029221"/>
     <use style="fill:#dc2830;fill-opacity:0.375;" x="292.523806" xlink:href="#mf93088b8a0" y="134.029221"/>
     <use style="fill:#dc2830;fill-opacity:0.375;" x="301.571417" xlink:href="#mf93088b8a0" y="128.517777"/>
     <use style="fill:#dc2830;fill-opacity:0.375;" x="310.619029" xlink:href="#mf93088b8a0" y="117.984604"/>
    </g>
   </g>
   <g id="line2d_105">
    <path clip-path="url(#p1960b9a0bf)" d="M 292.523806 134.029221 
L 301.571417 134.029221 
L 301.571417 128.517777 
L 310.619029 128.517777 
L 310.619029 117.984604 
L 319.66664 117.984604 
L 319.66664 103.365621 
L 328.714251 103.365621 
L 328.714251 85.959789 
L 337.761863 85.959789 
L 337.761863 67.313693 
L 346.809474 67.313693 
L 346.809474 49.084119 
L 355.857086 49.084119 
L 355.857086 32.890847 
L 364.904697 32.890847 
L 364.904697 20.172718 
L 373.952309 20.172718 
L 373.952309 12.059794 
L 382.99992 12.059794 
L 382.99992 9.272945 
" style="fill:none;"/>
    <defs>
     <path d="M -2.5 2.5 
L 2.5 2.5 
L 2.5 -2.5 
L -2.5 -2.5 
z
" id="m35edb4b833"/>
    </defs>
    <g clip-path="url(#p1960b9a0bf)">
     <use style="fill:#dc2830;fill-opacity:0.5;" x="292.523806" xlink:href="#m35edb4b833" y="134.029221"/>
     <use style="fill:#dc2830;fill-opacity:0.5;" x="301.571417" xlink:href="#m35edb4b833" y="128.517777"/>
     <use style="fill:#dc2830;fill-opacity:0.5;" x="310.619029" xlink:href="#m35edb4b833" y="117.984604"/>
     <use style="fill:#dc2830;fill-opacity:0.5;" x="319.66664" xlink:href="#m35edb4b833" y="103.365621"/>
     <use style="fill:#dc2830;fill-opacity:0.5;" x="328.714251" xlink:href="#m35edb4b833" y="85.959789"/>
     <use style="fill:#dc2830;fill-opacity:0.5;" x="337.761863" xlink:href="#m35edb4b833" y="67.313693"/>
     <use style="fill:#dc2830;fill-opacity:0.5;" x="346.809474" xlink:href="#m35edb4b833" y="49.084119"/>
     <use style="fill:#dc2830;fill-opacity:0.5;" x="355.857086" xlink:href="#m35edb4b833" y="32.890847"/>
     <use style="fill:#dc2830;fill-opacity:0.5;" x="364.904697" xlink:href="#m35edb4b833" y="20.172718"/>
     <use style="fill:#dc2830;fill-opacity:0.5;" x="373.952309" xlink:href="#m35edb4b833" y="12.059794"/>
     <use style="fill:#dc2830;fill-opacity:0.5;" x="382.99992" xlink:href="#m35edb4b833" y="9.272945"/>
    </g>
   </g>
   <g id="line2d_106">
    <path clip-path="url(#p1960b9a0bf)" d="M 364.904697 20.172718 
L 373.952309 20.172718 
L 373.952309 12.059794 
L 382.99992 12.059794 
L 382.99992 9.272945 
L 392.047531 9.272945 
L 392.047531 12.059794 
L 401.095143 12.059794 
L 401.095143 20.172718 
L 410.142754 20.172718 
L 410.142754 32.890847 
L 419.190366 32.890847 
L 419.190366 49.084119 
L 428.237977 49.084119 
L 428.237977 67.313693 
L 437.285589 67.313693 
L 437.285589 85.959789 
L 446.3332 85.959789 
L 446.3332 103.365621 
L 455.380811 103.365621 
L 455.380811 117.984604 
" style="fill:none;"/>
    <defs>
     <path d="M -2.5 2.5 
L 2.5 2.5 
L 2.5 -2.5 
L -2.5 -2.5 
z
" id="m45bdb9b2ec"/>
    </defs>
    <g clip-path="url(#p1960b9a0bf)">
     <use style="fill:#dc2830;fill-opacity:0.625;" x="364.904697" xlink:href="#m45bdb9b2ec" y="20.172718"/>
     <use style="fill:#dc2830;fill-opacity:0.625;" x="373.952309" xlink:href="#m45bdb9b2ec" y="12.059794"/>
     <use style="fill:#dc2830;fill-opacity:0.625;" x="382.99992" xlink:href="#m45bdb9b2ec" y="9.272945"/>
     <use style="fill:#dc2830;fill-opacity:0.625;" x="392.047531" xlink:href="#m45bdb9b2ec" y="12.059794"/>
     <use style="fill:#dc2830;fill-opacity:0.625;" x="401.095143" xlink:href="#m45bdb9b2ec" y="20.172718"/>
     <use style="fill:#dc2830;fill-opacity:0.625;" x="410.142754" xlink:href="#m45bdb9b2ec" y="32.890847"/>
     <use style="fill:#dc2830;fill-opacity:0.625;" x="419.190366" xlink:href="#m45bdb9b2ec" y="49.084119"/>
     <use style="fill:#dc2830;fill-opacity:0.625;" x="428.237977" xlink:href="#m45bdb9b2ec" y="67.313693"/>
     <use style="fill:#dc2830;fill-opacity:0.625;" x="437.285589" xlink:href="#m45bdb9b2ec" y="85.959789"/>
     <use style="fill:#dc2830;fill-opacity:0.625;" x="446.3332" xlink:href="#m45bdb9b2ec" y="103.365621"/>
     <use style="fill:#dc2830;fill-opacity:0.625;" x="455.380811" xlink:href="#m45bdb9b2ec" y="117.984604"/>
    </g>
   </g>
   <g id="line2d_107">
    <path clip-path="url(#p1960b9a0bf)" d="M 437.285589 85.959789 
L 446.3332 85.959789 
L 446.3332 103.365621 
L 455.380811 103.365621 
L 455.380811 117.984604 
L 464.428423 117.984604 
L 464.428423 128.517777 
L 473.476034 128.517777 
L 473.476034 134.029221 
L 482.523646 134.029221 
L 482.523646 134.029221 
L 491.571257 134.029221 
L 491.571257 128.517777 
L 500.618869 128.517777 
L 500.618869 117.984604 
L 509.66648 117.984604 
L 509.66648 103.365621 
L 518.714091 103.365621 
L 518.714091 85.959789 
L 527.761703 85.959789 
L 527.761703 67.313693 
" style="fill:none;"/>
    <defs>
     <path d="M -2.5 2.5 
L 2.5 2.5 
L 2.5 -2.5 
L -2.5 -2.5 
z
" id="mc151680ba6"/>
    </defs>
    <g clip-path="url(#p1960b9a0bf)">
     <use style="fill:#dc2830;fill-opacity:0.75;" x="437.285589" xlink:href="#mc151680ba6" y="85.959789"/>
     <use style="fill:#dc2830;fill-opacity:0.75;" x="446.3332" xlink:href="#mc151680ba6" y="103.365621"/>
     <use style="fill:#dc2830;fill-opacity:0.75;" x="455.380811" xlink:href="#mc151680ba6" y="117.984604"/>
     <use style="fill:#dc2830;fill-opacity:0.75;" x="464.428423" xlink:href="#mc151680ba6" y="128.517777"/>
     <use style="fill:#dc2830;fill-opacity:0.75;" x="473.476034" xlink:href="#mc151680ba6" y="134.029221"/>
     <use style="fill:#dc2830;fill-opacity:0.75;" x="482.523646" xlink:href="#mc151680ba6" y="134.029221"/>
     <use style="fill:#dc2830;fill-opacity:0.75;" x="491.571257" xlink:href="#mc151680ba6" y="128.517777"/>
     <use style="fill:#dc2830;fill-opacity:0.75;" x="500.618869" xlink:href="#mc151680ba6" y="117.984604"/>
     <use style="fill:#dc2830;fill-opacity:0.75;" x="509.66648" xlink:href="#mc151680ba6" y="103.365621"/>
     <use style="fill:#dc2830;fill-opacity:0.75;" x="518.714091" xlink:href="#mc151680ba6" y="85.959789"/>
     <use style="fill:#dc2830;fill-opacity:0.75;" x="527.761703" xlink:href="#mc151680ba6" y="67.313693"/>
    </g>
   </g>
   <g id="line2d_108">
    <path clip-path="url(#p1960b9a0bf)" d="M 509.66648 103.365621 
L 518.714091 103.365621 
L 518.714091 85.959789 
L 527.761703 85.959789 
L 527.761703 67.313693 
L 536.809314 67.313693 
L 536.809314 49.084119 
L 545.856926 49.084119 
L 545.856926 32.890847 
L 554.904537 32.890847 
L 554.904537 20.172718 
L 563.952149 20.172718 
L 563.952149 12.059794 
L 572.99976 12.059794 
L 572.99976 9.272945 
" style="fill:none;"/>
    <defs>
     <path d="M -2.5 2.5 
L 2.5 2.5 
L 2.5 -2.5 
L -2.5 -2.5 
z
" id="meb9e278f96"/>
    </defs>
    <g clip-path="url(#p1960b9a0bf)">
     <use style="fill:#dc2830;fill-opacity:0.875;" x="509.66648" xlink:href="#meb9e278f96" y="103.365621"/>
     <use style="fill:#dc2830;fill-opacity:0.875;" x="518.714091" xlink:href="#meb9e278f96" y="85.959789"/>
     <use style="fill:#dc2830;fill-opacity:0.875;" x="527.761703" xlink:href="#meb9e278f96" y="67.313693"/>
     <use style="fill:#dc2830;fill-opacity:0.875;" x="536.809314" xlink:href="#meb9e278f96" y="49.084119"/>
     <use style="fill:#dc2830;fill-opacity:0.875;" x="545.856926" xlink:href="#meb9e278f96" y="32.890847"/>
     <use style="fill:#dc2830;fill-opacity:0.875;" x="554.904537" xlink:href="#meb9e278f96" y="20.172718"/>
     <use style="fill:#dc2830;fill-opacity:0.875;" x="563.952149" xlink:href="#meb9e278f96" y="12.059794"/>
     <use style="fill:#dc2830;fill-opacity:0.875;" x="572.99976" xlink:href="#meb9e278f96" y="9.272945"/>
    </g>
   </g>
  </g>
 </g>
 <defs>
  <clipPath id="p1960b9a0bf">
   <rect height="137.99952" width="569.99952" x="3.00024" y="3.00024"/>
  </clipPath>
 </defs>
</svg>
