<?xml version="1.0" encoding="utf-8" standalone="no"?>
<!DOCTYPE svg PUBLIC "-//W3C//DTD SVG 1.1//EN"
  "http://www.w3.org/Graphics/SVG/1.1/DTD/svg11.dtd">
<svg xmlns:xlink="http://www.w3.org/1999/xlink" width="432.432432pt" height="144pt" viewBox="0 0 432.432432 144" xmlns="http://www.w3.org/2000/svg" version="1.1">
 <metadata>
  <rdf:RDF xmlns:dc="http://purl.org/dc/elements/1.1/" xmlns:cc="http://creativecommons.org/ns#" xmlns:rdf="http://www.w3.org/1999/02/22-rdf-syntax-ns#">
   <cc:Work>
    <dc:type rdf:resource="http://purl.org/dc/dcmitype/StillImage"/>
    <dc:date>2022-06-16T16:37:02.911802</dc:date>
    <dc:format>image/svg+xml</dc:format>
    <dc:creator>
     <cc:Agent>
      <dc:title>Matplotlib v3.5.2, https://matplotlib.org/</dc:title>
     </cc:Agent>
    </dc:creator>
   </cc:Work>
  </rdf:RDF>
 </metadata>
 <defs>
  <style type="text/css">*{stroke-linejoin: round; stroke-linecap: butt}</style>
 </defs>
 <g id="figure_1">
  <g id="patch_1">
   <path d="M 0 144 
L 432.432432 144 
L 432.432432 0 
L 0 0 
L 0 144 
z
" style="fill: none"/>
  </g>
  <g id="axes_1">
   <g id="patch_2">
    <path d="M 3.00024 140.99976 
L 429.432192 140.99976 
L 429.432192 3.00024 
L 3.00024 3.00024 
L 3.00024 140.99976 
z
" style="fill: none"/>
   </g>
   <g id="matplotlib.axis_1"/>
   <g id="matplotlib.axis_2"/>
   <g id="line2d_1">
    <path d="M 3.00024 9.272945 
L 3.427099 9.284111 
L 3.853958 9.317605 
L 4.280816 9.373415 
L 4.707675 9.45152 
L 5.134534 9.551894 
L 5.561393 9.6745 
L 5.988252 9.819295 
L 6.41511 9.986227 
L 6.841969 10.175237 
L 7.268828 10.386258 
" clip-path="url(#p6f86ee657d)" style="fill: none; stroke: #0271ae; stroke-width: 4"/>
   </g>
   <g id="line2d_2">
    <path d="M 7.268828 10.386258 
L 7.695687 10.619214 
L 8.122546 10.874022 
L 8.549405 11.150592 
L 8.976263 11.448826 
L 9.403122 11.768617 
L 9.829981 12.109851 
L 10.25684 12.472406 
L 10.683699 12.856155 
L 11.110557 13.260959 
L 11.537416 13.686676 
" clip-path="url(#p6f86ee657d)" style="fill: none; stroke: #0271ae; stroke-opacity: 0.99; stroke-width: 4"/>
   </g>
   <g id="line2d_3">
    <path d="M 11.537416 13.686676 
L 11.964275 14.133153 
L 12.391134 14.600232 
L 12.817993 15.087745 
L 13.244851 15.595521 
L 13.67171 16.123377 
L 14.098569 16.671126 
L 14.525428 17.238573 
L 14.952287 17.825516 
L 15.379146 18.431747 
L 15.806004 19.057048 
" clip-path="url(#p6f86ee657d)" style="fill: none; stroke: #0271ae; stroke-opacity: 0.98; stroke-width: 4"/>
   </g>
   <g id="line2d_4">
    <path d="M 15.806004 19.057048 
L 16.232863 19.701198 
L 16.659722 20.363967 
L 17.086581 21.045119 
L 17.51344 21.744412 
L 17.940298 22.461597 
L 18.367157 23.196419 
L 18.794016 23.948615 
L 19.220875 24.717918 
L 19.647734 25.504055 
L 20.074592 26.306745 
" clip-path="url(#p6f86ee657d)" style="fill: none; stroke: #0271ae; stroke-opacity: 0.97; stroke-width: 4"/>
   </g>
   <g id="line2d_5">
    <path d="M 20.074592 26.306745 
L 20.501451 27.125703 
L 20.92831 27.960637 
L 21.355169 28.811249 
L 21.782028 29.677238 
L 22.208887 30.558294 
L 22.635745 31.454104 
L 23.062604 32.36435 
L 23.489463 33.288706 
L 23.916322 34.226845 
L 24.343181 35.178431 
" clip-path="url(#p6f86ee657d)" style="fill: none; stroke: #0271ae; stroke-opacity: 0.96; stroke-width: 4"/>
   </g>
   <g id="line2d_6">
    <path d="M 24.343181 35.178431 
L 24.770039 36.143127 
L 25.196898 37.120588 
L 25.623757 38.110468 
L 26.050616 39.112412 
L 26.477475 40.126066 
L 26.904333 41.151067 
L 27.331192 42.187051 
L 27.758051 43.233649 
L 28.18491 44.290489 
L 28.611769 45.357194 
" clip-path="url(#p6f86ee657d)" style="fill: none; stroke: #0271ae; stroke-opacity: 0.95; stroke-width: 4"/>
   </g>
   <g id="line2d_7">
    <path d="M 28.611769 45.357194 
L 29.038627 46.433385 
L 29.465486 47.518678 
L 29.892345 48.612687 
L 30.319204 49.715022 
L 30.746063 50.825292 
L 31.172922 51.9431 
L 31.59978 53.06805 
L 32.026639 54.199739 
L 32.453498 55.337767 
L 32.880357 56.481726 
" clip-path="url(#p6f86ee657d)" style="fill: none; stroke: #0271ae; stroke-opacity: 0.94; stroke-width: 4"/>
   </g>
   <g id="line2d_8">
    <path d="M 32.880357 56.481726 
L 33.307216 57.631211 
L 33.734074 58.785812 
L 34.160933 59.945117 
L 34.587792 61.108715 
L 35.014651 62.27619 
L 35.44151 63.447128 
L 35.868368 64.621111 
L 36.295227 65.797721 
L 36.722086 66.97654 
L 37.148945 68.157148 
" clip-path="url(#p6f86ee657d)" style="fill: none; stroke: #0271ae; stroke-opacity: 0.93; stroke-width: 4"/>
   </g>
   <g id="line2d_9">
    <path d="M 37.148945 68.157148 
L 37.575804 69.339125 
L 38.002663 70.522049 
L 38.429521 71.7055 
L 38.85638 72.889056 
L 39.283239 74.072297 
L 39.710098 75.2548 
L 40.136957 76.436145 
L 40.563815 77.61591 
L 40.990674 78.793678 
L 41.417533 79.969027 
" clip-path="url(#p6f86ee657d)" style="fill: none; stroke: #0271ae; stroke-opacity: 0.92; stroke-width: 4"/>
   </g>
   <g id="line2d_10">
    <path d="M 41.417533 79.969027 
L 41.844392 81.141539 
L 42.271251 82.310798 
L 42.698109 83.476386 
L 43.124968 84.63789 
L 43.551827 85.794894 
L 43.978686 86.946988 
L 44.405545 88.093761 
L 44.832404 89.234805 
L 45.259262 90.369714 
L 45.686121 91.498084 
" clip-path="url(#p6f86ee657d)" style="fill: none; stroke: #0271ae; stroke-opacity: 0.91; stroke-width: 4"/>
   </g>
   <g id="line2d_11">
    <path d="M 45.686121 91.498084 
L 46.11298 92.619513 
L 46.539839 93.733602 
L 46.966698 94.839953 
L 47.393556 95.938175 
L 47.820415 97.027874 
L 48.247274 98.108664 
L 48.674133 99.180159 
L 49.100992 100.241979 
L 49.52785 101.293745 
L 49.954709 102.335082 
" clip-path="url(#p6f86ee657d)" style="fill: none; stroke: #0271ae; stroke-opacity: 0.9; stroke-width: 4"/>
   </g>
   <g id="line2d_12">
    <path d="M 49.954709 102.335082 
L 50.381568 103.365621 
L 50.808427 104.384994 
L 51.235286 105.392837 
L 51.662144 106.388794 
L 52.089003 107.372508 
L 52.515862 108.34363 
L 52.942721 109.301813 
L 53.36958 110.246718 
L 53.796439 111.178007 
L 54.223297 112.095349 
" clip-path="url(#p6f86ee657d)" style="fill: none; stroke: #0271ae; stroke-opacity: 0.89; stroke-width: 4"/>
   </g>
   <g id="line2d_13">
    <path d="M 54.223297 112.095349 
L 54.650156 112.998417 
L 55.077015 113.886889 
L 55.503874 114.760451 
L 55.930733 115.61879 
L 56.357591 116.4616 
L 56.78445 117.288583 
L 57.211309 118.099443 
L 57.638168 118.893892 
L 58.065027 119.671646 
L 58.491885 120.43243 
" clip-path="url(#p6f86ee657d)" style="fill: none; stroke: #0271ae; stroke-opacity: 0.88; stroke-width: 4"/>
   </g>
   <g id="line2d_14">
    <path d="M 58.491885 120.43243 
L 58.918744 121.175972 
L 59.345603 121.902008 
L 59.772462 122.610278 
L 60.199321 123.300532 
L 60.62618 123.972522 
L 61.053038 124.626011 
L 61.479897 125.260764 
L 61.906756 125.876558 
L 62.333615 126.473171 
L 62.760474 127.050392 
" clip-path="url(#p6f86ee657d)" style="fill: none; stroke: #0271ae; stroke-opacity: 0.87; stroke-width: 4"/>
   </g>
   <g id="line2d_15">
    <path d="M 62.760474 127.050392 
L 63.187332 127.608015 
L 63.614191 128.145841 
L 64.04105 128.66368 
L 64.467909 129.161347 
L 64.894768 129.638664 
L 65.321626 130.095462 
L 65.748485 130.531579 
L 66.175344 130.946858 
L 66.602203 131.341152 
L 67.029062 131.71432 
" clip-path="url(#p6f86ee657d)" style="fill: none; stroke: #0271ae; stroke-opacity: 0.86; stroke-width: 4"/>
   </g>
   <g id="line2d_16">
    <path d="M 67.029062 131.71432 
L 67.45592 132.066231 
L 67.882779 132.396758 
L 68.309638 132.705784 
L 68.736497 132.993199 
L 69.163356 133.2589 
L 69.590215 133.502793 
L 70.017073 133.724791 
L 70.443932 133.924815 
L 70.870791 134.102794 
L 71.29765 134.258665 
" clip-path="url(#p6f86ee657d)" style="fill: none; stroke: #0271ae; stroke-opacity: 0.85; stroke-width: 4"/>
   </g>
   <g id="line2d_17">
    <path d="M 71.29765 134.258665 
L 71.724509 134.392371 
L 72.151367 134.503866 
L 72.578226 134.59311 
L 73.005085 134.66007 
L 73.431944 134.704724 
L 73.858803 134.727055 
L 74.285661 134.727055 
L 74.71252 134.704724 
L 75.139379 134.66007 
L 75.566238 134.59311 
" clip-path="url(#p6f86ee657d)" style="fill: none; stroke: #0271ae; stroke-opacity: 0.84; stroke-width: 4"/>
   </g>
   <g id="line2d_18">
    <path d="M 75.566238 134.59311 
L 75.993097 134.503866 
L 76.419956 134.392371 
L 76.846814 134.258665 
L 77.273673 134.102794 
L 77.700532 133.924815 
L 78.127391 133.724791 
L 78.55425 133.502793 
L 78.981108 133.2589 
L 79.407967 132.993199 
L 79.834826 132.705784 
" clip-path="url(#p6f86ee657d)" style="fill: none; stroke: #0271ae; stroke-opacity: 0.83; stroke-width: 4"/>
   </g>
   <g id="line2d_19">
    <path d="M 79.834826 132.705784 
L 80.261685 132.396758 
L 80.688544 132.066231 
L 81.115402 131.71432 
L 81.542261 131.341152 
L 81.96912 130.946858 
L 82.395979 130.531579 
L 82.822838 130.095462 
L 83.249697 129.638664 
L 83.676555 129.161347 
L 84.103414 128.66368 
" clip-path="url(#p6f86ee657d)" style="fill: none; stroke: #0271ae; stroke-opacity: 0.82; stroke-width: 4"/>
   </g>
   <g id="line2d_20">
    <path d="M 84.103414 128.66368 
L 84.530273 128.145841 
L 84.957132 127.608015 
L 85.383991 127.050392 
L 85.810849 126.473171 
L 86.237708 125.876558 
L 86.664567 125.260764 
L 87.091426 124.626011 
L 87.518285 123.972522 
L 87.945143 123.300532 
L 88.372002 122.610278 
" clip-path="url(#p6f86ee657d)" style="fill: none; stroke: #0271ae; stroke-opacity: 0.81; stroke-width: 4"/>
   </g>
   <g id="line2d_21">
    <path d="M 88.372002 122.610278 
L 88.798861 121.902008 
L 89.22572 121.175972 
L 89.652579 120.43243 
L 90.079437 119.671646 
L 90.506296 118.893892 
L 90.933155 118.099443 
L 91.360014 117.288583 
L 91.786873 116.4616 
L 92.213732 115.61879 
L 92.64059 114.760451 
" clip-path="url(#p6f86ee657d)" style="fill: none; stroke: #0271ae; stroke-opacity: 0.8; stroke-width: 4"/>
   </g>
   <g id="line2d_22">
    <path d="M 92.64059 114.760451 
L 93.067449 113.886889 
L 93.494308 112.998417 
L 93.921167 112.095349 
L 94.348026 111.178007 
L 94.774884 110.246718 
L 95.201743 109.301813 
L 95.628602 108.34363 
L 96.055461 107.372508 
L 96.48232 106.388794 
L 96.909178 105.392837 
" clip-path="url(#p6f86ee657d)" style="fill: none; stroke: #0271ae; stroke-opacity: 0.79; stroke-width: 4"/>
   </g>
   <g id="line2d_23">
    <path d="M 96.909178 105.392837 
L 97.336037 104.384994 
L 97.762896 103.365621 
L 98.189755 102.335082 
L 98.616614 101.293745 
L 99.043473 100.241979 
L 99.470331 99.180159 
L 99.89719 98.108664 
L 100.324049 97.027874 
L 100.750908 95.938175 
L 101.177767 94.839953 
" clip-path="url(#p6f86ee657d)" style="fill: none; stroke: #0271ae; stroke-opacity: 0.78; stroke-width: 4"/>
   </g>
   <g id="line2d_24">
    <path d="M 101.177767 94.839953 
L 101.604625 93.733602 
L 102.031484 92.619513 
L 102.458343 91.498084 
L 102.885202 90.369714 
L 103.312061 89.234805 
L 103.738919 88.093761 
L 104.165778 86.946988 
L 104.592637 85.794894 
L 105.019496 84.63789 
L 105.446355 83.476386 
" clip-path="url(#p6f86ee657d)" style="fill: none; stroke: #0271ae; stroke-opacity: 0.77; stroke-width: 4"/>
   </g>
   <g id="line2d_25">
    <path d="M 105.446355 83.476386 
L 105.873214 82.310798 
L 106.300072 81.141539 
L 106.726931 79.969027 
L 107.15379 78.793678 
L 107.580649 77.61591 
L 108.007508 76.436145 
L 108.434366 75.2548 
L 108.861225 74.072297 
L 109.288084 72.889056 
L 109.714943 71.7055 
" clip-path="url(#p6f86ee657d)" style="fill: none; stroke: #0271ae; stroke-opacity: 0.76; stroke-width: 4"/>
   </g>
   <g id="line2d_26">
    <path d="M 109.714943 71.7055 
L 110.141802 70.522049 
L 110.56866 69.339125 
L 110.995519 68.157148 
L 111.422378 66.97654 
L 111.849237 65.797721 
L 112.276096 64.621111 
L 112.702954 63.447128 
L 113.129813 62.27619 
L 113.556672 61.108715 
L 113.983531 59.945117 
" clip-path="url(#p6f86ee657d)" style="fill: none; stroke: #0271ae; stroke-opacity: 0.75; stroke-width: 4"/>
   </g>
   <g id="line2d_27">
    <path d="M 113.983531 59.945117 
L 114.41039 58.785812 
L 114.837249 57.631211 
L 115.264107 56.481726 
L 115.690966 55.337767 
L 116.117825 54.199739 
L 116.544684 53.06805 
L 116.971543 51.9431 
L 117.398401 50.825292 
L 117.82526 49.715022 
L 118.252119 48.612687 
" clip-path="url(#p6f86ee657d)" style="fill: none; stroke: #0271ae; stroke-opacity: 0.74; stroke-width: 4"/>
   </g>
   <g id="line2d_28">
    <path d="M 118.252119 48.612687 
L 118.678978 47.518678 
L 119.105837 46.433385 
L 119.532695 45.357194 
L 119.959554 44.290489 
L 120.386413 43.233649 
L 120.813272 42.187051 
L 121.240131 41.151067 
L 121.66699 40.126066 
L 122.093848 39.112412 
L 122.520707 38.110468 
" clip-path="url(#p6f86ee657d)" style="fill: none; stroke: #0271ae; stroke-opacity: 0.73; stroke-width: 4"/>
   </g>
   <g id="line2d_29">
    <path d="M 122.520707 38.110468 
L 122.947566 37.120588 
L 123.374425 36.143127 
L 123.801284 35.178431 
L 124.228142 34.226845 
L 124.655001 33.288706 
L 125.08186 32.36435 
L 125.508719 31.454104 
L 125.935578 30.558294 
L 126.362436 29.677238 
L 126.789295 28.811249 
" clip-path="url(#p6f86ee657d)" style="fill: none; stroke: #0271ae; stroke-opacity: 0.72; stroke-width: 4"/>
   </g>
   <g id="line2d_30">
    <path d="M 126.789295 28.811249 
L 127.216154 27.960637 
L 127.643013 27.125703 
L 128.069872 26.306745 
L 128.496731 25.504055 
L 128.923589 24.717918 
L 129.350448 23.948615 
L 129.777307 23.196419 
L 130.204166 22.461597 
L 130.631025 21.744412 
L 131.057883 21.045119 
" clip-path="url(#p6f86ee657d)" style="fill: none; stroke: #0271ae; stroke-opacity: 0.71; stroke-width: 4"/>
   </g>
   <g id="line2d_31">
    <path d="M 131.057883 21.045119 
L 131.484742 20.363967 
L 131.911601 19.701198 
L 132.33846 19.057048 
L 132.765319 18.431747 
L 133.192177 17.825516 
L 133.619036 17.238573 
L 134.045895 16.671126 
L 134.472754 16.123377 
L 134.899613 15.595521 
L 135.326471 15.087745 
" clip-path="url(#p6f86ee657d)" style="fill: none; stroke: #0271ae; stroke-opacity: 0.7; stroke-width: 4"/>
   </g>
   <g id="line2d_32">
    <path d="M 135.326471 15.087745 
L 135.75333 14.600232 
L 136.180189 14.133153 
L 136.607048 13.686676 
L 137.033907 13.260959 
L 137.460766 12.856155 
L 137.887624 12.472406 
L 138.314483 12.109851 
L 138.741342 11.768617 
L 139.168201 11.448826 
L 139.59506 11.150592 
" clip-path="url(#p6f86ee657d)" style="fill: none; stroke: #0271ae; stroke-opacity: 0.69; stroke-width: 4"/>
   </g>
   <g id="line2d_33">
    <path d="M 139.59506 11.150592 
L 140.021918 10.874022 
L 140.448777 10.619214 
L 140.875636 10.386258 
L 141.302495 10.175237 
L 141.729354 9.986227 
L 142.156212 9.819295 
L 142.583071 9.6745 
L 143.00993 9.551894 
L 143.436789 9.45152 
L 143.863648 9.373415 
" clip-path="url(#p6f86ee657d)" style="fill: none; stroke: #0271ae; stroke-opacity: 0.68; stroke-width: 4"/>
   </g>
   <g id="line2d_34">
    <path d="M 143.863648 9.373415 
L 144.290507 9.317605 
L 144.717365 9.284111 
L 145.144224 9.272945 
L 145.571083 9.284111 
L 145.997942 9.317605 
L 146.424801 9.373415 
L 146.851659 9.45152 
L 147.278518 9.551894 
L 147.705377 9.6745 
L 148.132236 9.819295 
" clip-path="url(#p6f86ee657d)" style="fill: none; stroke: #0271ae; stroke-opacity: 0.67; stroke-width: 4"/>
   </g>
   <g id="line2d_35">
    <path d="M 148.132236 9.819295 
L 148.559095 9.986227 
L 148.985953 10.175237 
L 149.412812 10.386258 
L 149.839671 10.619214 
L 150.26653 10.874022 
L 150.693389 11.150592 
L 151.120248 11.448826 
L 151.547106 11.768617 
L 151.973965 12.109851 
L 152.400824 12.472406 
" clip-path="url(#p6f86ee657d)" style="fill: none; stroke: #0271ae; stroke-opacity: 0.66; stroke-width: 4"/>
   </g>
   <g id="line2d_36">
    <path d="M 152.400824 12.472406 
L 152.827683 12.856155 
L 153.254542 13.260959 
L 153.6814 13.686676 
L 154.108259 14.133153 
L 154.535118 14.600232 
L 154.961977 15.087745 
L 155.388836 15.595521 
L 155.815694 16.123377 
L 156.242553 16.671126 
L 156.669412 17.238573 
" clip-path="url(#p6f86ee657d)" style="fill: none; stroke: #0271ae; stroke-opacity: 0.65; stroke-width: 4"/>
   </g>
   <g id="line2d_37">
    <path d="M 156.669412 17.238573 
L 157.096271 17.825516 
L 157.52313 18.431747 
L 157.949988 19.057048 
L 158.376847 19.701198 
L 158.803706 20.363967 
L 159.230565 21.045119 
L 159.657424 21.744412 
L 160.084283 22.461597 
L 160.511141 23.196419 
L 160.938 23.948615 
" clip-path="url(#p6f86ee657d)" style="fill: none; stroke: #0271ae; stroke-opacity: 0.64; stroke-width: 4"/>
   </g>
   <g id="line2d_38">
    <path d="M 160.938 23.948615 
L 161.364859 24.717918 
L 161.791718 25.504055 
L 162.218577 26.306745 
L 162.645435 27.125703 
L 163.072294 27.960637 
L 163.499153 28.811249 
L 163.926012 29.677238 
L 164.352871 30.558294 
L 164.779729 31.454104 
L 165.206588 32.36435 
" clip-path="url(#p6f86ee657d)" style="fill: none; stroke: #0271ae; stroke-opacity: 0.63; stroke-width: 4"/>
   </g>
   <g id="line2d_39">
    <path d="M 165.206588 32.36435 
L 165.633447 33.288706 
L 166.060306 34.226845 
L 166.487165 35.178431 
L 166.914024 36.143127 
L 167.340882 37.120588 
L 167.767741 38.110468 
L 168.1946 39.112412 
L 168.621459 40.126066 
L 169.048318 41.151067 
L 169.475176 42.187051 
" clip-path="url(#p6f86ee657d)" style="fill: none; stroke: #0271ae; stroke-opacity: 0.62; stroke-width: 4"/>
   </g>
   <g id="line2d_40">
    <path d="M 169.475176 42.187051 
L 169.902035 43.233649 
L 170.328894 44.290489 
L 170.755753 45.357194 
L 171.182612 46.433385 
L 171.60947 47.518678 
L 172.036329 48.612687 
L 172.463188 49.715022 
L 172.890047 50.825292 
L 173.316906 51.9431 
L 173.743764 53.06805 
" clip-path="url(#p6f86ee657d)" style="fill: none; stroke: #0271ae; stroke-opacity: 0.61; stroke-width: 4"/>
   </g>
   <g id="line2d_41">
    <path d="M 173.743764 53.06805 
L 174.170623 54.199739 
L 174.597482 55.337767 
L 175.024341 56.481726 
L 175.4512 57.631211 
L 175.878059 58.785812 
L 176.304917 59.945117 
L 176.731776 61.108715 
L 177.158635 62.27619 
L 177.585494 63.447128 
L 178.012353 64.621111 
" clip-path="url(#p6f86ee657d)" style="fill: none; stroke: #0271ae; stroke-opacity: 0.6; stroke-width: 4"/>
   </g>
   <g id="line2d_42">
    <path d="M 178.012353 64.621111 
L 178.439211 65.797721 
L 178.86607 66.97654 
L 179.292929 68.157148 
L 179.719788 69.339125 
L 180.146647 70.522049 
L 180.573505 71.7055 
L 181.000364 72.889056 
L 181.427223 74.072297 
L 181.854082 75.2548 
L 182.280941 76.436145 
" clip-path="url(#p6f86ee657d)" style="fill: none; stroke: #0271ae; stroke-opacity: 0.59; stroke-width: 4"/>
   </g>
   <g id="line2d_43">
    <path d="M 182.280941 76.436145 
L 182.7078 77.61591 
L 183.134658 78.793678 
L 183.561517 79.969027 
L 183.988376 81.141539 
L 184.415235 82.310798 
L 184.842094 83.476386 
L 185.268952 84.63789 
L 185.695811 85.794894 
L 186.12267 86.946988 
L 186.549529 88.093761 
" clip-path="url(#p6f86ee657d)" style="fill: none; stroke: #0271ae; stroke-opacity: 0.58; stroke-width: 4"/>
   </g>
   <g id="line2d_44">
    <path d="M 186.549529 88.093761 
L 186.976388 89.234805 
L 187.403246 90.369714 
L 187.830105 91.498084 
L 188.256964 92.619513 
L 188.683823 93.733602 
L 189.110682 94.839953 
L 189.537541 95.938175 
L 189.964399 97.027874 
L 190.391258 98.108664 
L 190.818117 99.180159 
" clip-path="url(#p6f86ee657d)" style="fill: none; stroke: #0271ae; stroke-opacity: 0.57; stroke-width: 4"/>
   </g>
   <g id="line2d_45">
    <path d="M 190.818117 99.180159 
L 191.244976 100.241979 
L 191.671835 101.293745 
L 192.098693 102.335082 
L 192.525552 103.365621 
L 192.952411 104.384994 
L 193.37927 105.392837 
L 193.806129 106.388794 
L 194.232987 107.372508 
L 194.659846 108.34363 
L 195.086705 109.301813 
" clip-path="url(#p6f86ee657d)" style="fill: none; stroke: #0271ae; stroke-opacity: 0.56; stroke-width: 4"/>
   </g>
   <g id="line2d_46">
    <path d="M 195.086705 109.301813 
L 195.513564 110.246718 
L 195.940423 111.178007 
L 196.367281 112.095349 
L 196.79414 112.998417 
L 197.220999 113.886889 
L 197.647858 114.760451 
L 198.074717 115.61879 
L 198.501576 116.4616 
L 198.928434 117.288583 
L 199.355293 118.099443 
" clip-path="url(#p6f86ee657d)" style="fill: none; stroke: #0271ae; stroke-opacity: 0.55; stroke-width: 4"/>
   </g>
   <g id="line2d_47">
    <path d="M 199.355293 118.099443 
L 199.782152 118.893892 
L 200.209011 119.671646 
L 200.63587 120.43243 
L 201.062728 121.175972 
L 201.489587 121.902008 
L 201.916446 122.610278 
L 202.343305 123.300532 
L 202.770164 123.972522 
L 203.197022 124.626011 
L 203.623881 125.260764 
" clip-path="url(#p6f86ee657d)" style="fill: none; stroke: #0271ae; stroke-opacity: 0.54; stroke-width: 4"/>
   </g>
   <g id="line2d_48">
    <path d="M 203.623881 125.260764 
L 204.05074 125.876558 
L 204.477599 126.473171 
L 204.904458 127.050392 
L 205.331317 127.608015 
L 205.758175 128.145841 
L 206.185034 128.66368 
L 206.611893 129.161347 
L 207.038752 129.638664 
L 207.465611 130.095462 
L 207.892469 130.531579 
" clip-path="url(#p6f86ee657d)" style="fill: none; stroke: #0271ae; stroke-opacity: 0.53; stroke-width: 4"/>
   </g>
   <g id="line2d_49">
    <path d="M 207.892469 130.531579 
L 208.319328 130.946858 
L 208.746187 131.341152 
L 209.173046 131.71432 
L 209.599905 132.066231 
L 210.026763 132.396758 
L 210.453622 132.705784 
L 210.880481 132.993199 
L 211.30734 133.2589 
L 211.734199 133.502793 
L 212.161058 133.724791 
" clip-path="url(#p6f86ee657d)" style="fill: none; stroke: #0271ae; stroke-opacity: 0.52; stroke-width: 4"/>
   </g>
   <g id="line2d_50">
    <path d="M 212.161058 133.724791 
L 212.587916 133.924815 
L 213.014775 134.102794 
L 213.441634 134.258665 
L 213.868493 134.392371 
L 214.295352 134.503866 
L 214.72221 134.59311 
L 215.149069 134.66007 
L 215.575928 134.704724 
L 216.002787 134.727055 
L 216.429646 134.727055 
" clip-path="url(#p6f86ee657d)" style="fill: none; stroke: #0271ae; stroke-opacity: 0.51; stroke-width: 4"/>
   </g>
   <g id="line2d_51">
    <path d="M 216.429646 134.727055 
L 216.856504 134.704724 
L 217.283363 134.66007 
L 217.710222 134.59311 
L 218.137081 134.503866 
L 218.56394 134.392371 
L 218.990798 134.258665 
L 219.417657 134.102794 
L 219.844516 133.924815 
L 220.271375 133.724791 
L 220.698234 133.502793 
" clip-path="url(#p6f86ee657d)" style="fill: none; stroke: #0271ae; stroke-opacity: 0.5; stroke-width: 4"/>
   </g>
   <g id="line2d_52">
    <path d="M 220.698234 133.502793 
L 221.125093 133.2589 
L 221.551951 132.993199 
L 221.97881 132.705784 
L 222.405669 132.396758 
L 222.832528 132.066231 
L 223.259387 131.71432 
L 223.686245 131.341152 
L 224.113104 130.946858 
L 224.539963 130.531579 
L 224.966822 130.095462 
" clip-path="url(#p6f86ee657d)" style="fill: none; stroke: #0271ae; stroke-opacity: 0.49; stroke-width: 4"/>
   </g>
   <g id="line2d_53">
    <path d="M 224.966822 130.095462 
L 225.393681 129.638664 
L 225.820539 129.161347 
L 226.247398 128.66368 
L 226.674257 128.145841 
L 227.101116 127.608015 
L 227.527975 127.050392 
L 227.954834 126.473171 
L 228.381692 125.876558 
L 228.808551 125.260764 
L 229.23541 124.626011 
" clip-path="url(#p6f86ee657d)" style="fill: none; stroke: #0271ae; stroke-opacity: 0.48; stroke-width: 4"/>
   </g>
   <g id="line2d_54">
    <path d="M 229.23541 124.626011 
L 229.662269 123.972522 
L 230.089128 123.300532 
L 230.515986 122.610278 
L 230.942845 121.902008 
L 231.369704 121.175972 
L 231.796563 120.43243 
L 232.223422 119.671646 
L 232.65028 118.893892 
L 233.077139 118.099443 
L 233.503998 117.288583 
" clip-path="url(#p6f86ee657d)" style="fill: none; stroke: #0271ae; stroke-opacity: 0.47; stroke-width: 4"/>
   </g>
   <g id="line2d_55">
    <path d="M 233.503998 117.288583 
L 233.930857 116.4616 
L 234.357716 115.61879 
L 234.784575 114.760451 
L 235.211433 113.886889 
L 235.638292 112.998417 
L 236.065151 112.095349 
L 236.49201 111.178007 
L 236.918869 110.246718 
L 237.345727 109.301813 
L 237.772586 108.34363 
" clip-path="url(#p6f86ee657d)" style="fill: none; stroke: #0271ae; stroke-opacity: 0.46; stroke-width: 4"/>
   </g>
   <g id="line2d_56">
    <path d="M 237.772586 108.34363 
L 238.199445 107.372508 
L 238.626304 106.388794 
L 239.053163 105.392837 
L 239.480021 104.384994 
L 239.90688 103.365621 
L 240.333739 102.335082 
L 240.760598 101.293745 
L 241.187457 100.241979 
L 241.614315 99.180159 
L 242.041174 98.108664 
" clip-path="url(#p6f86ee657d)" style="fill: none; stroke: #0271ae; stroke-opacity: 0.45; stroke-width: 4"/>
   </g>
   <g id="line2d_57">
    <path d="M 242.041174 98.108664 
L 242.468033 97.027874 
L 242.894892 95.938175 
L 243.321751 94.839953 
L 243.74861 93.733602 
L 244.175468 92.619513 
L 244.602327 91.498084 
L 245.029186 90.369714 
L 245.456045 89.234805 
L 245.882904 88.093761 
L 246.309762 86.946988 
" clip-path="url(#p6f86ee657d)" style="fill: none; stroke: #0271ae; stroke-opacity: 0.44; stroke-width: 4"/>
   </g>
   <g id="line2d_58">
    <path d="M 246.309762 86.946988 
L 246.736621 85.794894 
L 247.16348 84.63789 
L 247.590339 83.476386 
L 248.017198 82.310798 
L 248.444056 81.141539 
L 248.870915 79.969027 
L 249.297774 78.793678 
L 249.724633 77.61591 
L 250.151492 76.436145 
L 250.578351 75.2548 
" clip-path="url(#p6f86ee657d)" style="fill: none; stroke: #0271ae; stroke-opacity: 0.43; stroke-width: 4"/>
   </g>
   <g id="line2d_59">
    <path d="M 250.578351 75.2548 
L 251.005209 74.072297 
L 251.432068 72.889056 
L 251.858927 71.7055 
L 252.285786 70.522049 
L 252.712645 69.339125 
L 253.139503 68.157148 
L 253.566362 66.97654 
L 253.993221 65.797721 
L 254.42008 64.621111 
L 254.846939 63.447128 
" clip-path="url(#p6f86ee657d)" style="fill: none; stroke: #0271ae; stroke-opacity: 0.42; stroke-width: 4"/>
   </g>
   <g id="line2d_60">
    <path d="M 254.846939 63.447128 
L 255.273797 62.27619 
L 255.700656 61.108715 
L 256.127515 59.945117 
L 256.554374 58.785812 
L 256.981233 57.631211 
L 257.408092 56.481726 
L 257.83495 55.337767 
L 258.261809 54.199739 
L 258.688668 53.06805 
L 259.115527 51.9431 
" clip-path="url(#p6f86ee657d)" style="fill: none; stroke: #0271ae; stroke-opacity: 0.41; stroke-width: 4"/>
   </g>
   <g id="line2d_61">
    <path d="M 259.115527 51.9431 
L 259.542386 50.825292 
L 259.969244 49.715022 
L 260.396103 48.612687 
L 260.822962 47.518678 
L 261.249821 46.433385 
L 261.67668 45.357194 
L 262.103538 44.290489 
L 262.530397 43.233649 
L 262.957256 42.187051 
L 263.384115 41.151067 
" clip-path="url(#p6f86ee657d)" style="fill: none; stroke: #0271ae; stroke-opacity: 0.4; stroke-width: 4"/>
   </g>
   <g id="line2d_62">
    <path d="M 263.384115 41.151067 
L 263.810974 40.126066 
L 264.237832 39.112412 
L 264.664691 38.110468 
L 265.09155 37.120588 
L 265.518409 36.143127 
L 265.945268 35.178431 
L 266.372127 34.226845 
L 266.798985 33.288706 
L 267.225844 32.36435 
L 267.652703 31.454104 
" clip-path="url(#p6f86ee657d)" style="fill: none; stroke: #0271ae; stroke-opacity: 0.39; stroke-width: 4"/>
   </g>
   <g id="line2d_63">
    <path d="M 267.652703 31.454104 
L 268.079562 30.558294 
L 268.506421 29.677238 
L 268.933279 28.811249 
L 269.360138 27.960637 
L 269.786997 27.125703 
L 270.213856 26.306745 
L 270.640715 25.504055 
L 271.067573 24.717918 
L 271.494432 23.948615 
L 271.921291 23.196419 
" clip-path="url(#p6f86ee657d)" style="fill: none; stroke: #0271ae; stroke-opacity: 0.38; stroke-width: 4"/>
   </g>
   <g id="line2d_64">
    <path d="M 271.921291 23.196419 
L 272.34815 22.461597 
L 272.775009 21.744412 
L 273.201868 21.045119 
L 273.628726 20.363967 
L 274.055585 19.701198 
L 274.482444 19.057048 
L 274.909303 18.431747 
L 275.336162 17.825516 
L 275.76302 17.238573 
L 276.189879 16.671126 
" clip-path="url(#p6f86ee657d)" style="fill: none; stroke: #0271ae; stroke-opacity: 0.37; stroke-width: 4"/>
   </g>
   <g id="line2d_65">
    <path d="M 276.189879 16.671126 
L 276.616738 16.123377 
L 277.043597 15.595521 
L 277.470456 15.087745 
L 277.897314 14.600232 
L 278.324173 14.133153 
L 278.751032 13.686676 
L 279.177891 13.260959 
L 279.60475 12.856155 
L 280.031608 12.472406 
L 280.458467 12.109851 
" clip-path="url(#p6f86ee657d)" style="fill: none; stroke: #0271ae; stroke-opacity: 0.36; stroke-width: 4"/>
   </g>
   <g id="line2d_66">
    <path d="M 280.458467 12.109851 
L 280.885326 11.768617 
L 281.312185 11.448826 
L 281.739044 11.150592 
L 282.165903 10.874022 
L 282.592761 10.619214 
L 283.01962 10.386258 
L 283.446479 10.175237 
L 283.873338 9.986227 
L 284.300197 9.819295 
L 284.727055 9.6745 
" clip-path="url(#p6f86ee657d)" style="fill: none; stroke: #0271ae; stroke-opacity: 0.35; stroke-width: 4"/>
   </g>
   <g id="line2d_67">
    <path d="M 284.727055 9.6745 
L 285.153914 9.551894 
L 285.580773 9.45152 
L 286.007632 9.373415 
L 286.434491 9.317605 
L 286.861349 9.284111 
L 287.288208 9.272945 
L 287.715067 9.284111 
L 288.141926 9.317605 
L 288.568785 9.373415 
L 288.995644 9.45152 
" clip-path="url(#p6f86ee657d)" style="fill: none; stroke: #0271ae; stroke-opacity: 0.34; stroke-width: 4"/>
   </g>
   <g id="line2d_68">
    <path d="M 288.995644 9.45152 
L 289.422502 9.551894 
L 289.849361 9.6745 
L 290.27622 9.819295 
L 290.703079 9.986227 
L 291.129938 10.175237 
L 291.556796 10.386258 
L 291.983655 10.619214 
L 292.410514 10.874022 
L 292.837373 11.150592 
L 293.264232 11.448826 
" clip-path="url(#p6f86ee657d)" style="fill: none; stroke: #0271ae; stroke-opacity: 0.33; stroke-width: 4"/>
   </g>
   <g id="line2d_69">
    <path d="M 293.264232 11.448826 
L 293.69109 11.768617 
L 294.117949 12.109851 
L 294.544808 12.472406 
L 294.971667 12.856155 
L 295.398526 13.260959 
L 295.825385 13.686676 
L 296.252243 14.133153 
L 296.679102 14.600232 
L 297.105961 15.087745 
L 297.53282 15.595521 
" clip-path="url(#p6f86ee657d)" style="fill: none; stroke: #0271ae; stroke-opacity: 0.32; stroke-width: 4"/>
   </g>
   <g id="line2d_70">
    <path d="M 297.53282 15.595521 
L 297.959679 16.123377 
L 298.386537 16.671126 
L 298.813396 17.238573 
L 299.240255 17.825516 
L 299.667114 18.431747 
L 300.093973 19.057048 
L 300.520831 19.701198 
L 300.94769 20.363967 
L 301.374549 21.045119 
L 301.801408 21.744412 
" clip-path="url(#p6f86ee657d)" style="fill: none; stroke: #0271ae; stroke-opacity: 0.31; stroke-width: 4"/>
   </g>
   <g id="line2d_71">
    <path d="M 301.801408 21.744412 
L 302.228267 22.461597 
L 302.655125 23.196419 
L 303.081984 23.948615 
L 303.508843 24.717918 
L 303.935702 25.504055 
L 304.362561 26.306745 
L 304.78942 27.125703 
L 305.216278 27.960637 
L 305.643137 28.811249 
L 306.069996 29.677238 
" clip-path="url(#p6f86ee657d)" style="fill: none; stroke: #0271ae; stroke-opacity: 0.3; stroke-width: 4"/>
   </g>
   <g id="line2d_72">
    <path d="M 306.069996 29.677238 
L 306.496855 30.558294 
L 306.923714 31.454104 
L 307.350572 32.36435 
L 307.777431 33.288706 
L 308.20429 34.226845 
L 308.631149 35.178431 
L 309.058008 36.143127 
L 309.484866 37.120588 
L 309.911725 38.110468 
L 310.338584 39.112412 
" clip-path="url(#p6f86ee657d)" style="fill: none; stroke: #0271ae; stroke-opacity: 0.29; stroke-width: 4"/>
   </g>
   <g id="line2d_73">
    <path d="M 310.338584 39.112412 
L 310.765443 40.126066 
L 311.192302 41.151067 
L 311.619161 42.187051 
L 312.046019 43.233649 
L 312.472878 44.290489 
L 312.899737 45.357194 
L 313.326596 46.433385 
L 313.753455 47.518678 
L 314.180313 48.612687 
L 314.607172 49.715022 
" clip-path="url(#p6f86ee657d)" style="fill: none; stroke: #0271ae; stroke-opacity: 0.28; stroke-width: 4"/>
   </g>
   <g id="line2d_74">
    <path d="M 314.607172 49.715022 
L 315.034031 50.825292 
L 315.46089 51.9431 
L 315.887749 53.06805 
L 316.314607 54.199739 
L 316.741466 55.337767 
L 317.168325 56.481726 
L 317.595184 57.631211 
L 318.022043 58.785812 
L 318.448902 59.945117 
L 318.87576 61.108715 
" clip-path="url(#p6f86ee657d)" style="fill: none; stroke: #0271ae; stroke-opacity: 0.27; stroke-width: 4"/>
   </g>
   <g id="line2d_75">
    <path d="M 318.87576 61.108715 
L 319.302619 62.27619 
L 319.729478 63.447128 
L 320.156337 64.621111 
L 320.583196 65.797721 
L 321.010054 66.97654 
L 321.436913 68.157148 
L 321.863772 69.339125 
L 322.290631 70.522049 
L 322.71749 71.7055 
L 323.144348 72.889056 
" clip-path="url(#p6f86ee657d)" style="fill: none; stroke: #0271ae; stroke-opacity: 0.26; stroke-width: 4"/>
   </g>
   <g id="line2d_76">
    <path d="M 323.144348 72.889056 
L 323.571207 74.072297 
L 323.998066 75.2548 
L 324.424925 76.436145 
L 324.851784 77.61591 
L 325.278642 78.793678 
L 325.705501 79.969027 
L 326.13236 81.141539 
L 326.559219 82.310798 
L 326.986078 83.476386 
L 327.412937 84.63789 
" clip-path="url(#p6f86ee657d)" style="fill: none; stroke: #0271ae; stroke-opacity: 0.25; stroke-width: 4"/>
   </g>
   <g id="line2d_77">
    <path d="M 327.412937 84.63789 
L 327.839795 85.794894 
L 328.266654 86.946988 
L 328.693513 88.093761 
L 329.120372 89.234805 
L 329.547231 90.369714 
L 329.974089 91.498084 
L 330.400948 92.619513 
L 330.827807 93.733602 
L 331.254666 94.839953 
L 331.681525 95.938175 
" clip-path="url(#p6f86ee657d)" style="fill: none; stroke: #0271ae; stroke-opacity: 0.24; stroke-width: 4"/>
   </g>
   <g id="line2d_78">
    <path d="M 331.681525 95.938175 
L 332.108383 97.027874 
L 332.535242 98.108664 
L 332.962101 99.180159 
L 333.38896 100.241979 
L 333.815819 101.293745 
L 334.242678 102.335082 
L 334.669536 103.365621 
L 335.096395 104.384994 
L 335.523254 105.392837 
L 335.950113 106.388794 
" clip-path="url(#p6f86ee657d)" style="fill: none; stroke: #0271ae; stroke-opacity: 0.23; stroke-width: 4"/>
   </g>
   <g id="line2d_79">
    <path d="M 335.950113 106.388794 
L 336.376972 107.372508 
L 336.80383 108.34363 
L 337.230689 109.301813 
L 337.657548 110.246718 
L 338.084407 111.178007 
L 338.511266 112.095349 
L 338.938124 112.998417 
L 339.364983 113.886889 
L 339.791842 114.760451 
L 340.218701 115.61879 
" clip-path="url(#p6f86ee657d)" style="fill: none; stroke: #0271ae; stroke-opacity: 0.22; stroke-width: 4"/>
   </g>
   <g id="line2d_80">
    <path d="M 340.218701 115.61879 
L 340.64556 116.4616 
L 341.072419 117.288583 
L 341.499277 118.099443 
L 341.926136 118.893892 
L 342.352995 119.671646 
L 342.779854 120.43243 
L 343.206713 121.175972 
L 343.633571 121.902008 
L 344.06043 122.610278 
L 344.487289 123.300532 
" clip-path="url(#p6f86ee657d)" style="fill: none; stroke: #0271ae; stroke-opacity: 0.21; stroke-width: 4"/>
   </g>
   <g id="line2d_81">
    <path d="M 344.487289 123.300532 
L 344.914148 123.972522 
L 345.341007 124.626011 
L 345.767865 125.260764 
L 346.194724 125.876558 
L 346.621583 126.473171 
L 347.048442 127.050392 
L 347.475301 127.608015 
L 347.902159 128.145841 
L 348.329018 128.66368 
L 348.755877 129.161347 
" clip-path="url(#p6f86ee657d)" style="fill: none; stroke: #0271ae; stroke-opacity: 0.2; stroke-width: 4"/>
   </g>
   <g id="line2d_82">
    <path d="M 348.755877 129.161347 
L 349.182736 129.638664 
L 349.609595 130.095462 
L 350.036454 130.531579 
L 350.463312 130.946858 
L 350.890171 131.341152 
L 351.31703 131.71432 
L 351.743889 132.066231 
L 352.170748 132.396758 
L 352.597606 132.705784 
L 353.024465 132.993199 
" clip-path="url(#p6f86ee657d)" style="fill: none; stroke: #0271ae; stroke-opacity: 0.19; stroke-width: 4"/>
   </g>
   <g id="line2d_83">
    <path d="M 353.024465 132.993199 
L 353.451324 133.2589 
L 353.878183 133.502793 
L 354.305042 133.724791 
L 354.7319 133.924815 
L 355.158759 134.102794 
L 355.585618 134.258665 
L 356.012477 134.392371 
L 356.439336 134.503866 
L 356.866195 134.59311 
L 357.293053 134.66007 
" clip-path="url(#p6f86ee657d)" style="fill: none; stroke: #0271ae; stroke-opacity: 0.18; stroke-width: 4"/>
   </g>
   <g id="line2d_84">
    <path d="M 357.293053 134.66007 
L 357.719912 134.704724 
L 358.146771 134.727055 
L 358.57363 134.727055 
L 359.000489 134.704724 
L 359.427347 134.66007 
L 359.854206 134.59311 
L 360.281065 134.503866 
L 360.707924 134.392371 
L 361.134783 134.258665 
L 361.561641 134.102794 
" clip-path="url(#p6f86ee657d)" style="fill: none; stroke: #0271ae; stroke-opacity: 0.17; stroke-width: 4"/>
   </g>
   <g id="line2d_85">
    <path d="M 361.561641 134.102794 
L 361.9885 133.924815 
L 362.415359 133.724791 
L 362.842218 133.502793 
L 363.269077 133.2589 
L 363.695936 132.993199 
L 364.122794 132.705784 
L 364.549653 132.396758 
L 364.976512 132.066231 
L 365.403371 131.71432 
L 365.83023 131.341152 
" clip-path="url(#p6f86ee657d)" style="fill: none; stroke: #0271ae; stroke-opacity: 0.16; stroke-width: 4"/>
   </g>
   <g id="line2d_86">
    <path d="M 365.83023 131.341152 
L 366.257088 130.946858 
L 366.683947 130.531579 
L 367.110806 130.095462 
L 367.537665 129.638664 
L 367.964524 129.161347 
L 368.391382 128.66368 
L 368.818241 128.145841 
L 369.2451 127.608015 
L 369.671959 127.050392 
L 370.098818 126.473171 
" clip-path="url(#p6f86ee657d)" style="fill: none; stroke: #0271ae; stroke-opacity: 0.15; stroke-width: 4"/>
   </g>
   <g id="line2d_87">
    <path d="M 370.098818 126.473171 
L 370.525676 125.876558 
L 370.952535 125.260764 
L 371.379394 124.626011 
L 371.806253 123.972522 
L 372.233112 123.300532 
L 372.659971 122.610278 
L 373.086829 121.902008 
L 373.513688 121.175972 
L 373.940547 120.43243 
L 374.367406 119.671646 
" clip-path="url(#p6f86ee657d)" style="fill: none; stroke: #0271ae; stroke-opacity: 0.14; stroke-width: 4"/>
   </g>
   <g id="line2d_88">
    <path d="M 374.367406 119.671646 
L 374.794265 118.893892 
L 375.221123 118.099443 
L 375.647982 117.288583 
L 376.074841 116.4616 
L 376.5017 115.61879 
L 376.928559 114.760451 
L 377.355417 113.886889 
L 377.782276 112.998417 
L 378.209135 112.095349 
L 378.635994 111.178007 
" clip-path="url(#p6f86ee657d)" style="fill: none; stroke: #0271ae; stroke-opacity: 0.13; stroke-width: 4"/>
   </g>
   <g id="line2d_89">
    <path d="M 378.635994 111.178007 
L 379.062853 110.246718 
L 379.489712 109.301813 
L 379.91657 108.34363 
L 380.343429 107.372508 
L 380.770288 106.388794 
L 381.197147 105.392837 
L 381.624006 104.384994 
L 382.050864 103.365621 
L 382.477723 102.335082 
L 382.904582 101.293745 
" clip-path="url(#p6f86ee657d)" style="fill: none; stroke: #0271ae; stroke-opacity: 0.12; stroke-width: 4"/>
   </g>
   <g id="line2d_90">
    <path d="M 382.904582 101.293745 
L 383.331441 100.241979 
L 383.7583 99.180159 
L 384.185158 98.108664 
L 384.612017 97.027874 
L 385.038876 95.938175 
L 385.465735 94.839953 
L 385.892594 93.733602 
L 386.319452 92.619513 
L 386.746311 91.498084 
L 387.17317 90.369714 
" clip-path="url(#p6f86ee657d)" style="fill: none; stroke: #0271ae; stroke-opacity: 0.11; stroke-width: 4"/>
   </g>
   <g id="line2d_91">
    <path d="M 387.17317 90.369714 
L 387.600029 89.234805 
L 388.026888 88.093761 
L 388.453747 86.946988 
L 388.880605 85.794894 
L 389.307464 84.63789 
L 389.734323 83.476386 
L 390.161182 82.310798 
L 390.588041 81.141539 
L 391.014899 79.969027 
L 391.441758 78.793678 
" clip-path="url(#p6f86ee657d)" style="fill: none; stroke: #0271ae; stroke-opacity: 0.1; stroke-width: 4"/>
   </g>
   <g id="line2d_92">
    <path d="M 391.441758 78.793678 
L 391.868617 77.61591 
L 392.295476 76.436145 
L 392.722335 75.2548 
L 393.149193 74.072297 
L 393.576052 72.889056 
L 394.002911 71.7055 
L 394.42977 70.522049 
L 394.856629 69.339125 
L 395.283488 68.157148 
L 395.710346 66.97654 
" clip-path="url(#p6f86ee657d)" style="fill: none; stroke: #0271ae; stroke-opacity: 0.09; stroke-width: 4"/>
   </g>
   <g id="line2d_93">
    <path d="M 395.710346 66.97654 
L 396.137205 65.797721 
L 396.564064 64.621111 
L 396.990923 63.447128 
L 397.417782 62.27619 
L 397.84464 61.108715 
L 398.271499 59.945117 
L 398.698358 58.785812 
L 399.125217 57.631211 
L 399.552076 56.481726 
L 399.978934 55.337767 
" clip-path="url(#p6f86ee657d)" style="fill: none; stroke: #0271ae; stroke-opacity: 0.08; stroke-width: 4"/>
   </g>
   <g id="line2d_94">
    <path d="M 399.978934 55.337767 
L 400.405793 54.199739 
L 400.832652 53.06805 
L 401.259511 51.9431 
L 401.68637 50.825292 
L 402.113229 49.715022 
L 402.540087 48.612687 
L 402.966946 47.518678 
L 403.393805 46.433385 
L 403.820664 45.357194 
L 404.247523 44.290489 
" clip-path="url(#p6f86ee657d)" style="fill: none; stroke: #0271ae; stroke-opacity: 0.07; stroke-width: 4"/>
   </g>
   <g id="line2d_95">
    <path d="M 404.247523 44.290489 
L 404.674381 43.233649 
L 405.10124 42.187051 
L 405.528099 41.151067 
L 405.954958 40.126066 
L 406.381817 39.112412 
L 406.808675 38.110468 
L 407.235534 37.120588 
L 407.662393 36.143127 
L 408.089252 35.178431 
L 408.516111 34.226845 
" clip-path="url(#p6f86ee657d)" style="fill: none; stroke: #0271ae; stroke-opacity: 0.06; stroke-width: 4"/>
   </g>
   <g id="line2d_96">
    <path d="M 408.516111 34.226845 
L 408.942969 33.288706 
L 409.369828 32.36435 
L 409.796687 31.454104 
L 410.223546 30.558294 
L 410.650405 29.677238 
L 411.077264 28.811249 
L 411.504122 27.960637 
L 411.930981 27.125703 
L 412.35784 26.306745 
L 412.784699 25.504055 
" clip-path="url(#p6f86ee657d)" style="fill: none; stroke: #0271ae; stroke-opacity: 0.05; stroke-width: 4"/>
   </g>
   <g id="line2d_97">
    <path d="M 412.784699 25.504055 
L 413.211558 24.717918 
L 413.638416 23.948615 
L 414.065275 23.196419 
L 414.492134 22.461597 
L 414.918993 21.744412 
L 415.345852 21.045119 
L 415.77271 20.363967 
L 416.199569 19.701198 
L 416.626428 19.057048 
L 417.053287 18.431747 
" clip-path="url(#p6f86ee657d)" style="fill: none; stroke: #0271ae; stroke-opacity: 0.04; stroke-width: 4"/>
   </g>
   <g id="line2d_98">
    <path d="M 417.053287 18.431747 
L 417.480146 17.825516 
L 417.907005 17.238573 
L 418.333863 16.671126 
L 418.760722 16.123377 
L 419.187581 15.595521 
L 419.61444 15.087745 
L 420.041299 14.600232 
L 420.468157 14.133153 
L 420.895016 13.686676 
L 421.321875 13.260959 
" clip-path="url(#p6f86ee657d)" style="fill: none; stroke: #0271ae; stroke-opacity: 0.03; stroke-width: 4"/>
   </g>
   <g id="line2d_99">
    <path d="M 421.321875 13.260959 
L 421.748734 12.856155 
L 422.175593 12.472406 
L 422.602451 12.109851 
L 423.02931 11.768617 
L 423.456169 11.448826 
L 423.883028 11.150592 
L 424.309887 10.874022 
L 424.736746 10.619214 
L 425.163604 10.386258 
L 425.590463 10.175237 
" clip-path="url(#p6f86ee657d)" style="fill: none; stroke: #0271ae; stroke-opacity: 0.02; stroke-width: 4"/>
   </g>
   <g id="line2d_100">
    <path d="M 425.590463 10.175237 
L 426.017322 9.986227 
L 426.444181 9.819295 
L 426.87104 9.6745 
L 427.297898 9.551894 
L 427.724757 9.45152 
L 428.151616 9.373415 
L 428.578475 9.317605 
L 429.005334 9.284111 
L 429.432192 9.272945 
" clip-path="url(#p6f86ee657d)" style="fill: none; stroke: #0271ae; stroke-opacity: 0.01; stroke-width: 4"/>
   </g>
   <g id="line2d_101">
    <path d="M 3.00024 9.272945 
L 9.769001 9.272945 
L 9.769001 12.059794 
L 16.537762 12.059794 
L 16.537762 20.172718 
L 23.306523 20.172718 
L 23.306523 32.890847 
L 30.075285 32.890847 
L 30.075285 49.084119 
L 36.844046 49.084119 
L 36.844046 67.313693 
L 43.612807 67.313693 
L 43.612807 85.959789 
L 50.381568 85.959789 
L 50.381568 103.365621 
L 57.150329 103.365621 
L 57.150329 117.984604 
L 63.91909 117.984604 
L 63.91909 128.517777 
L 70.687851 128.517777 
L 70.687851 134.029221 
" clip-path="url(#p6f86ee657d)" style="fill: none"/>
    <defs>
     <path id="md8b9376bf1" d="M 0 3.5 
C 0.928211 3.5 1.81853 3.131218 2.474874 2.474874 
C 3.131218 1.81853 3.5 0.928211 3.5 0 
C 3.5 -0.928211 3.131218 -1.81853 2.474874 -2.474874 
C 1.81853 -3.131218 0.928211 -3.5 0 -3.5 
C -0.928211 -3.5 -1.81853 -3.131218 -2.474874 -2.474874 
C -3.131218 -1.81853 -3.5 -0.928211 -3.5 0 
C -3.5 0.928211 -3.131218 1.81853 -2.474874 2.474874 
C -1.81853 3.131218 -0.928211 3.5 0 3.5 
z
" style="stroke: #fefefa; stroke-opacity: 0; stroke-width: 1.5"/>
    </defs>
    <g clip-path="url(#p6f86ee657d)">
     <use xlink:href="#md8b9376bf1" x="3.00024" y="9.272945" style="fill: #dc2830; fill-opacity: 0; stroke: #fefefa; stroke-opacity: 0; stroke-width: 1.5"/>
     <use xlink:href="#md8b9376bf1" x="9.769001" y="12.059794" style="fill: #dc2830; fill-opacity: 0; stroke: #fefefa; stroke-opacity: 0; stroke-width: 1.5"/>
     <use xlink:href="#md8b9376bf1" x="16.537762" y="20.172718" style="fill: #dc2830; fill-opacity: 0; stroke: #fefefa; stroke-opacity: 0; stroke-width: 1.5"/>
     <use xlink:href="#md8b9376bf1" x="23.306523" y="32.890847" style="fill: #dc2830; fill-opacity: 0; stroke: #fefefa; stroke-opacity: 0; stroke-width: 1.5"/>
     <use xlink:href="#md8b9376bf1" x="30.075285" y="49.084119" style="fill: #dc2830; fill-opacity: 0; stroke: #fefefa; stroke-opacity: 0; stroke-width: 1.5"/>
     <use xlink:href="#md8b9376bf1" x="36.844046" y="67.313693" style="fill: #dc2830; fill-opacity: 0; stroke: #fefefa; stroke-opacity: 0; stroke-width: 1.5"/>
     <use xlink:href="#md8b9376bf1" x="43.612807" y="85.959789" style="fill: #dc2830; fill-opacity: 0; stroke: #fefefa; stroke-opacity: 0; stroke-width: 1.5"/>
     <use xlink:href="#md8b9376bf1" x="50.381568" y="103.365621" style="fill: #dc2830; fill-opacity: 0; stroke: #fefefa; stroke-opacity: 0; stroke-width: 1.5"/>
     <use xlink:href="#md8b9376bf1" x="57.150329" y="117.984604" style="fill: #dc2830; fill-opacity: 0; stroke: #fefefa; stroke-opacity: 0; stroke-width: 1.5"/>
     <use xlink:href="#md8b9376bf1" x="63.91909" y="128.517777" style="fill: #dc2830; fill-opacity: 0; stroke: #fefefa; stroke-opacity: 0; stroke-width: 1.5"/>
     <use xlink:href="#md8b9376bf1" x="70.687851" y="134.029221" style="fill: #dc2830; fill-opacity: 0; stroke: #fefefa; stroke-opacity: 0; stroke-width: 1.5"/>
    </g>
   </g>
   <g id="line2d_102">
    <path d="M 57.150329 117.984604 
L 63.91909 117.984604 
L 63.91909 128.517777 
L 70.687851 128.517777 
L 70.687851 134.029221 
L 77.456613 134.029221 
L 77.456613 134.029221 
L 84.225374 134.029221 
L 84.225374 128.517777 
L 90.994135 128.517777 
L 90.994135 117.984604 
L 97.762896 117.984604 
L 97.762896 103.365621 
L 104.531657 103.365621 
L 104.531657 85.959789 
L 111.300418 85.959789 
L 111.300418 67.313693 
L 118.06918 67.313693 
L 118.06918 49.084119 
L 124.837941 49.084119 
L 124.837941 32.890847 
" clip-path="url(#p6f86ee657d)" style="fill: none"/>
    <defs>
     <path id="m0892d55708" d="M 0 3.5 
C 0.928211 3.5 1.81853 3.131218 2.474874 2.474874 
C 3.131218 1.81853 3.5 0.928211 3.5 0 
C 3.5 -0.928211 3.131218 -1.81853 2.474874 -2.474874 
C 1.81853 -3.131218 0.928211 -3.5 0 -3.5 
C -0.928211 -3.5 -1.81853 -3.131218 -2.474874 -2.474874 
C -3.131218 -1.81853 -3.5 -0.928211 -3.5 0 
C -3.5 0.928211 -3.131218 1.81853 -2.474874 2.474874 
C -1.81853 3.131218 -0.928211 3.5 0 3.5 
z
" style="stroke: #fefefa; stroke-opacity: 0.125; stroke-width: 1.5"/>
    </defs>
    <g clip-path="url(#p6f86ee657d)">
     <use xlink:href="#m0892d55708" x="57.150329" y="117.984604" style="fill: #dc2830; fill-opacity: 0.125; stroke: #fefefa; stroke-opacity: 0.125; stroke-width: 1.5"/>
     <use xlink:href="#m0892d55708" x="63.91909" y="128.517777" style="fill: #dc2830; fill-opacity: 0.125; stroke: #fefefa; stroke-opacity: 0.125; stroke-width: 1.5"/>
     <use xlink:href="#m0892d55708" x="70.687851" y="134.029221" style="fill: #dc2830; fill-opacity: 0.125; stroke: #fefefa; stroke-opacity: 0.125; stroke-width: 1.5"/>
     <use xlink:href="#m0892d55708" x="77.456613" y="134.029221" style="fill: #dc2830; fill-opacity: 0.125; stroke: #fefefa; stroke-opacity: 0.125; stroke-width: 1.5"/>
     <use xlink:href="#m0892d55708" x="84.225374" y="128.517777" style="fill: #dc2830; fill-opacity: 0.125; stroke: #fefefa; stroke-opacity: 0.125; stroke-width: 1.5"/>
     <use xlink:href="#m0892d55708" x="90.994135" y="117.984604" style="fill: #dc2830; fill-opacity: 0.125; stroke: #fefefa; stroke-opacity: 0.125; stroke-width: 1.5"/>
     <use xlink:href="#m0892d55708" x="97.762896" y="103.365621" style="fill: #dc2830; fill-opacity: 0.125; stroke: #fefefa; stroke-opacity: 0.125; stroke-width: 1.5"/>
     <use xlink:href="#m0892d55708" x="104.531657" y="85.959789" style="fill: #dc2830; fill-opacity: 0.125; stroke: #fefefa; stroke-opacity: 0.125; stroke-width: 1.5"/>
     <use xlink:href="#m0892d55708" x="111.300418" y="67.313693" style="fill: #dc2830; fill-opacity: 0.125; stroke: #fefefa; stroke-opacity: 0.125; stroke-width: 1.5"/>
     <use xlink:href="#m0892d55708" x="118.06918" y="49.084119" style="fill: #dc2830; fill-opacity: 0.125; stroke: #fefefa; stroke-opacity: 0.125; stroke-width: 1.5"/>
     <use xlink:href="#m0892d55708" x="124.837941" y="32.890847" style="fill: #dc2830; fill-opacity: 0.125; stroke: #fefefa; stroke-opacity: 0.125; stroke-width: 1.5"/>
    </g>
   </g>
   <g id="line2d_103">
    <path d="M 111.300418 67.313693 
L 118.06918 67.313693 
L 118.06918 49.084119 
L 124.837941 49.084119 
L 124.837941 32.890847 
L 131.606702 32.890847 
L 131.606702 20.172718 
L 138.375463 20.172718 
L 138.375463 12.059794 
L 145.144224 12.059794 
L 145.144224 9.272945 
L 151.912985 9.272945 
L 151.912985 12.059794 
L 158.681746 12.059794 
L 158.681746 20.172718 
L 165.450508 20.172718 
L 165.450508 32.890847 
L 172.219269 32.890847 
L 172.219269 49.084119 
L 178.98803 49.084119 
L 178.98803 67.313693 
" clip-path="url(#p6f86ee657d)" style="fill: none"/>
    <defs>
     <path id="m94cfffa7dc" d="M 0 3.5 
C 0.928211 3.5 1.81853 3.131218 2.474874 2.474874 
C 3.131218 1.81853 3.5 0.928211 3.5 0 
C 3.5 -0.928211 3.131218 -1.81853 2.474874 -2.474874 
C 1.81853 -3.131218 0.928211 -3.5 0 -3.5 
C -0.928211 -3.5 -1.81853 -3.131218 -2.474874 -2.474874 
C -3.131218 -1.81853 -3.5 -0.928211 -3.5 0 
C -3.5 0.928211 -3.131218 1.81853 -2.474874 2.474874 
C -1.81853 3.131218 -0.928211 3.5 0 3.5 
z
" style="stroke: #fefefa; stroke-opacity: 0.25; stroke-width: 1.5"/>
    </defs>
    <g clip-path="url(#p6f86ee657d)">
     <use xlink:href="#m94cfffa7dc" x="111.300418" y="67.313693" style="fill: #dc2830; fill-opacity: 0.25; stroke: #fefefa; stroke-opacity: 0.25; stroke-width: 1.5"/>
     <use xlink:href="#m94cfffa7dc" x="118.06918" y="49.084119" style="fill: #dc2830; fill-opacity: 0.25; stroke: #fefefa; stroke-opacity: 0.25; stroke-width: 1.5"/>
     <use xlink:href="#m94cfffa7dc" x="124.837941" y="32.890847" style="fill: #dc2830; fill-opacity: 0.25; stroke: #fefefa; stroke-opacity: 0.25; stroke-width: 1.5"/>
     <use xlink:href="#m94cfffa7dc" x="131.606702" y="20.172718" style="fill: #dc2830; fill-opacity: 0.25; stroke: #fefefa; stroke-opacity: 0.25; stroke-width: 1.5"/>
     <use xlink:href="#m94cfffa7dc" x="138.375463" y="12.059794" style="fill: #dc2830; fill-opacity: 0.25; stroke: #fefefa; stroke-opacity: 0.25; stroke-width: 1.5"/>
     <use xlink:href="#m94cfffa7dc" x="145.144224" y="9.272945" style="fill: #dc2830; fill-opacity: 0.25; stroke: #fefefa; stroke-opacity: 0.25; stroke-width: 1.5"/>
     <use xlink:href="#m94cfffa7dc" x="151.912985" y="12.059794" style="fill: #dc2830; fill-opacity: 0.25; stroke: #fefefa; stroke-opacity: 0.25; stroke-width: 1.5"/>
     <use xlink:href="#m94cfffa7dc" x="158.681746" y="20.172718" style="fill: #dc2830; fill-opacity: 0.25; stroke: #fefefa; stroke-opacity: 0.25; stroke-width: 1.5"/>
     <use xlink:href="#m94cfffa7dc" x="165.450508" y="32.890847" style="fill: #dc2830; fill-opacity: 0.25; stroke: #fefefa; stroke-opacity: 0.25; stroke-width: 1.5"/>
     <use xlink:href="#m94cfffa7dc" x="172.219269" y="49.084119" style="fill: #dc2830; fill-opacity: 0.25; stroke: #fefefa; stroke-opacity: 0.25; stroke-width: 1.5"/>
     <use xlink:href="#m94cfffa7dc" x="178.98803" y="67.313693" style="fill: #dc2830; fill-opacity: 0.25; stroke: #fefefa; stroke-opacity: 0.25; stroke-width: 1.5"/>
    </g>
   </g>
   <g id="line2d_104">
    <path d="M 165.450508 32.890847 
L 172.219269 32.890847 
L 172.219269 49.084119 
L 178.98803 49.084119 
L 178.98803 67.313693 
L 185.756791 67.313693 
L 185.756791 85.959789 
L 192.525552 85.959789 
L 192.525552 103.365621 
L 199.294313 103.365621 
L 199.294313 117.984604 
L 206.063074 117.984604 
L 206.063074 128.517777 
L 212.831836 128.517777 
L 212.831836 134.029221 
L 219.600597 134.029221 
L 219.600597 134.029221 
L 226.369358 134.029221 
L 226.369358 128.517777 
L 233.138119 128.517777 
L 233.138119 117.984604 
" clip-path="url(#p6f86ee657d)" style="fill: none"/>
    <defs>
     <path id="m1a0fcb8478" d="M 0 3.5 
C 0.928211 3.5 1.81853 3.131218 2.474874 2.474874 
C 3.131218 1.81853 3.5 0.928211 3.5 0 
C 3.5 -0.928211 3.131218 -1.81853 2.474874 -2.474874 
C 1.81853 -3.131218 0.928211 -3.5 0 -3.5 
C -0.928211 -3.5 -1.81853 -3.131218 -2.474874 -2.474874 
C -3.131218 -1.81853 -3.5 -0.928211 -3.5 0 
C -3.5 0.928211 -3.131218 1.81853 -2.474874 2.474874 
C -1.81853 3.131218 -0.928211 3.5 0 3.5 
z
" style="stroke: #fefefa; stroke-opacity: 0.375; stroke-width: 1.5"/>
    </defs>
    <g clip-path="url(#p6f86ee657d)">
     <use xlink:href="#m1a0fcb8478" x="165.450508" y="32.890847" style="fill: #dc2830; fill-opacity: 0.375; stroke: #fefefa; stroke-opacity: 0.375; stroke-width: 1.5"/>
     <use xlink:href="#m1a0fcb8478" x="172.219269" y="49.084119" style="fill: #dc2830; fill-opacity: 0.375; stroke: #fefefa; stroke-opacity: 0.375; stroke-width: 1.5"/>
     <use xlink:href="#m1a0fcb8478" x="178.98803" y="67.313693" style="fill: #dc2830; fill-opacity: 0.375; stroke: #fefefa; stroke-opacity: 0.375; stroke-width: 1.5"/>
     <use xlink:href="#m1a0fcb8478" x="185.756791" y="85.959789" style="fill: #dc2830; fill-opacity: 0.375; stroke: #fefefa; stroke-opacity: 0.375; stroke-width: 1.5"/>
     <use xlink:href="#m1a0fcb8478" x="192.525552" y="103.365621" style="fill: #dc2830; fill-opacity: 0.375; stroke: #fefefa; stroke-opacity: 0.375; stroke-width: 1.5"/>
     <use xlink:href="#m1a0fcb8478" x="199.294313" y="117.984604" style="fill: #dc2830; fill-opacity: 0.375; stroke: #fefefa; stroke-opacity: 0.375; stroke-width: 1.5"/>
     <use xlink:href="#m1a0fcb8478" x="206.063074" y="128.517777" style="fill: #dc2830; fill-opacity: 0.375; stroke: #fefefa; stroke-opacity: 0.375; stroke-width: 1.5"/>
     <use xlink:href="#m1a0fcb8478" x="212.831836" y="134.029221" style="fill: #dc2830; fill-opacity: 0.375; stroke: #fefefa; stroke-opacity: 0.375; stroke-width: 1.5"/>
     <use xlink:href="#m1a0fcb8478" x="219.600597" y="134.029221" style="fill: #dc2830; fill-opacity: 0.375; stroke: #fefefa; stroke-opacity: 0.375; stroke-width: 1.5"/>
     <use xlink:href="#m1a0fcb8478" x="226.369358" y="128.517777" style="fill: #dc2830; fill-opacity: 0.375; stroke: #fefefa; stroke-opacity: 0.375; stroke-width: 1.5"/>
     <use xlink:href="#m1a0fcb8478" x="233.138119" y="117.984604" style="fill: #dc2830; fill-opacity: 0.375; stroke: #fefefa; stroke-opacity: 0.375; stroke-width: 1.5"/>
    </g>
   </g>
   <g id="line2d_105">
    <path d="M 219.600597 134.029221 
L 226.369358 134.029221 
L 226.369358 128.517777 
L 233.138119 128.517777 
L 233.138119 117.984604 
L 239.90688 117.984604 
L 239.90688 103.365621 
L 246.675641 103.365621 
L 246.675641 85.959789 
L 253.444403 85.959789 
L 253.444403 67.313693 
L 260.213164 67.313693 
L 260.213164 49.084119 
L 266.981925 49.084119 
L 266.981925 32.890847 
L 273.750686 32.890847 
L 273.750686 20.172718 
L 280.519447 20.172718 
L 280.519447 12.059794 
L 287.288208 12.059794 
L 287.288208 9.272945 
" clip-path="url(#p6f86ee657d)" style="fill: none"/>
    <defs>
     <path id="mf5e498d2d4" d="M 0 3.5 
C 0.928211 3.5 1.81853 3.131218 2.474874 2.474874 
C 3.131218 1.81853 3.5 0.928211 3.5 0 
C 3.5 -0.928211 3.131218 -1.81853 2.474874 -2.474874 
C 1.81853 -3.131218 0.928211 -3.5 0 -3.5 
C -0.928211 -3.5 -1.81853 -3.131218 -2.474874 -2.474874 
C -3.131218 -1.81853 -3.5 -0.928211 -3.5 0 
C -3.5 0.928211 -3.131218 1.81853 -2.474874 2.474874 
C -1.81853 3.131218 -0.928211 3.5 0 3.5 
z
" style="stroke: #fefefa; stroke-opacity: 0.5; stroke-width: 1.5"/>
    </defs>
    <g clip-path="url(#p6f86ee657d)">
     <use xlink:href="#mf5e498d2d4" x="219.600597" y="134.029221" style="fill: #dc2830; fill-opacity: 0.5; stroke: #fefefa; stroke-opacity: 0.5; stroke-width: 1.5"/>
     <use xlink:href="#mf5e498d2d4" x="226.369358" y="128.517777" style="fill: #dc2830; fill-opacity: 0.5; stroke: #fefefa; stroke-opacity: 0.5; stroke-width: 1.5"/>
     <use xlink:href="#mf5e498d2d4" x="233.138119" y="117.984604" style="fill: #dc2830; fill-opacity: 0.5; stroke: #fefefa; stroke-opacity: 0.5; stroke-width: 1.5"/>
     <use xlink:href="#mf5e498d2d4" x="239.90688" y="103.365621" style="fill: #dc2830; fill-opacity: 0.5; stroke: #fefefa; stroke-opacity: 0.5; stroke-width: 1.5"/>
     <use xlink:href="#mf5e498d2d4" x="246.675641" y="85.959789" style="fill: #dc2830; fill-opacity: 0.5; stroke: #fefefa; stroke-opacity: 0.5; stroke-width: 1.5"/>
     <use xlink:href="#mf5e498d2d4" x="253.444403" y="67.313693" style="fill: #dc2830; fill-opacity: 0.5; stroke: #fefefa; stroke-opacity: 0.5; stroke-width: 1.5"/>
     <use xlink:href="#mf5e498d2d4" x="260.213164" y="49.084119" style="fill: #dc2830; fill-opacity: 0.5; stroke: #fefefa; stroke-opacity: 0.5; stroke-width: 1.5"/>
     <use xlink:href="#mf5e498d2d4" x="266.981925" y="32.890847" style="fill: #dc2830; fill-opacity: 0.5; stroke: #fefefa; stroke-opacity: 0.5; stroke-width: 1.5"/>
     <use xlink:href="#mf5e498d2d4" x="273.750686" y="20.172718" style="fill: #dc2830; fill-opacity: 0.5; stroke: #fefefa; stroke-opacity: 0.5; stroke-width: 1.5"/>
     <use xlink:href="#mf5e498d2d4" x="280.519447" y="12.059794" style="fill: #dc2830; fill-opacity: 0.5; stroke: #fefefa; stroke-opacity: 0.5; stroke-width: 1.5"/>
     <use xlink:href="#mf5e498d2d4" x="287.288208" y="9.272945" style="fill: #dc2830; fill-opacity: 0.5; stroke: #fefefa; stroke-opacity: 0.5; stroke-width: 1.5"/>
    </g>
   </g>
   <g id="line2d_106">
    <path d="M 273.750686 20.172718 
L 280.519447 20.172718 
L 280.519447 12.059794 
L 287.288208 12.059794 
L 287.288208 9.272945 
L 294.056969 9.272945 
L 294.056969 12.059794 
L 300.825731 12.059794 
L 300.825731 20.172718 
L 307.594492 20.172718 
L 307.594492 32.890847 
L 314.363253 32.890847 
L 314.363253 49.084119 
L 321.132014 49.084119 
L 321.132014 67.313693 
L 327.900775 67.313693 
L 327.900775 85.959789 
L 334.669536 85.959789 
L 334.669536 103.365621 
L 341.438297 103.365621 
L 341.438297 117.984604 
" clip-path="url(#p6f86ee657d)" style="fill: none"/>
    <defs>
     <path id="me641e0eb2c" d="M 0 3.5 
C 0.928211 3.5 1.81853 3.131218 2.474874 2.474874 
C 3.131218 1.81853 3.5 0.928211 3.5 0 
C 3.5 -0.928211 3.131218 -1.81853 2.474874 -2.474874 
C 1.81853 -3.131218 0.928211 -3.5 0 -3.5 
C -0.928211 -3.5 -1.81853 -3.131218 -2.474874 -2.474874 
C -3.131218 -1.81853 -3.5 -0.928211 -3.5 0 
C -3.5 0.928211 -3.131218 1.81853 -2.474874 2.474874 
C -1.81853 3.131218 -0.928211 3.5 0 3.5 
z
" style="stroke: #fefefa; stroke-opacity: 0.625; stroke-width: 1.5"/>
    </defs>
    <g clip-path="url(#p6f86ee657d)">
     <use xlink:href="#me641e0eb2c" x="273.750686" y="20.172718" style="fill: #dc2830; fill-opacity: 0.625; stroke: #fefefa; stroke-opacity: 0.625; stroke-width: 1.5"/>
     <use xlink:href="#me641e0eb2c" x="280.519447" y="12.059794" style="fill: #dc2830; fill-opacity: 0.625; stroke: #fefefa; stroke-opacity: 0.625; stroke-width: 1.5"/>
     <use xlink:href="#me641e0eb2c" x="287.288208" y="9.272945" style="fill: #dc2830; fill-opacity: 0.625; stroke: #fefefa; stroke-opacity: 0.625; stroke-width: 1.5"/>
     <use xlink:href="#me641e0eb2c" x="294.056969" y="12.059794" style="fill: #dc2830; fill-opacity: 0.625; stroke: #fefefa; stroke-opacity: 0.625; stroke-width: 1.5"/>
     <use xlink:href="#me641e0eb2c" x="300.825731" y="20.172718" style="fill: #dc2830; fill-opacity: 0.625; stroke: #fefefa; stroke-opacity: 0.625; stroke-width: 1.5"/>
     <use xlink:href="#me641e0eb2c" x="307.594492" y="32.890847" style="fill: #dc2830; fill-opacity: 0.625; stroke: #fefefa; stroke-opacity: 0.625; stroke-width: 1.5"/>
     <use xlink:href="#me641e0eb2c" x="314.363253" y="49.084119" style="fill: #dc2830; fill-opacity: 0.625; stroke: #fefefa; stroke-opacity: 0.625; stroke-width: 1.5"/>
     <use xlink:href="#me641e0eb2c" x="321.132014" y="67.313693" style="fill: #dc2830; fill-opacity: 0.625; stroke: #fefefa; stroke-opacity: 0.625; stroke-width: 1.5"/>
     <use xlink:href="#me641e0eb2c" x="327.900775" y="85.959789" style="fill: #dc2830; fill-opacity: 0.625; stroke: #fefefa; stroke-opacity: 0.625; stroke-width: 1.5"/>
     <use xlink:href="#me641e0eb2c" x="334.669536" y="103.365621" style="fill: #dc2830; fill-opacity: 0.625; stroke: #fefefa; stroke-opacity: 0.625; stroke-width: 1.5"/>
     <use xlink:href="#me641e0eb2c" x="341.438297" y="117.984604" style="fill: #dc2830; fill-opacity: 0.625; stroke: #fefefa; stroke-opacity: 0.625; stroke-width: 1.5"/>
    </g>
   </g>
   <g id="line2d_107">
    <path d="M 327.900775 85.959789 
L 334.669536 85.959789 
L 334.669536 103.365621 
L 341.438297 103.365621 
L 341.438297 117.984604 
L 348.207059 117.984604 
L 348.207059 128.517777 
L 354.97582 128.517777 
L 354.97582 134.029221 
L 361.744581 134.029221 
L 361.744581 134.029221 
L 368.513342 134.029221 
L 368.513342 128.517777 
L 375.282103 128.517777 
L 375.282103 117.984604 
L 382.050864 117.984604 
L 382.050864 103.365621 
L 388.819626 103.365621 
L 388.819626 85.959789 
L 395.588387 85.959789 
L 395.588387 67.313693 
" clip-path="url(#p6f86ee657d)" style="fill: none"/>
    <defs>
     <path id="mf9d36016d3" d="M 0 3.5 
C 0.928211 3.5 1.81853 3.131218 2.474874 2.474874 
C 3.131218 1.81853 3.5 0.928211 3.5 0 
C 3.5 -0.928211 3.131218 -1.81853 2.474874 -2.474874 
C 1.81853 -3.131218 0.928211 -3.5 0 -3.5 
C -0.928211 -3.5 -1.81853 -3.131218 -2.474874 -2.474874 
C -3.131218 -1.81853 -3.5 -0.928211 -3.5 0 
C -3.5 0.928211 -3.131218 1.81853 -2.474874 2.474874 
C -1.81853 3.131218 -0.928211 3.5 0 3.5 
z
" style="stroke: #fefefa; stroke-opacity: 0.75; stroke-width: 1.5"/>
    </defs>
    <g clip-path="url(#p6f86ee657d)">
     <use xlink:href="#mf9d36016d3" x="327.900775" y="85.959789" style="fill: #dc2830; fill-opacity: 0.75; stroke: #fefefa; stroke-opacity: 0.75; stroke-width: 1.5"/>
     <use xlink:href="#mf9d36016d3" x="334.669536" y="103.365621" style="fill: #dc2830; fill-opacity: 0.75; stroke: #fefefa; stroke-opacity: 0.75; stroke-width: 1.5"/>
     <use xlink:href="#mf9d36016d3" x="341.438297" y="117.984604" style="fill: #dc2830; fill-opacity: 0.75; stroke: #fefefa; stroke-opacity: 0.75; stroke-width: 1.5"/>
     <use xlink:href="#mf9d36016d3" x="348.207059" y="128.517777" style="fill: #dc2830; fill-opacity: 0.75; stroke: #fefefa; stroke-opacity: 0.75; stroke-width: 1.5"/>
     <use xlink:href="#mf9d36016d3" x="354.97582" y="134.029221" style="fill: #dc2830; fill-opacity: 0.75; stroke: #fefefa; stroke-opacity: 0.75; stroke-width: 1.5"/>
     <use xlink:href="#mf9d36016d3" x="361.744581" y="134.029221" style="fill: #dc2830; fill-opacity: 0.75; stroke: #fefefa; stroke-opacity: 0.75; stroke-width: 1.5"/>
     <use xlink:href="#mf9d36016d3" x="368.513342" y="128.517777" style="fill: #dc2830; fill-opacity: 0.75; stroke: #fefefa; stroke-opacity: 0.75; stroke-width: 1.5"/>
     <use xlink:href="#mf9d36016d3" x="375.282103" y="117.984604" style="fill: #dc2830; fill-opacity: 0.75; stroke: #fefefa; stroke-opacity: 0.75; stroke-width: 1.5"/>
     <use xlink:href="#mf9d36016d3" x="382.050864" y="103.365621" style="fill: #dc2830; fill-opacity: 0.75; stroke: #fefefa; stroke-opacity: 0.75; stroke-width: 1.5"/>
     <use xlink:href="#mf9d36016d3" x="388.819626" y="85.959789" style="fill: #dc2830; fill-opacity: 0.75; stroke: #fefefa; stroke-opacity: 0.75; stroke-width: 1.5"/>
     <use xlink:href="#mf9d36016d3" x="395.588387" y="67.313693" style="fill: #dc2830; fill-opacity: 0.75; stroke: #fefefa; stroke-opacity: 0.75; stroke-width: 1.5"/>
    </g>
   </g>
   <g id="line2d_108">
    <path d="M 382.050864 103.365621 
L 388.819626 103.365621 
L 388.819626 85.959789 
L 395.588387 85.959789 
L 395.588387 67.313693 
L 402.357148 67.313693 
L 402.357148 49.084119 
L 409.125909 49.084119 
L 409.125909 32.890847 
L 415.89467 32.890847 
L 415.89467 20.172718 
L 422.663431 20.172718 
L 422.663431 12.059794 
L 429.432192 12.059794 
L 429.432192 9.272945 
" clip-path="url(#p6f86ee657d)" style="fill: none"/>
    <defs>
     <path id="m464c3d431a" d="M 0 3.5 
C 0.928211 3.5 1.81853 3.131218 2.474874 2.474874 
C 3.131218 1.81853 3.5 0.928211 3.5 0 
C 3.5 -0.928211 3.131218 -1.81853 2.474874 -2.474874 
C 1.81853 -3.131218 0.928211 -3.5 0 -3.5 
C -0.928211 -3.5 -1.81853 -3.131218 -2.474874 -2.474874 
C -3.131218 -1.81853 -3.5 -0.928211 -3.5 0 
C -3.5 0.928211 -3.131218 1.81853 -2.474874 2.474874 
C -1.81853 3.131218 -0.928211 3.5 0 3.5 
z
" style="stroke: #fefefa; stroke-opacity: 0.875; stroke-width: 1.5"/>
    </defs>
    <g clip-path="url(#p6f86ee657d)">
     <use xlink:href="#m464c3d431a" x="382.050864" y="103.365621" style="fill: #dc2830; fill-opacity: 0.875; stroke: #fefefa; stroke-opacity: 0.875; stroke-width: 1.5"/>
     <use xlink:href="#m464c3d431a" x="388.819626" y="85.959789" style="fill: #dc2830; fill-opacity: 0.875; stroke: #fefefa; stroke-opacity: 0.875; stroke-width: 1.5"/>
     <use xlink:href="#m464c3d431a" x="395.588387" y="67.313693" style="fill: #dc2830; fill-opacity: 0.875; stroke: #fefefa; stroke-opacity: 0.875; stroke-width: 1.5"/>
     <use xlink:href="#m464c3d431a" x="402.357148" y="49.084119" style="fill: #dc2830; fill-opacity: 0.875; stroke: #fefefa; stroke-opacity: 0.875; stroke-width: 1.5"/>
     <use xlink:href="#m464c3d431a" x="409.125909" y="32.890847" style="fill: #dc2830; fill-opacity: 0.875; stroke: #fefefa; stroke-opacity: 0.875; stroke-width: 1.5"/>
     <use xlink:href="#m464c3d431a" x="415.89467" y="20.172718" style="fill: #dc2830; fill-opacity: 0.875; stroke: #fefefa; stroke-opacity: 0.875; stroke-width: 1.5"/>
     <use xlink:href="#m464c3d431a" x="422.663431" y="12.059794" style="fill: #dc2830; fill-opacity: 0.875; stroke: #fefefa; stroke-opacity: 0.875; stroke-width: 1.5"/>
     <use xlink:href="#m464c3d431a" x="429.432192" y="9.272945" style="fill: #dc2830; fill-opacity: 0.875; stroke: #fefefa; stroke-opacity: 0.875; stroke-width: 1.5"/>
    </g>
   </g>
  </g>
 </g>
 <defs>
  <clipPath id="p6f86ee657d">
   <rect x="3.00024" y="3.00024" width="426.431952" height="137.99952"/>
  </clipPath>
 </defs>
</svg>
