<?xml version="1.0" encoding="utf-8" standalone="no"?>
<!DOCTYPE svg PUBLIC "-//W3C//DTD SVG 1.1//EN"
  "http://www.w3.org/Graphics/SVG/1.1/DTD/svg11.dtd">
<svg xmlns:xlink="http://www.w3.org/1999/xlink" width="576pt" height="144pt" viewBox="0 0 576 144" xmlns="http://www.w3.org/2000/svg" version="1.1">
 <metadata>
  <rdf:RDF xmlns:dc="http://purl.org/dc/elements/1.1/" xmlns:cc="http://creativecommons.org/ns#" xmlns:rdf="http://www.w3.org/1999/02/22-rdf-syntax-ns#">
   <cc:Work>
    <dc:type rdf:resource="http://purl.org/dc/dcmitype/StillImage"/>
    <dc:date>2022-06-16T16:29:39.575159</dc:date>
    <dc:format>image/svg+xml</dc:format>
    <dc:creator>
     <cc:Agent>
      <dc:title>Matplotlib v3.5.2, https://matplotlib.org/</dc:title>
     </cc:Agent>
    </dc:creator>
   </cc:Work>
  </rdf:RDF>
 </metadata>
 <defs>
  <style type="text/css">*{stroke-linejoin: round; stroke-linecap: butt}</style>
 </defs>
 <g id="figure_1">
  <g id="patch_1">
   <path d="M 0 144 
L 576 144 
L 576 0 
L 0 0 
L 0 144 
z
" style="fill: none"/>
  </g>
  <g id="axes_1">
   <g id="patch_2">
    <path d="M 3.00024 140.99976 
L 572.99976 140.99976 
L 572.99976 3.00024 
L 3.00024 3.00024 
L 3.00024 140.99976 
z
" style="fill: none"/>
   </g>
   <g id="matplotlib.axis_1"/>
   <g id="matplotlib.axis_2"/>
   <g id="line2d_1">
    <path d="M 3.00024 72.811716 
L 6.994231 72.941118 
L 10.988221 73.315073 
L 15.552782 73.991053 
L 21.829053 75.186899 
L 29.817034 76.695432 
L 33.811025 77.241415 
L 37.234445 77.514024 
L 40.657866 77.561058 
L 43.510716 77.404463 
L 46.363567 77.056848 
L 49.216417 76.513091 
L 52.069268 75.775292 
L 55.492688 74.647729 
L 58.916109 73.285276 
L 62.910099 71.459474 
L 69.18637 68.29961 
L 75.462641 65.185015 
L 79.456632 63.454257 
L 82.880053 62.241776 
L 85.732903 61.478387 
L 88.585754 60.978933 
L 90.868034 60.790047 
L 93.150314 60.801787 
L 95.432595 61.022878 
L 97.714875 61.458356 
L 99.997155 62.109361 
L 102.279436 62.97299 
L 104.561716 64.042239 
L 107.414566 65.650665 
L 110.267417 67.532317 
L 113.690837 70.094562 
L 117.684828 73.395292 
L 130.80794 84.568898 
L 133.660791 86.625955 
L 136.513641 88.405084 
L 138.795921 89.588915 
L 141.078202 90.530906 
L 143.360482 91.208016 
L 145.642763 91.601221 
L 147.354473 91.700861 
L 149.066183 91.628113 
L 150.777893 91.380179 
L 152.489604 90.95591 
L 154.201314 90.355845 
L 156.483594 89.286433 
L 158.765875 87.918769 
L 161.048155 86.268295 
L 163.330435 84.355665 
L 166.183286 81.635701 
L 169.036136 78.606583 
L 172.459557 74.662777 
L 178.735828 67.000883 
L 183.870959 60.867329 
L 187.294379 57.128316 
L 190.14723 54.354264 
L 192.42951 52.416766 
L 194.71179 50.770145 
L 196.994071 49.447353 
L 198.705781 48.68491 
L 200.417491 48.130505 
L 202.129201 47.792256 
L 203.840912 47.67637 
L 205.552622 47.787062 
L 207.264332 48.126481 
L 208.976043 48.694671 
L 210.687753 49.489541 
L 212.399463 50.506857 
L 214.111173 51.740259 
L 216.393454 53.706013 
L 218.675734 56.014989 
L 220.958014 58.635413 
L 223.810865 62.291349 
L 227.234285 67.123604 
L 231.798846 74.046702 
L 239.786827 86.244047 
L 243.210248 91.003898 
L 246.063098 94.558482 
L 248.345379 97.061645 
L 250.627659 99.21287 
L 252.339369 100.571 
L 254.05108 101.693711 
L 255.76279 102.568227 
L 257.4745 103.183917 
L 259.18621 103.532421 
L 260.897921 103.607744 
L 262.609631 103.406338 
L 264.321341 102.927158 
L 266.033052 102.171699 
L 267.744762 101.144003 
L 269.456472 99.850647 
L 271.168182 98.300709 
L 272.879893 96.505706 
L 275.162173 93.755462 
L 277.444453 90.63352 
L 280.297304 86.278431 
L 283.150154 81.516026 
L 287.144145 74.382733 
L 296.843836 56.799906 
L 299.696687 52.115507 
L 302.549537 47.879302 
L 304.831818 44.889476 
L 307.114098 42.311406 
L 308.825808 40.676094 
L 310.537519 39.315472 
L 312.249229 38.244145 
L 313.960939 37.474207 
L 315.672649 37.015112 
L 317.38436 36.87356 
L 319.09607 37.053423 
L 320.80778 37.55568 
L 322.51949 38.378389 
L 324.231201 39.516683 
L 325.942911 40.96279 
L 327.654621 42.706081 
L 329.366332 44.733149 
L 331.648612 47.849162 
L 333.930892 51.395656 
L 336.213173 55.320109 
L 339.066023 60.666516 
L 342.489444 67.558407 
L 355.041986 93.367887 
L 357.894836 98.472795 
L 360.177116 102.145265 
L 362.459397 105.3842 
L 364.171107 107.495041 
L 365.882817 109.309595 
L 367.594528 110.80953 
L 369.306238 111.979237 
L 371.017948 112.80599 
L 372.159088 113.161705 
L 373.300228 113.358506 
L 374.441369 113.394913 
L 375.582509 113.270082 
L 376.723649 112.983812 
L 377.864789 112.536551 
L 379.576499 111.566372 
L 381.28821 110.242991 
L 382.99992 108.576054 
L 384.71163 106.57837 
L 386.423341 104.265811 
L 388.705621 100.725523 
L 390.987901 96.711458 
L 393.270182 92.283878 
L 396.123032 86.271148 
L 400.117023 77.223226 
L 410.387284 53.482084 
L 413.240135 47.525695 
L 415.522415 43.165305 
L 417.804695 39.243449 
L 420.086976 35.826019 
L 421.798686 33.629363 
L 423.510396 31.770885 
L 425.222107 30.269127 
L 426.933817 29.139518 
L 428.074957 28.599339 
L 429.216097 28.232806 
L 430.357237 28.042002 
L 431.498378 28.028319 
L 432.639518 28.192443 
L 433.780658 28.534353 
L 434.921798 29.053317 
L 436.062938 29.74789 
L 437.774649 31.114126 
L 439.486359 32.860281 
L 441.198069 34.972682 
L 442.909779 37.434288 
L 444.62149 40.224833 
L 446.90377 44.416499 
L 449.18605 49.088009 
L 452.038901 55.492985 
L 455.462321 63.802973 
L 461.168022 78.40069 
L 466.303153 91.310604 
L 469.156004 97.985658 
L 472.008854 104.088873 
L 474.291134 108.454073 
L 476.573415 112.280425 
L 478.285125 114.757562 
L 479.996835 116.871494 
L 481.708546 118.60162 
L 483.420256 119.930692 
L 484.561396 120.587005 
L 485.702536 121.055729 
L 486.843676 121.334435 
L 487.984817 121.421446 
L 489.125957 121.315844 
L 490.267097 121.017477 
L 491.408237 120.526959 
L 492.549377 119.845674 
L 493.690517 118.975773 
L 495.402228 117.323827 
L 497.113938 115.267167 
L 498.825648 112.822438 
L 500.537359 110.009842 
L 502.819639 105.728709 
L 505.101919 100.900523 
L 507.95477 94.209082 
L 510.80762 86.939791 
L 514.801611 76.130613 
L 523.360162 52.761022 
L 526.213013 45.607315 
L 529.065863 39.080327 
L 531.348143 34.422346 
L 533.630424 30.349023 
L 535.342134 27.718886 
L 537.053844 25.480932 
L 538.765555 23.656699 
L 540.477265 22.264094 
L 541.618405 21.582614 
L 542.759545 21.102534 
L 543.900685 20.826273 
L 545.041826 20.755444 
L 546.182966 20.890845 
L 547.324106 21.232459 
L 548.465246 21.779443 
L 549.606386 22.530138 
L 550.747526 23.482067 
L 552.459237 25.279877 
L 554.170947 27.508468 
L 555.882657 30.149507 
L 557.594368 33.180897 
L 559.876648 37.785098 
L 562.158928 42.967194 
L 565.011779 50.135447 
L 568.435199 59.519139 
L 572.99976 72.811716 
L 572.99976 72.811716 
" clip-path="url(#p0b8220da34)" style="fill: none; stroke: #f2aa00; stroke-width: 4; stroke-linecap: round"/>
   </g>
   <g id="line2d_2">
    <path d="M 3.00024 40.98484 
L 5.85309 34.321301 
L 8.705941 28.268543 
L 10.988221 23.931285 
L 13.270502 20.091087 
L 14.982212 17.560853 
L 16.693922 15.346787 
L 18.405632 13.461529 
L 20.117343 11.915811 
L 21.829053 10.7184 
L 23.540763 9.876047 
L 24.681903 9.514135 
L 25.823044 9.313032 
L 26.964184 9.273203 
L 28.105324 9.394695 
L 29.246464 9.677144 
L 30.387604 10.119769 
L 32.099315 11.081321 
L 33.811025 12.394758 
L 35.522735 14.052313 
L 37.234445 16.044231 
L 38.946156 18.358834 
L 40.657866 20.982586 
L 42.940146 24.935105 
L 45.222427 29.368886 
L 47.504707 34.238111 
L 50.357557 40.860078 
L 53.780978 49.450015 
L 57.774969 60.10669 
L 71.468651 97.299681 
L 74.892071 105.659133 
L 77.744922 112.041943 
L 80.027202 116.693408 
L 82.309483 120.889845 
L 84.591763 124.589428 
L 86.303473 127.015812 
L 88.015183 129.128581 
L 89.726894 130.916153 
L 91.438604 132.368849 
L 93.150314 133.478941 
L 94.862025 134.240697 
L 96.003165 134.553097 
L 97.144305 134.708395 
L 98.285445 134.706399 
L 99.426585 134.547323 
L 100.567725 134.231785 
L 102.279436 133.467446 
L 103.991146 132.358561 
L 105.702856 130.912223 
L 107.414566 129.137458 
L 109.126277 127.045172 
L 110.837987 124.648081 
L 113.120267 121.003031 
L 115.402548 116.880737 
L 117.684828 112.324735 
L 120.537679 106.093095 
L 123.961099 97.963373 
L 127.95509 87.82138 
L 135.943071 66.661211 
L 141.078202 53.438823 
L 144.501622 45.197218 
L 147.354473 38.839222 
L 150.207323 33.050761 
L 152.489604 28.890386 
L 154.771884 25.192512 
L 157.054164 21.992899 
L 158.765875 19.938725 
L 160.477585 18.192917 
L 162.189295 16.764485 
L 163.901005 15.660575 
L 165.612716 14.886435 
L 167.324426 14.44539 
L 169.036136 14.338831 
L 170.747846 14.56621 
L 172.459557 15.125053 
L 174.171267 16.010982 
L 175.882977 17.21774 
L 177.594688 18.737245 
L 179.306398 20.559634 
L 181.018108 22.673332 
L 183.300388 25.921674 
L 185.582669 29.628635 
L 187.864949 33.7541 
L 190.7178 39.431756 
L 193.57065 45.599857 
L 196.994071 53.505822 
L 202.129201 66.007092 
L 210.687753 86.941755 
L 214.681743 96.049561 
L 217.534594 102.072992 
L 220.387444 107.588693 
L 222.669725 111.578972 
L 224.952005 115.152051 
L 227.234285 118.274086 
L 228.945996 120.301974 
L 230.657706 122.049362 
L 232.369416 123.507554 
L 234.081126 124.669566 
L 235.792837 125.530158 
L 237.504547 126.085854 
L 239.216257 126.334959 
L 240.927968 126.277555 
L 242.639678 125.915495 
L 244.351388 125.25238 
L 246.063098 124.293533 
L 247.774809 123.045959 
L 249.486519 121.518294 
L 251.198229 119.720747 
L 253.48051 116.924658 
L 255.76279 113.701457 
L 258.04507 110.08699 
L 260.897921 105.079349 
L 263.750771 99.607013 
L 267.174192 92.555616 
L 271.738752 82.607414 
L 282.009014 59.961146 
L 285.432435 52.944682 
L 288.285285 47.499534 
L 291.138135 42.508546 
L 293.420416 38.893321 
L 295.702696 35.650911 
L 297.984977 32.811322 
L 300.267257 30.400185 
L 301.978967 28.88583 
L 303.690677 27.631517 
L 305.402388 26.642813 
L 307.114098 25.923714 
L 308.825808 25.476636 
L 310.537519 25.302407 
L 312.249229 25.400276 
L 313.960939 25.767923 
L 315.672649 26.401486 
L 317.38436 27.295594 
L 319.09607 28.443403 
L 320.80778 29.836652 
L 322.51949 31.465716 
L 324.801771 33.985566 
L 327.084051 36.875834 
L 329.366332 40.103739 
L 332.219182 44.558388 
L 335.072032 49.408048 
L 339.066023 56.704979 
L 344.771724 67.722981 
L 352.189135 82.025915 
L 356.183126 89.231373 
L 359.606546 94.913364 
L 362.459397 99.205159 
L 364.741677 102.30249 
L 367.023957 105.069924 
L 369.306238 107.482604 
L 371.588518 109.519559 
L 373.300228 110.790379 
L 375.011939 111.834673 
L 376.723649 112.648205 
L 378.435359 113.228105 
L 380.14707 113.572875 
L 381.85878 113.682389 
L 383.57049 113.557878 
L 385.2822 113.201916 
L 386.993911 112.618394 
L 388.705621 111.812485 
L 390.417331 110.790607 
L 392.129041 109.560373 
L 394.411322 107.61124 
L 396.693602 105.331099 
L 398.975883 102.746798 
L 401.828733 99.134148 
L 404.681583 95.156122 
L 408.105004 89.996628 
L 412.669565 82.668944 
L 424.651537 63.140312 
L 428.074957 58.039128 
L 430.927808 54.109004 
L 433.780658 50.532809 
L 436.633508 47.362081 
L 438.915789 45.147455 
L 441.198069 43.2399 
L 443.48035 41.655117 
L 445.76263 40.405304 
L 447.47434 39.693088 
L 449.18605 39.17651 
L 450.897761 38.856715 
L 452.609471 38.7337 
L 454.321181 38.806324 
L 456.032892 39.07233 
L 457.744602 39.528359 
L 459.456312 40.169991 
L 461.738592 41.304648 
L 464.020873 42.743818 
L 466.303153 44.468939 
L 468.585434 46.458757 
L 471.438284 49.281947 
L 474.291134 52.430581 
L 477.714555 56.560366 
L 481.708546 61.733569 
L 489.696527 72.570328 
L 494.831658 79.366884 
L 498.825648 84.295884 
L 502.249069 88.149743 
L 505.101919 91.037307 
L 507.95477 93.586618 
L 510.23705 95.35906 
L 512.51933 96.87805 
L 514.801611 98.131691 
L 517.083891 99.110974 
L 519.366172 99.809833 
L 521.648452 100.225163 
L 523.930732 100.356811 
L 526.213013 100.207535 
L 528.495293 99.782934 
L 530.777573 99.091352 
L 533.059854 98.143746 
L 535.342134 96.95354 
L 537.624414 95.536449 
L 540.477265 93.473341 
L 543.330115 91.122543 
L 546.753536 87.982228 
L 550.747526 83.979389 
L 556.453227 77.883119 
L 565.011779 68.70524 
L 569.005769 64.725128 
L 572.42919 61.594684 
L 572.99976 61.103262 
L 572.99976 61.103262 
" clip-path="url(#p0b8220da34)" style="fill: none; stroke: #dc2830; stroke-width: 4; stroke-linecap: round"/>
   </g>
   <g id="line2d_3">
    <path d="M 3.00024 30.375881 
L 5.28252 30.496687 
L 7.564801 30.858417 
L 9.847081 31.459011 
L 12.129361 32.295049 
L 14.411642 33.361773 
L 16.693922 34.653107 
L 18.976203 36.161701 
L 21.829053 38.339764 
L 24.681903 40.824415 
L 27.534754 43.593556 
L 30.958174 47.257209 
L 34.381595 51.248036 
L 38.375586 56.249142 
L 43.510716 63.090277 
L 51.498698 74.212681 
L 59.486679 85.237894 
L 64.05124 91.198166 
L 68.04523 96.074811 
L 71.468651 99.935299 
L 74.892071 103.448525 
L 77.744922 106.078346 
L 80.597772 108.412299 
L 83.450623 110.429627 
L 85.732903 111.803362 
L 88.015183 112.955096 
L 90.297464 113.878271 
L 92.579744 114.56763 
L 94.862025 115.019248 
L 97.144305 115.230555 
L 99.426585 115.200347 
L 101.708866 114.928795 
L 103.991146 114.417448 
L 106.273426 113.669214 
L 108.555707 112.688356 
L 110.837987 111.480457 
L 113.120267 110.052394 
L 115.973118 107.970214 
L 118.825968 105.575339 
L 121.678819 102.889071 
L 125.102239 99.314717 
L 128.52566 95.401046 
L 132.51965 90.473298 
L 137.084211 84.470128 
L 143.360482 75.811826 
L 154.771884 60.003296 
L 159.336445 54.065271 
L 163.330435 49.214828 
L 166.753856 45.381449 
L 170.177276 41.899257 
L 173.030127 39.298012 
L 175.882977 36.994832 
L 178.735828 35.010202 
L 181.018108 33.663815 
L 183.300388 32.540318 
L 185.582669 31.646111 
L 187.864949 30.986282 
L 190.14723 30.56459 
L 192.42951 30.383435 
L 194.71179 30.443849 
L 196.994071 30.745487 
L 199.276351 31.286633 
L 201.558631 32.064204 
L 203.840912 33.073775 
L 206.123192 34.309597 
L 208.405472 35.764633 
L 211.258323 37.878964 
L 214.111173 40.303981 
L 216.964024 43.018116 
L 220.387444 46.622558 
L 223.810865 50.562299 
L 227.804855 55.514941 
L 232.369416 61.538761 
L 239.216257 71.010688 
L 249.486519 85.237894 
L 254.05108 91.198166 
L 258.04507 96.074811 
L 261.468491 99.935299 
L 264.891911 103.448525 
L 267.744762 106.078346 
L 270.597612 108.412299 
L 273.450463 110.429627 
L 275.732743 111.803362 
L 278.015023 112.955096 
L 280.297304 113.878271 
L 282.579584 114.56763 
L 284.861865 115.019248 
L 287.144145 115.230555 
L 289.426425 115.200347 
L 291.708706 114.928795 
L 293.990986 114.417448 
L 296.273266 113.669214 
L 298.555547 112.688356 
L 300.837827 111.480457 
L 303.120107 110.052394 
L 305.972958 107.970214 
L 308.825808 105.575339 
L 311.678659 102.889071 
L 315.102079 99.314717 
L 318.5255 95.401046 
L 322.51949 90.473298 
L 327.084051 84.470128 
L 333.360322 75.811826 
L 344.771724 60.003296 
L 349.336285 54.065271 
L 353.330275 49.214828 
L 356.753696 45.381449 
L 360.177116 41.899257 
L 363.029967 39.298012 
L 365.882817 36.994832 
L 368.735668 35.010202 
L 371.017948 33.663815 
L 373.300228 32.540318 
L 375.582509 31.646111 
L 377.864789 30.986282 
L 380.14707 30.56459 
L 382.42935 30.383435 
L 384.71163 30.443849 
L 386.993911 30.745487 
L 389.276191 31.286633 
L 391.558471 32.064204 
L 393.840752 33.073775 
L 396.123032 34.309597 
L 398.405312 35.764633 
L 401.258163 37.878964 
L 404.111013 40.303981 
L 406.963864 43.018116 
L 410.387284 46.622558 
L 413.810705 50.562299 
L 417.804695 55.514941 
L 422.369256 61.538761 
L 429.216097 71.010688 
L 439.486359 85.237894 
L 444.05092 91.198166 
L 448.04491 96.074811 
L 451.468331 99.935299 
L 454.891751 103.448525 
L 457.744602 106.078346 
L 460.597452 108.412299 
L 463.450303 110.429627 
L 465.732583 111.803362 
L 468.014863 112.955096 
L 470.297144 113.878271 
L 472.579424 114.56763 
L 474.861705 115.019248 
L 477.143985 115.230555 
L 479.426265 115.200347 
L 481.708546 114.928795 
L 483.990826 114.417448 
L 486.273106 113.669214 
L 488.555387 112.688356 
L 490.837667 111.480457 
L 493.119947 110.052394 
L 495.972798 107.970214 
L 498.825648 105.575339 
L 501.678499 102.889071 
L 505.101919 99.314717 
L 508.52534 95.401046 
L 512.51933 90.473298 
L 517.083891 84.470128 
L 523.360162 75.811826 
L 534.771564 60.003296 
L 539.336125 54.065271 
L 543.330115 49.214828 
L 546.753536 45.381449 
L 550.176956 41.899257 
L 553.029807 39.298012 
L 555.882657 36.994832 
L 558.735508 35.010202 
L 561.017788 33.663815 
L 563.300068 32.540318 
L 565.582349 31.646111 
L 567.864629 30.986282 
L 570.14691 30.56459 
L 572.42919 30.383435 
L 572.99976 30.375881 
L 572.99976 30.375881 
" clip-path="url(#p0b8220da34)" style="fill: none; stroke: #0271ae; stroke-width: 4; stroke-linecap: round"/>
   </g>
  </g>
 </g>
 <defs>
  <clipPath id="p0b8220da34">
   <rect x="3.00024" y="3.00024" width="569.99952" height="137.99952"/>
  </clipPath>
 </defs>
</svg>
