<?xml version="1.0" encoding="utf-8" standalone="no"?>
<!DOCTYPE svg PUBLIC "-//W3C//DTD SVG 1.1//EN"
  "http://www.w3.org/Graphics/SVG/1.1/DTD/svg11.dtd">
<svg xmlns:xlink="http://www.w3.org/1999/xlink" width="432.432432pt" height="144pt" viewBox="0 0 432.432432 144" xmlns="http://www.w3.org/2000/svg" version="1.1">
 <metadata>
  <rdf:RDF xmlns:dc="http://purl.org/dc/elements/1.1/" xmlns:cc="http://creativecommons.org/ns#" xmlns:rdf="http://www.w3.org/1999/02/22-rdf-syntax-ns#">
   <cc:Work>
    <dc:type rdf:resource="http://purl.org/dc/dcmitype/StillImage"/>
    <dc:date>2022-06-16T16:37:56.991466</dc:date>
    <dc:format>image/svg+xml</dc:format>
    <dc:creator>
     <cc:Agent>
      <dc:title>Matplotlib v3.5.2, https://matplotlib.org/</dc:title>
     </cc:Agent>
    </dc:creator>
   </cc:Work>
  </rdf:RDF>
 </metadata>
 <defs>
  <style type="text/css">*{stroke-linejoin: round; stroke-linecap: butt}</style>
 </defs>
 <g id="figure_1">
  <g id="patch_1">
   <path d="M 0 144 
L 432.432432 144 
L 432.432432 0 
L 0 0 
L 0 144 
z
" style="fill: none"/>
  </g>
  <g id="axes_1">
   <g id="patch_2">
    <path d="M 3.00024 121.5746 
L 213.215976 121.5746 
L 213.215976 3.00024 
L 3.00024 3.00024 
L 3.00024 121.5746 
z
" style="fill: none"/>
   </g>
   <g id="matplotlib.axis_1">
    <g id="text_1">
     <!-- Time -->
     <g transform="translate(94.891831 137.628476)scale(0.12 -0.12)">
      <defs>
       <path id="URWPalladioL-Roma-54" d="M 1632 4096 
C 1651 3880 1658 3734 1658 3462 
L 1658 781 
C 1658 280 1626 230 1331 211 
L 1024 192 
L 1024 0 
C 1402 -7 1626 0 1958 0 
C 2291 19 2522 12 2899 0 
L 2899 192 
L 2592 211 
C 2298 230 2266 280 2266 781 
L 2266 3462 
C 2266 3747 2272 3887 2291 4096 
L 3283 4096 
C 3462 4096 3533 4039 3539 3887 
L 3565 3386 
L 3763 3386 
C 3763 3801 3776 4051 3808 4416 
C 3347 4409 3136 4409 2957 4403 
C 2707 4390 2522 4390 2426 4390 
L 1414 4390 
C 1350 4390 1005 4396 550 4403 
L 115 4416 
C 147 4051 160 3801 160 3385 
L 358 3385 
L 384 3891 
C 390 4038 461 4096 640 4096 
L 1632 4096 
z
" transform="scale(0.015625)"/>
       <path id="URWPalladioL-Roma-69" d="M 1203 2982 
L 1146 3008 
C 819 2873 486 2784 147 2746 
L 147 2568 
L 384 2568 
C 640 2568 666 2523 666 2103 
L 666 669 
C 666 268 646 223 429 211 
L 134 192 
L 134 0 
C 774 0 774 0 934 0 
C 1094 19 1094 19 1734 0 
L 1734 192 
L 1440 211 
C 1222 224 1203 268 1203 671 
L 1203 2982 
z
M 909 4416 
C 717 4416 550 4249 550 4057 
C 550 3871 717 3705 902 3705 
C 1088 3705 1261 3871 1261 4057 
C 1261 4236 1088 4416 909 4416 
z
" transform="scale(0.015625)"/>
       <path id="URWPalladioL-Roma-6d" d="M 115 2579 
L 352 2579 
C 608 2579 634 2534 634 2112 
L 634 672 
C 634 268 614 224 397 211 
L 102 192 
L 102 0 
C 717 0 736 0 915 0 
C 1094 19 1261 12 1677 0 
L 1677 192 
L 1408 211 
C 1190 223 1171 268 1171 670 
L 1171 2023 
C 1171 2311 1594 2624 1978 2624 
C 2323 2624 2560 2298 2560 1813 
L 2560 670 
C 2560 268 2541 223 2323 211 
L 2029 192 
L 2029 0 
C 2669 0 2669 0 2829 0 
C 2989 19 2989 19 3629 0 
L 3629 192 
L 3334 211 
C 3117 223 3098 268 3098 670 
L 3098 2023 
C 3098 2311 3520 2624 3904 2624 
C 4250 2624 4486 2298 4486 1813 
L 4486 0 
C 4877 0 4883 0 4992 0 
C 5075 19 5075 19 5562 0 
L 5562 192 
L 5261 211 
C 5043 223 5024 268 5024 670 
L 5024 1985 
C 5024 2617 4653 3014 4064 3014 
C 3840 3014 3654 2956 3539 2854 
L 3053 2419 
C 2848 2841 2586 3014 2144 3014 
C 1907 3014 1728 2956 1613 2854 
L 1171 2445 
L 1171 2988 
L 1114 3008 
C 787 2873 454 2783 115 2745 
L 115 2579 
z
" transform="scale(0.015625)"/>
       <path id="URWPalladioL-Roma-65" d="M 2797 447 
L 2714 511 
C 2304 268 2157 211 1882 211 
C 1466 211 1120 396 941 710 
C 819 921 774 1100 762 1472 
L 1696 1472 
C 2138 1472 2413 1491 2854 1561 
C 2861 1651 2867 1708 2867 1786 
C 2867 2526 2394 3008 1677 3008 
C 1440 3008 1165 2924 902 2771 
C 378 2468 166 2069 166 1401 
C 166 998 262 652 435 409 
C 691 70 1120 -128 1600 -128 
C 1837 -128 2074 -77 2336 38 
C 2509 108 2643 192 2669 230 
L 2797 447 
z
M 2298 1708 
C 1965 1696 1811 1689 1581 1689 
C 1286 1689 1120 1696 774 1728 
C 774 2030 800 2172 883 2339 
C 1018 2623 1293 2796 1600 2796 
C 1811 2796 1978 2713 2093 2539 
C 2234 2326 2278 2140 2298 1708 
z
" transform="scale(0.015625)"/>
      </defs>
      <use xlink:href="#URWPalladioL-Roma-54" transform="scale(0.996264)"/>
      <use xlink:href="#URWPalladioL-Roma-69" transform="translate(55.591109 0)scale(0.996264)"/>
      <use xlink:href="#URWPalladioL-Roma-6d" transform="translate(84.581471 0)scale(0.996264)"/>
      <use xlink:href="#URWPalladioL-Roma-65" transform="translate(172.551145 0)scale(0.996264)"/>
     </g>
    </g>
   </g>
   <g id="matplotlib.axis_2"/>
   <g id="line2d_1">
    <path d="M 3.00024 8.389984 
L 9.781393 8.389984 
L 9.781393 8.389984 
L 16.562546 8.389984 
L 16.562546 116.184857 
L 23.343698 116.184857 
L 23.343698 116.184857 
L 30.124851 116.184857 
L 30.124851 116.184857 
L 36.906004 116.184857 
L 36.906004 116.184857 
L 43.687157 116.184857 
L 43.687157 116.184857 
L 50.468309 116.184857 
L 50.468309 116.184857 
L 57.249462 116.184857 
L 57.249462 8.389984 
L 64.030615 8.389984 
L 64.030615 8.389984 
L 70.811768 8.389984 
L 70.811768 116.184857 
L 77.592921 116.184857 
L 77.592921 116.184857 
L 84.374073 116.184857 
L 84.374073 116.184857 
L 91.155226 116.184857 
L 91.155226 116.184857 
L 97.936379 116.184857 
L 97.936379 116.184857 
L 104.717532 116.184857 
L 104.717532 116.184857 
L 111.498684 116.184857 
L 111.498684 8.389984 
L 118.279837 8.389984 
L 118.279837 8.389984 
L 125.06099 8.389984 
L 125.06099 116.184857 
L 131.842143 116.184857 
L 131.842143 116.184857 
L 138.623296 116.184857 
L 138.623296 116.184857 
L 145.404448 116.184857 
L 145.404448 116.184857 
L 152.185601 116.184857 
L 152.185601 116.184857 
L 158.966754 116.184857 
L 158.966754 116.184857 
L 165.747907 116.184857 
L 165.747907 8.389984 
L 172.52906 8.389984 
L 172.52906 8.389984 
L 179.310212 8.389984 
L 179.310212 116.184857 
L 186.091365 116.184857 
L 186.091365 116.184857 
L 192.872518 116.184857 
L 192.872518 116.184857 
L 199.653671 116.184857 
L 199.653671 116.184857 
L 206.434823 116.184857 
L 206.434823 116.184857 
L 213.215976 116.184857 
L 213.215976 116.184857 
" clip-path="url(#p79d4486797)" style="fill: none; stroke: #0271ae; stroke-width: 2; stroke-linecap: round"/>
    <defs>
     <path id="m5ed7c14e8c" d="M 0 3.5 
C 0.928211 3.5 1.81853 3.131218 2.474874 2.474874 
C 3.131218 1.81853 3.5 0.928211 3.5 0 
C 3.5 -0.928211 3.131218 -1.81853 2.474874 -2.474874 
C 1.81853 -3.131218 0.928211 -3.5 0 -3.5 
C -0.928211 -3.5 -1.81853 -3.131218 -2.474874 -2.474874 
C -3.131218 -1.81853 -3.5 -0.928211 -3.5 0 
C -3.5 0.928211 -3.131218 1.81853 -2.474874 2.474874 
C -1.81853 3.131218 -0.928211 3.5 0 3.5 
z
" style="stroke: #fefefa; stroke-width: 1.5"/>
    </defs>
    <g clip-path="url(#p79d4486797)">
     <use xlink:href="#m5ed7c14e8c" x="3.00024" y="8.389984" style="fill: #0271ae; stroke: #fefefa; stroke-width: 1.5"/>
     <use xlink:href="#m5ed7c14e8c" x="9.781393" y="8.389984" style="fill: #0271ae; stroke: #fefefa; stroke-width: 1.5"/>
     <use xlink:href="#m5ed7c14e8c" x="16.562546" y="116.184857" style="fill: #0271ae; stroke: #fefefa; stroke-width: 1.5"/>
     <use xlink:href="#m5ed7c14e8c" x="23.343698" y="116.184857" style="fill: #0271ae; stroke: #fefefa; stroke-width: 1.5"/>
     <use xlink:href="#m5ed7c14e8c" x="30.124851" y="116.184857" style="fill: #0271ae; stroke: #fefefa; stroke-width: 1.5"/>
     <use xlink:href="#m5ed7c14e8c" x="36.906004" y="116.184857" style="fill: #0271ae; stroke: #fefefa; stroke-width: 1.5"/>
     <use xlink:href="#m5ed7c14e8c" x="43.687157" y="116.184857" style="fill: #0271ae; stroke: #fefefa; stroke-width: 1.5"/>
     <use xlink:href="#m5ed7c14e8c" x="50.468309" y="116.184857" style="fill: #0271ae; stroke: #fefefa; stroke-width: 1.5"/>
     <use xlink:href="#m5ed7c14e8c" x="57.249462" y="8.389984" style="fill: #0271ae; stroke: #fefefa; stroke-width: 1.5"/>
     <use xlink:href="#m5ed7c14e8c" x="64.030615" y="8.389984" style="fill: #0271ae; stroke: #fefefa; stroke-width: 1.5"/>
     <use xlink:href="#m5ed7c14e8c" x="70.811768" y="116.184857" style="fill: #0271ae; stroke: #fefefa; stroke-width: 1.5"/>
     <use xlink:href="#m5ed7c14e8c" x="77.592921" y="116.184857" style="fill: #0271ae; stroke: #fefefa; stroke-width: 1.5"/>
     <use xlink:href="#m5ed7c14e8c" x="84.374073" y="116.184857" style="fill: #0271ae; stroke: #fefefa; stroke-width: 1.5"/>
     <use xlink:href="#m5ed7c14e8c" x="91.155226" y="116.184857" style="fill: #0271ae; stroke: #fefefa; stroke-width: 1.5"/>
     <use xlink:href="#m5ed7c14e8c" x="97.936379" y="116.184857" style="fill: #0271ae; stroke: #fefefa; stroke-width: 1.5"/>
     <use xlink:href="#m5ed7c14e8c" x="104.717532" y="116.184857" style="fill: #0271ae; stroke: #fefefa; stroke-width: 1.5"/>
     <use xlink:href="#m5ed7c14e8c" x="111.498684" y="8.389984" style="fill: #0271ae; stroke: #fefefa; stroke-width: 1.5"/>
     <use xlink:href="#m5ed7c14e8c" x="118.279837" y="8.389984" style="fill: #0271ae; stroke: #fefefa; stroke-width: 1.5"/>
     <use xlink:href="#m5ed7c14e8c" x="125.06099" y="116.184857" style="fill: #0271ae; stroke: #fefefa; stroke-width: 1.5"/>
     <use xlink:href="#m5ed7c14e8c" x="131.842143" y="116.184857" style="fill: #0271ae; stroke: #fefefa; stroke-width: 1.5"/>
     <use xlink:href="#m5ed7c14e8c" x="138.623296" y="116.184857" style="fill: #0271ae; stroke: #fefefa; stroke-width: 1.5"/>
     <use xlink:href="#m5ed7c14e8c" x="145.404448" y="116.184857" style="fill: #0271ae; stroke: #fefefa; stroke-width: 1.5"/>
     <use xlink:href="#m5ed7c14e8c" x="152.185601" y="116.184857" style="fill: #0271ae; stroke: #fefefa; stroke-width: 1.5"/>
     <use xlink:href="#m5ed7c14e8c" x="158.966754" y="116.184857" style="fill: #0271ae; stroke: #fefefa; stroke-width: 1.5"/>
     <use xlink:href="#m5ed7c14e8c" x="165.747907" y="8.389984" style="fill: #0271ae; stroke: #fefefa; stroke-width: 1.5"/>
     <use xlink:href="#m5ed7c14e8c" x="172.52906" y="8.389984" style="fill: #0271ae; stroke: #fefefa; stroke-width: 1.5"/>
     <use xlink:href="#m5ed7c14e8c" x="179.310212" y="116.184857" style="fill: #0271ae; stroke: #fefefa; stroke-width: 1.5"/>
     <use xlink:href="#m5ed7c14e8c" x="186.091365" y="116.184857" style="fill: #0271ae; stroke: #fefefa; stroke-width: 1.5"/>
     <use xlink:href="#m5ed7c14e8c" x="192.872518" y="116.184857" style="fill: #0271ae; stroke: #fefefa; stroke-width: 1.5"/>
     <use xlink:href="#m5ed7c14e8c" x="199.653671" y="116.184857" style="fill: #0271ae; stroke: #fefefa; stroke-width: 1.5"/>
     <use xlink:href="#m5ed7c14e8c" x="206.434823" y="116.184857" style="fill: #0271ae; stroke: #fefefa; stroke-width: 1.5"/>
     <use xlink:href="#m5ed7c14e8c" x="213.215976" y="116.184857" style="fill: #0271ae; stroke: #fefefa; stroke-width: 1.5"/>
    </g>
   </g>
  </g>
  <g id="axes_2">
   <g id="patch_3">
    <path d="M 219.216456 121.5746 
L 429.432192 121.5746 
L 429.432192 3.00024 
L 219.216456 3.00024 
L 219.216456 121.5746 
z
" style="fill: none"/>
   </g>
   <g id="patch_4">
    <path d="M 219.216456 121.5746 
L 219.216456 3.00024 
L 327.714901 3.00024 
L 327.714901 121.5746 
z
" clip-path="url(#p66fddf32ef)" style="fill: #343837; opacity: 0.1; stroke: #343837; stroke-width: 0.5; stroke-linejoin: miter"/>
   </g>
   <g id="matplotlib.axis_3">
    <g id="text_2">
     <!-- Frequency -->
     <g transform="translate(296.612562 137.628476)scale(0.12 -0.12)">
      <defs>
       <path id="URWPalladioL-Roma-46" d="M 1382 2092 
C 1562 2105 1754 2112 2042 2112 
C 2515 2112 2688 2092 2803 2035 
L 2854 1875 
L 2886 1497 
L 3078 1497 
C 3059 2092 3059 2092 3059 2208 
C 3059 2310 3059 2310 3078 2946 
L 2886 2946 
L 2854 2615 
C 2848 2558 2829 2501 2803 2450 
C 2688 2399 2509 2380 2086 2380 
C 1818 2380 1600 2387 1382 2399 
L 1382 4096 
C 1574 4140 1690 4147 2067 4147 
C 2374 4147 2733 4108 2931 4058 
C 3085 4020 3104 3988 3104 3842 
L 3104 3429 
L 3328 3429 
C 3328 3810 3360 4115 3430 4396 
C 3117 4409 2925 4416 2650 4416 
L 1965 4409 
C 1651 4396 1427 4396 1267 4396 
C 1082 4396 1082 4396 141 4416 
L 141 4223 
L 448 4204 
C 742 4185 774 4135 774 3633 
L 774 782 
C 774 280 742 230 448 211 
L 141 192 
L 141 0 
C 518 -7 742 0 1075 0 
C 1408 19 1638 12 2016 0 
L 2016 192 
L 1709 211 
C 1414 230 1382 281 1382 787 
L 1382 2092 
z
" transform="scale(0.015625)"/>
       <path id="URWPalladioL-Roma-72" d="M 147 2579 
L 384 2579 
C 640 2579 666 2534 666 2112 
L 666 672 
C 666 268 646 224 429 211 
L 134 192 
L 134 0 
C 595 -7 762 0 922 0 
C 1050 19 1050 19 1837 0 
L 1837 192 
L 1504 211 
C 1216 230 1203 249 1203 669 
L 1203 1763 
C 1203 2145 1459 2463 1773 2463 
C 1965 2463 2099 2374 2202 2171 
L 2336 2171 
L 2394 2937 
C 2323 2982 2208 3008 2093 3008 
C 1901 3008 1696 2905 1562 2745 
L 1203 2324 
L 1203 2982 
L 1146 3008 
C 819 2873 486 2783 147 2745 
L 147 2579 
z
" transform="scale(0.015625)"/>
       <path id="URWPalladioL-Roma-71" d="M 2515 434 
L 2515 -1118 
C 2515 -1523 2490 -1568 2278 -1581 
L 1907 -1600 
L 1907 -1792 
C 2650 -1773 2650 -1773 2797 -1773 
C 2950 -1773 3130 -1780 3584 -1792 
L 3584 -1600 
L 3290 -1581 
C 3072 -1568 3053 -1523 3053 -1118 
L 3053 2043 
C 3053 2439 3091 2681 3200 2924 
L 3078 2995 
L 2765 2796 
C 2438 2943 2163 3008 1888 3008 
C 1702 3008 1478 2956 1382 2899 
L 845 2553 
C 435 2292 224 1870 224 1315 
C 224 479 730 -64 1523 -64 
C 1658 -64 1766 -39 1850 12 
L 2515 434 
z
M 2515 779 
C 2515 690 2362 524 2189 428 
C 2035 345 1888 300 1734 300 
C 1171 300 781 824 781 1596 
C 781 2298 1139 2707 1754 2707 
C 2067 2707 2291 2630 2515 2445 
L 2515 779 
z
" transform="scale(0.015625)"/>
       <path id="URWPalladioL-Roma-75" d="M 3219 2982 
L 3162 3008 
C 2835 2873 2502 2784 2163 2745 
L 2163 2567 
L 2400 2567 
C 2656 2567 2682 2522 2682 2101 
L 2682 1060 
C 2682 920 2592 741 2445 594 
C 2266 415 2061 326 1811 326 
C 1587 326 1408 396 1306 517 
C 1216 620 1171 817 1171 1098 
L 1171 2982 
L 1114 3008 
C 787 2873 454 2784 115 2745 
L 115 2567 
L 352 2567 
C 608 2567 634 2522 634 2101 
L 634 1028 
C 634 581 672 383 787 224 
C 928 32 1171 -64 1536 -64 
C 1824 -58 2080 32 2253 192 
L 2682 588 
C 2682 403 2675 300 2656 0 
C 3085 0 3091 0 3187 0 
C 3277 19 3277 19 3718 0 
L 3718 192 
L 3456 211 
C 3238 224 3219 262 3219 672 
L 3219 2982 
z
" transform="scale(0.015625)"/>
       <path id="URWPalladioL-Roma-6e" d="M 2624 0 
C 3014 0 3021 0 3130 0 
C 3219 19 3219 19 3661 0 
L 3661 192 
L 3398 211 
C 3181 223 3162 262 3162 670 
L 3162 1902 
C 3162 2649 2810 3014 2093 3014 
C 1856 3014 1722 2969 1587 2854 
L 1101 2432 
L 1101 2988 
L 1043 3008 
C 717 2873 384 2784 45 2746 
L 45 2568 
L 282 2568 
C 538 2568 563 2523 563 2103 
L 563 669 
C 563 268 544 223 326 211 
L 38 192 
L 38 0 
C 474 -7 646 0 832 0 
C 1018 19 1190 12 1626 0 
L 1626 192 
L 1338 211 
C 1120 223 1101 268 1101 670 
L 1101 2023 
C 1101 2311 1523 2624 1914 2624 
C 2342 2624 2624 2304 2624 1813 
L 2624 0 
z
" transform="scale(0.015625)"/>
       <path id="URWPalladioL-Roma-63" d="M 2554 1995 
C 2554 2290 2586 2553 2643 2783 
C 2387 2937 2163 3008 1901 3008 
C 1594 3008 1235 2886 851 2643 
C 403 2360 166 1911 166 1347 
C 166 480 774 -128 1632 -128 
C 1965 -128 2445 -7 2509 89 
L 2643 294 
L 2579 390 
C 2342 262 2138 204 1907 204 
C 1197 204 730 756 730 1603 
C 730 2290 1050 2675 1626 2675 
C 1907 2675 2214 2547 2330 2386 
L 2374 1995 
L 2554 1995 
z
" transform="scale(0.015625)"/>
       <path id="URWPalladioL-Roma-79" d="M 1901 569 
C 1760 812 1690 960 1574 1273 
L 1165 2349 
C 1126 2457 1101 2553 1101 2617 
C 1101 2707 1171 2758 1318 2765 
L 1562 2777 
L 1562 2957 
C 941 2937 941 2937 819 2937 
C 698 2937 698 2937 77 2957 
L 77 2777 
L 192 2765 
C 352 2745 429 2675 525 2451 
L 1222 774 
C 1402 339 1466 185 1581 -135 
L 1434 -525 
C 1229 -1063 979 -1364 736 -1364 
C 634 -1364 518 -1312 410 -1216 
L 326 -1216 
L 173 -1696 
C 294 -1760 397 -1792 518 -1792 
C 947 -1792 1222 -1562 1466 -1005 
L 2765 1990 
C 3021 2573 3142 2745 3302 2765 
L 3482 2777 
L 3482 2957 
C 2976 2937 2976 2937 2874 2937 
C 2771 2937 2771 2937 2266 2957 
L 2266 2777 
L 2432 2765 
C 2611 2752 2701 2694 2701 2605 
C 2701 2560 2688 2502 2662 2438 
L 1901 569 
z
" transform="scale(0.015625)"/>
      </defs>
      <use xlink:href="#URWPalladioL-Roma-46" transform="scale(0.996264)"/>
      <use xlink:href="#URWPalladioL-Roma-72" transform="translate(55.391677 0)scale(0.996264)"/>
      <use xlink:href="#URWPalladioL-Roma-65" transform="translate(92.950994 0)scale(0.996264)"/>
      <use xlink:href="#URWPalladioL-Roma-71" transform="translate(140.671289 0)scale(0.996264)"/>
      <use xlink:href="#URWPalladioL-Roma-75" transform="translate(196.461922 0)scale(0.996264)"/>
      <use xlink:href="#URWPalladioL-Roma-65" transform="translate(256.535657 0)scale(0.996264)"/>
      <use xlink:href="#URWPalladioL-Roma-6e" transform="translate(304.255952 0)scale(0.996264)"/>
      <use xlink:href="#URWPalladioL-Roma-63" transform="translate(362.238012 0)scale(0.996264)"/>
      <use xlink:href="#URWPalladioL-Roma-79" transform="translate(406.471581 0)scale(0.996264)"/>
     </g>
    </g>
   </g>
   <g id="matplotlib.axis_4"/>
   <g id="line2d_2">
    <path d="M 219.216456 116.184857 
L 225.997609 116.184857 
L 225.997609 116.184857 
L 232.778762 116.184857 
L 232.778762 116.184857 
L 239.559915 116.184857 
L 239.559915 116.184857 
L 246.341067 116.184857 
L 246.341067 74.933545 
L 253.12222 74.933545 
L 253.12222 116.184857 
L 259.903373 116.184857 
L 259.903373 116.184857 
L 266.684526 116.184857 
L 266.684526 116.184857 
L 273.465678 116.184857 
L 273.465678 39.962371 
L 280.246831 39.962371 
L 280.246831 116.184857 
L 287.027984 116.184857 
L 287.027984 116.184857 
L 293.809137 116.184857 
L 293.809137 116.184857 
L 300.59029 116.184857 
L 300.59029 16.59538 
L 307.371442 16.59538 
L 307.371442 116.184857 
L 314.152595 116.184857 
L 314.152595 116.184857 
L 320.933748 116.184857 
L 320.933748 116.184857 
L 327.714901 116.184857 
L 327.714901 8.389984 
L 334.496053 8.389984 
L 334.496053 116.184857 
L 341.277206 116.184857 
L 341.277206 116.184857 
L 348.058359 116.184857 
L 348.058359 116.184857 
L 354.839512 116.184857 
L 354.839512 16.59538 
L 361.620665 16.59538 
L 361.620665 116.184857 
L 368.401817 116.184857 
L 368.401817 116.184857 
L 375.18297 116.184857 
L 375.18297 116.184857 
L 381.964123 116.184857 
L 381.964123 39.962371 
L 388.745276 39.962371 
L 388.745276 116.184857 
L 395.526429 116.184857 
L 395.526429 116.184857 
L 402.307581 116.184857 
L 402.307581 116.184857 
L 409.088734 116.184857 
L 409.088734 74.933545 
L 415.869887 74.933545 
L 415.869887 116.184857 
L 422.65104 116.184857 
L 422.65104 116.184857 
L 429.432192 116.184857 
L 429.432192 116.184857 
" clip-path="url(#p66fddf32ef)" style="fill: none; stroke: #444f95; stroke-width: 2; stroke-linecap: round"/>
    <defs>
     <path id="m7d98e3a65d" d="M 0 3.5 
C 0.928211 3.5 1.81853 3.131218 2.474874 2.474874 
C 3.131218 1.81853 3.5 0.928211 3.5 0 
C 3.5 -0.928211 3.131218 -1.81853 2.474874 -2.474874 
C 1.81853 -3.131218 0.928211 -3.5 0 -3.5 
C -0.928211 -3.5 -1.81853 -3.131218 -2.474874 -2.474874 
C -3.131218 -1.81853 -3.5 -0.928211 -3.5 0 
C -3.5 0.928211 -3.131218 1.81853 -2.474874 2.474874 
C -1.81853 3.131218 -0.928211 3.5 0 3.5 
z
" style="stroke: #fefefa; stroke-width: 1.5"/>
    </defs>
    <g clip-path="url(#p66fddf32ef)">
     <use xlink:href="#m7d98e3a65d" x="219.216456" y="116.184857" style="fill: #444f95; stroke: #fefefa; stroke-width: 1.5"/>
     <use xlink:href="#m7d98e3a65d" x="225.997609" y="116.184857" style="fill: #444f95; stroke: #fefefa; stroke-width: 1.5"/>
     <use xlink:href="#m7d98e3a65d" x="232.778762" y="116.184857" style="fill: #444f95; stroke: #fefefa; stroke-width: 1.5"/>
     <use xlink:href="#m7d98e3a65d" x="239.559915" y="116.184857" style="fill: #444f95; stroke: #fefefa; stroke-width: 1.5"/>
     <use xlink:href="#m7d98e3a65d" x="246.341067" y="74.933545" style="fill: #444f95; stroke: #fefefa; stroke-width: 1.5"/>
     <use xlink:href="#m7d98e3a65d" x="253.12222" y="116.184857" style="fill: #444f95; stroke: #fefefa; stroke-width: 1.5"/>
     <use xlink:href="#m7d98e3a65d" x="259.903373" y="116.184857" style="fill: #444f95; stroke: #fefefa; stroke-width: 1.5"/>
     <use xlink:href="#m7d98e3a65d" x="266.684526" y="116.184857" style="fill: #444f95; stroke: #fefefa; stroke-width: 1.5"/>
     <use xlink:href="#m7d98e3a65d" x="273.465678" y="39.962371" style="fill: #444f95; stroke: #fefefa; stroke-width: 1.5"/>
     <use xlink:href="#m7d98e3a65d" x="280.246831" y="116.184857" style="fill: #444f95; stroke: #fefefa; stroke-width: 1.5"/>
     <use xlink:href="#m7d98e3a65d" x="287.027984" y="116.184857" style="fill: #444f95; stroke: #fefefa; stroke-width: 1.5"/>
     <use xlink:href="#m7d98e3a65d" x="293.809137" y="116.184857" style="fill: #444f95; stroke: #fefefa; stroke-width: 1.5"/>
     <use xlink:href="#m7d98e3a65d" x="300.59029" y="16.59538" style="fill: #444f95; stroke: #fefefa; stroke-width: 1.5"/>
     <use xlink:href="#m7d98e3a65d" x="307.371442" y="116.184857" style="fill: #444f95; stroke: #fefefa; stroke-width: 1.5"/>
     <use xlink:href="#m7d98e3a65d" x="314.152595" y="116.184857" style="fill: #444f95; stroke: #fefefa; stroke-width: 1.5"/>
     <use xlink:href="#m7d98e3a65d" x="320.933748" y="116.184857" style="fill: #444f95; stroke: #fefefa; stroke-width: 1.5"/>
     <use xlink:href="#m7d98e3a65d" x="327.714901" y="8.389984" style="fill: #444f95; stroke: #fefefa; stroke-width: 1.5"/>
     <use xlink:href="#m7d98e3a65d" x="334.496053" y="116.184857" style="fill: #444f95; stroke: #fefefa; stroke-width: 1.5"/>
     <use xlink:href="#m7d98e3a65d" x="341.277206" y="116.184857" style="fill: #444f95; stroke: #fefefa; stroke-width: 1.5"/>
     <use xlink:href="#m7d98e3a65d" x="348.058359" y="116.184857" style="fill: #444f95; stroke: #fefefa; stroke-width: 1.5"/>
     <use xlink:href="#m7d98e3a65d" x="354.839512" y="16.59538" style="fill: #444f95; stroke: #fefefa; stroke-width: 1.5"/>
     <use xlink:href="#m7d98e3a65d" x="361.620665" y="116.184857" style="fill: #444f95; stroke: #fefefa; stroke-width: 1.5"/>
     <use xlink:href="#m7d98e3a65d" x="368.401817" y="116.184857" style="fill: #444f95; stroke: #fefefa; stroke-width: 1.5"/>
     <use xlink:href="#m7d98e3a65d" x="375.18297" y="116.184857" style="fill: #444f95; stroke: #fefefa; stroke-width: 1.5"/>
     <use xlink:href="#m7d98e3a65d" x="381.964123" y="39.962371" style="fill: #444f95; stroke: #fefefa; stroke-width: 1.5"/>
     <use xlink:href="#m7d98e3a65d" x="388.745276" y="116.184857" style="fill: #444f95; stroke: #fefefa; stroke-width: 1.5"/>
     <use xlink:href="#m7d98e3a65d" x="395.526429" y="116.184857" style="fill: #444f95; stroke: #fefefa; stroke-width: 1.5"/>
     <use xlink:href="#m7d98e3a65d" x="402.307581" y="116.184857" style="fill: #444f95; stroke: #fefefa; stroke-width: 1.5"/>
     <use xlink:href="#m7d98e3a65d" x="409.088734" y="74.933545" style="fill: #444f95; stroke: #fefefa; stroke-width: 1.5"/>
     <use xlink:href="#m7d98e3a65d" x="415.869887" y="116.184857" style="fill: #444f95; stroke: #fefefa; stroke-width: 1.5"/>
     <use xlink:href="#m7d98e3a65d" x="422.65104" y="116.184857" style="fill: #444f95; stroke: #fefefa; stroke-width: 1.5"/>
     <use xlink:href="#m7d98e3a65d" x="429.432192" y="116.184857" style="fill: #444f95; stroke: #fefefa; stroke-width: 1.5"/>
    </g>
   </g>
  </g>
 </g>
 <defs>
  <clipPath id="p79d4486797">
   <rect x="3.00024" y="3.00024" width="210.215736" height="118.57436"/>
  </clipPath>
  <clipPath id="p66fddf32ef">
   <rect x="219.216456" y="3.00024" width="210.215736" height="118.57436"/>
  </clipPath>
 </defs>
</svg>
